<ttFont>
    <TTGlyph name=".notdef" xMin="68" yMin="0" xMax="612" yMax="1365">
      <contour>
        <pt x="68" y="0" on="1"/>
        <pt x="68" y="1365" on="1"/>
        <pt x="612" y="1365" on="1"/>
        <pt x="612" y="0" on="1"/>
      </contour>
      <contour>
        <pt x="136" y="68" on="1"/>
        <pt x="544" y="68" on="1"/>
        <pt x="544" y="1297" on="1"/>
        <pt x="136" y="1297" on="1"/>
      </contour>
    </TTGlyph>
    <TTGlyph name="A" xMin="2" yMin="0" xMax="1128" yMax="1515">
      <contour>
        <pt x="432" y="640" on="1"/>
        <pt x="715" y="640" on="1"/>
        <pt x="574" y="1129" on="1"/>
      </contour>
      <contour>
        <pt x="2" y="0" on="1"/>
        <pt x="434" y="1515" on="1"/>
        <pt x="696" y="1515" on="1"/>
        <pt x="1128" y="0" on="1"/>
        <pt x="897" y="0" on="1"/>
        <pt x="772" y="439" on="1"/>
        <pt x="375" y="439" on="1"/>
        <pt x="250" y="0" on="1"/>
      </contour>
    </TTGlyph>
    <TTGlyph name="AE" xMin="2" yMin="0" xMax="1592" yMax="1515">
      <contour>
        <pt x="687" y="640" on="1"/>
        <pt x="687" y="1314" on="1"/>
        <pt x="630" y="1314" on="1"/>
        <pt x="437" y="640" on="1"/>
      </contour>
      <contour>
        <pt x="687" y="439" on="1"/>
        <pt x="380" y="439" on="1"/>
        <pt x="255" y="0" on="1"/>
        <pt x="2" y="0" on="1"/>
        <pt x="434" y="1515" on="1"/>
        <pt x="1554" y="1515" on="1"/>
        <pt x="1554" y="1314" on="1"/>
        <pt x="926" y="1314" on="1"/>
        <pt x="926" y="895" on="1"/>
        <pt x="1363" y="895" on="1"/>
        <pt x="1363" y="693" on="1"/>
        <pt x="926" y="693" on="1"/>
        <pt x="926" y="215" on="1"/>
        <pt x="1592" y="215" on="1"/>
        <pt x="1592" y="0" on="1"/>
        <pt x="687" y="0" on="1"/>
      </contour>
    </TTGlyph>
    <TTGlyph name="AEacute" xMin="2" yMin="0" xMax="1592" yMax="2078">
      <component glyphName="acute" x="788" y="559" flags="0x4"/>
      <component glyphName="AE" x="0" y="0" flags="0x4"/>
    </TTGlyph>
    <TTGlyph name="AEmacron" xMin="2" yMin="0" xMax="1592" yMax="1775">
      <component glyphName="macron" x="622" y="423" flags="0x4"/>
      <component glyphName="AE" x="0" y="0" flags="0x4"/>
    </TTGlyph>
    <TTGlyph name="Aacute" xMin="2" yMin="0" xMax="1128" yMax="2089">
      <component glyphName="acute" x="377" y="570" flags="0x4"/>
      <component glyphName="A" x="0" y="0" flags="0x4"/>
    </TTGlyph>
    <TTGlyph name="Abreve" xMin="2" yMin="0" xMax="1128" yMax="1890">
      <component glyphName="breve" x="300" y="539" flags="0x4"/>
      <component glyphName="A" x="0" y="0" flags="0x4"/>
    </TTGlyph>
    <TTGlyph name="Abreveacute" xMin="2" yMin="0" xMax="1128" yMax="2375">
      <component glyphName="acute" x="377" y="856" flags="0x4"/>
      <component glyphName="breve" x="300" y="539" flags="0x4"/>
      <component glyphName="A" x="0" y="0" flags="0x4"/>
    </TTGlyph>
    <TTGlyph name="Abrevedotbelow" xMin="2" yMin="-272" xMax="1128" yMax="1890">
      <component glyphName="breve" x="300" y="539" flags="0x4"/>
      <component glyphName="dotaccent" x="565" y="-394" flags="0x4"/>
      <component glyphName="A" x="0" y="0" flags="0x4"/>
    </TTGlyph>
    <TTGlyph name="Abrevegrave" xMin="2" yMin="0" xMax="1128" yMax="2374">
      <component glyphName="grave" x="70" y="856" flags="0x4"/>
      <component glyphName="breve" x="300" y="539" flags="0x4"/>
      <component glyphName="A" x="0" y="0" flags="0x4"/>
    </TTGlyph>
    <TTGlyph name="Abrevetilde" xMin="2" yMin="0" xMax="1128" yMax="2214">
      <component glyphName="asciitilde" x="136" y="836" flags="0x4"/>
      <component glyphName="breve" x="300" y="539" flags="0x4"/>
      <component glyphName="A" x="0" y="0" flags="0x4"/>
    </TTGlyph>
    <TTGlyph name="Acaron" xMin="2" yMin="0" xMax="1128" yMax="1997">
      <component glyphName="caron" x="253" y="522" flags="0x4"/>
      <component glyphName="A" x="0" y="0" flags="0x4"/>
    </TTGlyph>
    <TTGlyph name="Acircumflex" xMin="2" yMin="0" xMax="1128" yMax="2008">
      <component glyphName="asciicircum" x="254" y="562" flags="0x4"/>
      <component glyphName="A" x="0" y="0" flags="0x4"/>
    </TTGlyph>
    <TTGlyph name="Acircumflexacute" xMin="2" yMin="0" xMax="1128" yMax="2487">
      <component glyphName="acute" x="377" y="968" flags="0x4"/>
      <component glyphName="asciicircum" x="254" y="562" flags="0x4"/>
      <component glyphName="A" x="0" y="0" flags="0x4"/>
    </TTGlyph>
    <TTGlyph name="Acircumflexdotbelow" xMin="2" yMin="-272" xMax="1128" yMax="1968">
      <component glyphName="asciicircum" x="253" y="522" flags="0x4"/>
      <component glyphName="dotaccent" x="565" y="-394" flags="0x4"/>
      <component glyphName="A" x="0" y="0" flags="0x4"/>
    </TTGlyph>
    <TTGlyph name="Acircumflexgrave" xMin="2" yMin="0" xMax="1128" yMax="2486">
      <component glyphName="grave" x="70" y="968" flags="0x4"/>
      <component glyphName="asciicircum" x="254" y="562" flags="0x4"/>
      <component glyphName="A" x="0" y="0" flags="0x4"/>
    </TTGlyph>
    <TTGlyph name="Acircumflextilde" xMin="2" yMin="0" xMax="1128" yMax="2326">
      <component glyphName="asciitilde" x="136" y="948" flags="0x4"/>
      <component glyphName="asciicircum" x="254" y="562" flags="0x4"/>
      <component glyphName="A" x="0" y="0" flags="0x4"/>
    </TTGlyph>
    <TTGlyph name="Adblgrave" xMin="2" yMin="0" xMax="1128" yMax="2077">
      <component glyphName="grave" x="422" y="559" flags="0x4"/>
      <component glyphName="grave" x="69" y="559" flags="0x4"/>
      <component glyphName="A" x="0" y="0" flags="0x4"/>
    </TTGlyph>
    <TTGlyph name="Adieresis" xMin="2" yMin="0" xMax="1128" yMax="1908">
      <component glyphName="dieresis" x="239" y="462" flags="0x4"/>
      <component glyphName="A" x="0" y="0" flags="0x4"/>
    </TTGlyph>
    <TTGlyph name="Adieresismacron" xMin="2" yMin="0" xMax="1128" yMax="2179">
      <component glyphName="macron" x="171" y="827" flags="0x4"/>
      <component glyphName="dieresis" x="239" y="462" flags="0x4"/>
      <component glyphName="A" x="0" y="0" flags="0x4"/>
    </TTGlyph>
    <TTGlyph name="Adotaccent" xMin="2" yMin="0" xMax="1128" yMax="1897">
      <component glyphName="dotaccent" x="565" y="1532" flags="0x4"/>
      <component glyphName="A" x="0" y="0" flags="0x4"/>
    </TTGlyph>
    <TTGlyph name="Adotbelow" xMin="2" yMin="-272" xMax="1128" yMax="1515">
      <component glyphName="dotaccent" x="565" y="-394" flags="0x4"/>
      <component glyphName="A" x="0" y="0" flags="0x4"/>
    </TTGlyph>
    <TTGlyph name="Adotmacron" xMin="2" yMin="0" xMax="1128" yMax="2168">
      <component glyphName="macron" x="173" y="816" flags="0x4"/>
      <component glyphName="dotaccent" x="565" y="1532" flags="0x4"/>
      <component glyphName="A" x="0" y="0" flags="0x4"/>
    </TTGlyph>
    <TTGlyph name="Agrave" xMin="2" yMin="0" xMax="1128" yMax="2089">
      <component glyphName="grave" x="84" y="571" flags="0x4"/>
      <component glyphName="A" x="0" y="0" flags="0x4"/>
    </TTGlyph>
    <TTGlyph name="Ainvertedbreve" xMin="2" yMin="0" xMax="1128" yMax="1890">
      <component glyphName="breveinvertedcomb" x="300" y="539" flags="0x4"/>
      <component glyphName="A" x="0" y="0" flags="0x4"/>
    </TTGlyph>
    <TTGlyph name="Amacron" xMin="2" yMin="0" xMax="1128" yMax="1775">
      <component glyphName="macron" x="212" y="423" flags="0x4"/>
      <component glyphName="A" x="0" y="0" flags="0x4"/>
    </TTGlyph>
    <TTGlyph name="Aogonek" xMin="2" yMin="-353" xMax="1158" yMax="1515">
      <contour>
        <pt x="1033" y="-150" on="1"/>
        <pt x="1033" y="-196" on="0"/>
        <pt x="1158" y="-196" on="1"/>
        <pt x="1158" y="-348" on="1"/>
        <pt x="1052" y="-353" on="0"/>
        <pt x="966" y="-327" on="0"/>
        <pt x="921" y="-306" on="0"/>
        <pt x="907" y="-293" on="1"/>
        <pt x="854" y="-242" on="0"/>
        <pt x="886" y="-136" on="1"/>
        <pt x="909" y="-62" on="0"/>
        <pt x="970" y="-1" on="1"/>
        <pt x="1089" y="-1" on="1"/>
        <pt x="1033" y="-69" on="0"/>
      </contour>
      <contour>
        <pt x="2" y="0" on="1"/>
        <pt x="434" y="1515" on="1"/>
        <pt x="696" y="1515" on="1"/>
        <pt x="1128" y="0" on="1"/>
        <pt x="897" y="0" on="1"/>
        <pt x="772" y="439" on="1"/>
        <pt x="375" y="439" on="1"/>
        <pt x="250" y="0" on="1"/>
      </contour>
      <contour>
        <pt x="432" y="640" on="1"/>
        <pt x="715" y="640" on="1"/>
        <pt x="574" y="1129" on="1"/>
      </contour>
    </TTGlyph>
    <TTGlyph name="Aring" xMin="2" yMin="0" xMax="1128" yMax="2033">
      <contour>
        <pt x="738" y="1543" on="1"/>
        <pt x="719" y="1524" on="0"/>
        <pt x="698" y="1509" on="1"/>
        <pt x="1128" y="0" on="1"/>
        <pt x="897" y="0" on="1"/>
        <pt x="772" y="439" on="1"/>
        <pt x="375" y="439" on="1"/>
        <pt x="250" y="0" on="1"/>
        <pt x="2" y="0" on="1"/>
        <pt x="424" y="1481" on="1"/>
        <pt x="374" y="1502" on="0"/>
        <pt x="333" y="1543" on="1"/>
        <pt x="249" y="1628" on="0"/>
        <pt x="248" y="1864" on="0"/>
        <pt x="417" y="2033" on="0"/>
        <pt x="654" y="2033" on="0"/>
        <pt x="822" y="1864" on="0"/>
        <pt x="822" y="1628" on="0"/>
      </contour>
      <contour>
        <pt x="438" y="1843" on="1"/>
        <pt x="398" y="1803" on="0"/>
        <pt x="398" y="1689" on="0"/>
        <pt x="478" y="1609" on="0"/>
        <pt x="592" y="1609" on="0"/>
        <pt x="672" y="1689" on="0"/>
        <pt x="672" y="1803" on="0"/>
        <pt x="592" y="1883" on="0"/>
        <pt x="478" y="1883" on="0"/>
      </contour>
      <contour>
        <pt x="432" y="640" on="1"/>
        <pt x="715" y="640" on="1"/>
        <pt x="574" y="1129" on="1"/>
      </contour>
    </TTGlyph>
    <TTGlyph name="Aringacute" xMin="2" yMin="0" xMax="1128" yMax="2574">
      <component glyphName="acute" x="299" y="1055" flags="0x4"/>
      <component glyphName="Aring" x="0" y="0" flags="0x4"/>
    </TTGlyph>
    <TTGlyph name="Aringbelow" xMin="2" yMin="-665" xMax="1128" yMax="1515">
      <component glyphName="ring" x="563" y="-761" flags="0x4"/>
      <component glyphName="A" x="0" y="0" flags="0x4"/>
    </TTGlyph>
    <TTGlyph name="Atilde" xMin="2" yMin="0" xMax="1128" yMax="1931">
      <component glyphName="asciitilde" x="135" y="553" flags="0x4"/>
      <component glyphName="A" x="0" y="0" flags="0x4"/>
    </TTGlyph>
    <TTGlyph name="B" xMin="123" yMin="0" xMax="1092" yMax="1515">
      <contour>
        <pt x="362" y="888" on="1"/>
        <pt x="608" y="888" on="1"/>
        <pt x="709" y="888" on="0"/>
        <pt x="783" y="966" on="1"/>
        <pt x="841" y="1026" on="0"/>
        <pt x="841" y="1125" on="1"/>
        <pt x="841" y="1314" on="0"/>
        <pt x="608" y="1314" on="1"/>
        <pt x="362" y="1314" on="1"/>
      </contour>
      <contour>
        <pt x="362" y="201" on="1"/>
        <pt x="618" y="201" on="1"/>
        <pt x="758" y="201" on="0"/>
        <pt x="816" y="267" on="1"/>
        <pt x="865" y="322" on="0"/>
        <pt x="865" y="430" on="1"/>
        <pt x="865" y="519" on="0"/>
        <pt x="798" y="598" on="1"/>
        <pt x="727" y="682" on="0"/>
        <pt x="618" y="682" on="1"/>
        <pt x="362" y="682" on="1"/>
      </contour>
      <contour>
        <pt x="123" y="0" on="1"/>
        <pt x="123" y="1515" on="1"/>
        <pt x="610" y="1515" on="1"/>
        <pt x="824" y="1515" on="0"/>
        <pt x="943" y="1410" on="1"/>
        <pt x="1058" y="1309" on="0"/>
        <pt x="1058" y="1153" on="1"/>
        <pt x="1058" y="896" on="0"/>
        <pt x="872" y="825" on="1"/>
        <pt x="840" y="812" on="0"/>
        <pt x="797" y="802" on="1"/>
        <pt x="923" y="778" on="0"/>
        <pt x="1005" y="681" on="1"/>
        <pt x="1092" y="578" on="0"/>
        <pt x="1092" y="411" on="1"/>
        <pt x="1092" y="173" on="0"/>
        <pt x="942" y="74" on="1"/>
        <pt x="827" y="0" on="0"/>
        <pt x="618" y="0" on="1"/>
      </contour>
    </TTGlyph>
    <TTGlyph name="Bdotaccent" xMin="123" yMin="0" xMax="1092" yMax="1897">
      <component glyphName="dotaccent" x="529" y="1532" flags="0x4"/>
      <component glyphName="B" x="0" y="0" flags="0x4"/>
    </TTGlyph>
    <TTGlyph name="Bdotbelow" xMin="123" yMin="-272" xMax="1092" yMax="1515">
      <component glyphName="dotaccent" x="505" y="-394" flags="0x4"/>
      <component glyphName="B" x="0" y="0" flags="0x4"/>
    </TTGlyph>
    <TTGlyph name="Blinebelow" xMin="123" yMin="-242" xMax="1092" yMax="1515">
      <component glyphName="macron" x="158" y="-1445" flags="0x4"/>
      <component glyphName="B" x="0" y="0" flags="0x4"/>
    </TTGlyph>
    <TTGlyph name="C" xMin="63" yMin="-26" xMax="1143" yMax="1543">
      <contour>
        <pt x="79" y="570" on="1"/>
        <pt x="63" y="664" on="0"/>
        <pt x="63" y="856" on="0"/>
        <pt x="93" y="1042" on="0"/>
        <pt x="152" y="1219" on="0"/>
        <pt x="247" y="1368" on="0"/>
        <pt x="308" y="1424" on="1"/>
        <pt x="438" y="1543" on="0"/>
        <pt x="631" y="1543" on="1"/>
        <pt x="876" y="1543" on="0"/>
        <pt x="1018" y="1298" on="1"/>
        <pt x="1087" y="1179" on="0"/>
        <pt x="1111" y="1053" on="1"/>
        <pt x="1111" y="1052" on="1"/>
        <pt x="903" y="996" on="1"/>
        <pt x="887" y="1103" on="0"/>
        <pt x="843" y="1202" on="0"/>
        <pt x="799" y="1269" on="0"/>
        <pt x="773" y="1291" on="1"/>
        <pt x="711" y="1342" on="0"/>
        <pt x="554" y="1342" on="0"/>
        <pt x="442" y="1271" on="0"/>
        <pt x="370" y="1156" on="0"/>
        <pt x="346" y="1079" on="1"/>
        <pt x="302" y="937" on="0"/>
        <pt x="302" y="759" on="1"/>
        <pt x="302" y="287" on="0"/>
        <pt x="526" y="195" on="1"/>
        <pt x="574" y="175" on="0"/>
        <pt x="682" y="175" on="0"/>
        <pt x="767" y="203" on="0"/>
        <pt x="825" y="248" on="0"/>
        <pt x="870" y="310" on="0"/>
        <pt x="897" y="373" on="0"/>
        <pt x="905" y="406" on="1"/>
        <pt x="920" y="464" on="0"/>
        <pt x="920" y="514" on="1"/>
        <pt x="1143" y="483" on="1"/>
        <pt x="1098" y="291" on="0"/>
        <pt x="986" y="150" on="1"/>
        <pt x="844" y="-26" on="0"/>
        <pt x="629" y="-26" on="1"/>
        <pt x="365" y="-26" on="0"/>
        <pt x="204" y="225" on="1"/>
        <pt x="113" y="366" on="0"/>
      </contour>
    </TTGlyph>
    <TTGlyph name="Cacute" xMin="64" yMin="-26" xMax="1144" yMax="2031">
      <component glyphName="acute" x="489" y="512" flags="0x4"/>
      <component glyphName="C" x="1" y="0" flags="0x4"/>
    </TTGlyph>
    <TTGlyph name="Ccaron" xMin="64" yMin="-26" xMax="1144" yMax="1997">
      <component glyphName="caron" x="313" y="522" flags="0x4"/>
      <component glyphName="C" x="1" y="0" flags="0x4"/>
    </TTGlyph>
    <TTGlyph name="Ccedilla" xMin="63" yMin="-367" xMax="1143" yMax="1543">
      <contour>
        <pt x="79" y="570" on="1"/>
        <pt x="63" y="664" on="0"/>
        <pt x="63" y="856" on="0"/>
        <pt x="93" y="1042" on="0"/>
        <pt x="152" y="1219" on="0"/>
        <pt x="247" y="1368" on="0"/>
        <pt x="308" y="1424" on="1"/>
        <pt x="438" y="1543" on="0"/>
        <pt x="631" y="1543" on="1"/>
        <pt x="876" y="1543" on="0"/>
        <pt x="1018" y="1298" on="1"/>
        <pt x="1087" y="1179" on="0"/>
        <pt x="1111" y="1053" on="1"/>
        <pt x="1111" y="1052" on="1"/>
        <pt x="903" y="996" on="1"/>
        <pt x="887" y="1103" on="0"/>
        <pt x="843" y="1202" on="0"/>
        <pt x="799" y="1269" on="0"/>
        <pt x="773" y="1291" on="1"/>
        <pt x="711" y="1342" on="0"/>
        <pt x="554" y="1342" on="0"/>
        <pt x="442" y="1271" on="0"/>
        <pt x="370" y="1156" on="0"/>
        <pt x="346" y="1079" on="1"/>
        <pt x="302" y="937" on="0"/>
        <pt x="302" y="759" on="1"/>
        <pt x="302" y="287" on="0"/>
        <pt x="526" y="195" on="1"/>
        <pt x="574" y="175" on="0"/>
        <pt x="682" y="175" on="0"/>
        <pt x="767" y="203" on="0"/>
        <pt x="825" y="248" on="0"/>
        <pt x="870" y="310" on="0"/>
        <pt x="897" y="373" on="0"/>
        <pt x="905" y="406" on="1"/>
        <pt x="920" y="464" on="0"/>
        <pt x="920" y="514" on="1"/>
        <pt x="1143" y="483" on="1"/>
        <pt x="1098" y="291" on="0"/>
        <pt x="986" y="150" on="1"/>
        <pt x="867" y="2" on="0"/>
        <pt x="696" y="-21" on="1"/>
        <pt x="785" y="-115" on="0"/>
        <pt x="785" y="-229" on="1"/>
        <pt x="785" y="-313" on="0"/>
        <pt x="673" y="-347" on="1"/>
        <pt x="608" y="-367" on="0"/>
        <pt x="501" y="-361" on="1"/>
        <pt x="501" y="-209" on="1"/>
        <pt x="626" y="-209" on="0"/>
        <pt x="626" y="-163" on="1"/>
        <pt x="626" y="-89" on="0"/>
        <pt x="577" y="-23" on="1"/>
        <pt x="349" y="-1" on="0"/>
        <pt x="204" y="225" on="1"/>
        <pt x="113" y="366" on="0"/>
      </contour>
    </TTGlyph>
    <TTGlyph name="Ccedillaacute" xMin="64" yMin="-367" xMax="1144" yMax="2078">
      <component glyphName="acute" x="437" y="559" flags="0x4"/>
      <component glyphName="Ccedilla" x="1" y="0" flags="0x4"/>
    </TTGlyph>
    <TTGlyph name="Ccircumflex" xMin="64" yMin="-26" xMax="1144" yMax="1968">
      <component glyphName="asciicircum" x="313" y="522" flags="0x4"/>
      <component glyphName="C" x="1" y="0" flags="0x4"/>
    </TTGlyph>
    <TTGlyph name="Cdotaccent" xMin="64" yMin="-26" xMax="1144" yMax="1897">
      <component glyphName="dotaccent" x="625" y="1532" flags="0x4"/>
      <component glyphName="C" x="1" y="0" flags="0x4"/>
    </TTGlyph>
    <TTGlyph name="D" xMin="123" yMin="0" xMax="1178" yMax="1515">
      <contour>
        <pt x="362" y="201" on="1"/>
        <pt x="506" y="201" on="1"/>
        <pt x="715" y="201" on="0"/>
        <pt x="828" y="352" on="1"/>
        <pt x="939" y="502" on="0"/>
        <pt x="939" y="747" on="1"/>
        <pt x="939" y="1214" on="0"/>
        <pt x="640" y="1297" on="1"/>
        <pt x="579" y="1314" on="0"/>
        <pt x="506" y="1314" on="1"/>
        <pt x="362" y="1314" on="1"/>
      </contour>
      <contour>
        <pt x="123" y="0" on="1"/>
        <pt x="123" y="1515" on="1"/>
        <pt x="480" y="1515" on="1"/>
        <pt x="1028" y="1515" on="0"/>
        <pt x="1142" y="1074" on="1"/>
        <pt x="1178" y="933" on="0"/>
        <pt x="1178" y="621" on="0"/>
        <pt x="1135" y="407" on="0"/>
        <pt x="1031" y="215" on="0"/>
        <pt x="953" y="147" on="1"/>
        <pt x="782" y="0" on="0"/>
        <pt x="480" y="0" on="1"/>
      </contour>
    </TTGlyph>
    <TTGlyph name="DZ" xMin="135" yMin="0" xMax="2339" yMax="1515">
      <component glyphName="Z" x="1226" y="0" flags="0x4"/>
      <component glyphName="D" x="12" y="0" flags="0x4"/>
    </TTGlyph>
    <TTGlyph name="DZcaron" xMin="135" yMin="0" xMax="2339" yMax="1997">
      <component glyphName="caron" x="1511" y="522" flags="0x4"/>
      <component glyphName="Z" x="1226" y="0" flags="0x4"/>
      <component glyphName="D" x="12" y="0" flags="0x4"/>
    </TTGlyph>
    <TTGlyph name="Dbar" xMin="9" yMin="0" xMax="1167" yMax="1515">
      <component glyphName="Eth" x="0" y="0" flags="0x204"/>
    </TTGlyph>
    <TTGlyph name="Dcaron" xMin="123" yMin="0" xMax="1178" yMax="1997">
      <component glyphName="caron" x="231" y="522" flags="0x4"/>
      <component glyphName="D" x="0" y="0" flags="0x4"/>
    </TTGlyph>
    <TTGlyph name="Dcedilla" xMin="123" yMin="-340" xMax="1178" yMax="1515">
      <component glyphName="cedilla" x="168" y="12" flags="0x4"/>
      <component glyphName="D" x="0" y="0" flags="0x4"/>
    </TTGlyph>
    <TTGlyph name="Dcircumflexbelow" xMin="123" yMin="-438" xMax="1178" yMax="1515">
      <component glyphName="asciicircum" x="231" y="-1541" flags="0x4"/>
      <component glyphName="D" x="0" y="0" flags="0x4"/>
    </TTGlyph>
    <TTGlyph name="Dcroat" xMin="10" yMin="0" xMax="1168" yMax="1515">
      <component glyphName="Eth" x="1" y="0" flags="0x4"/>
    </TTGlyph>
    <TTGlyph name="Ddotaccent" xMin="123" yMin="0" xMax="1178" yMax="1897">
      <component glyphName="dotaccent" x="549" y="1532" flags="0x4"/>
      <component glyphName="D" x="0" y="0" flags="0x4"/>
    </TTGlyph>
    <TTGlyph name="Ddotbelow" xMin="123" yMin="-272" xMax="1178" yMax="1515">
      <component glyphName="dotaccent" x="537" y="-394" flags="0x4"/>
      <component glyphName="D" x="0" y="0" flags="0x4"/>
    </TTGlyph>
    <TTGlyph name="Dlinebelow" xMin="123" yMin="-242" xMax="1178" yMax="1515">
      <component glyphName="macron" x="225" y="-1445" flags="0x4"/>
      <component glyphName="D" x="0" y="0" flags="0x4"/>
    </TTGlyph>
    <TTGlyph name="Dz" xMin="135" yMin="0" xMax="2016" yMax="1515">
      <component glyphName="z" x="1226" y="0" flags="0x4"/>
      <component glyphName="D" x="12" y="0" flags="0x4"/>
    </TTGlyph>
    <TTGlyph name="Dzcaron" xMin="135" yMin="0" xMax="2016" yMax="1531">
      <component glyphName="caron" x="1328" y="56" flags="0x4"/>
      <component glyphName="z" x="1226" y="0" flags="0x4"/>
      <component glyphName="D" x="12" y="0" flags="0x4"/>
    </TTGlyph>
    <TTGlyph name="E" xMin="123" yMin="0" xMax="1028" yMax="1515">
      <contour>
        <pt x="123" y="0" on="1"/>
        <pt x="123" y="1515" on="1"/>
        <pt x="990" y="1515" on="1"/>
        <pt x="990" y="1314" on="1"/>
        <pt x="362" y="1314" on="1"/>
        <pt x="362" y="895" on="1"/>
        <pt x="799" y="895" on="1"/>
        <pt x="799" y="693" on="1"/>
        <pt x="362" y="693" on="1"/>
        <pt x="362" y="215" on="1"/>
        <pt x="1028" y="215" on="1"/>
        <pt x="1028" y="0" on="1"/>
      </contour>
    </TTGlyph>
    <TTGlyph name="Eacute" xMin="123" yMin="0" xMax="1028" yMax="2089">
      <component glyphName="acute" x="369" y="570" flags="0x4"/>
      <component glyphName="E" x="0" y="0" flags="0x4"/>
    </TTGlyph>
    <TTGlyph name="Ebreve" xMin="123" yMin="0" xMax="1028" yMax="1890">
      <component glyphName="breve" x="291" y="539" flags="0x4"/>
      <component glyphName="E" x="0" y="0" flags="0x4"/>
    </TTGlyph>
    <TTGlyph name="Ecaron" xMin="123" yMin="0" xMax="1028" yMax="1997">
      <component glyphName="caron" x="245" y="522" flags="0x4"/>
      <component glyphName="E" x="0" y="0" flags="0x4"/>
    </TTGlyph>
    <TTGlyph name="Ecedillabreve" xMin="135" yMin="-313" xMax="994" yMax="1901">
      <contour>
        <pt x="446" y="-218" on="1"/>
        <pt x="535" y="-218" on="0"/>
        <pt x="594" y="-186" on="0"/>
        <pt x="594" y="-171" on="1"/>
        <pt x="594" y="-96" on="0"/>
        <pt x="516" y="0" on="1"/>
        <pt x="135" y="0" on="1"/>
        <pt x="135" y="1515" on="1"/>
        <pt x="956" y="1515" on="1"/>
        <pt x="956" y="1391" on="1"/>
        <pt x="283" y="1391" on="1"/>
        <pt x="283" y="858" on="1"/>
        <pt x="766" y="858" on="1"/>
        <pt x="766" y="734" on="1"/>
        <pt x="283" y="734" on="1"/>
        <pt x="283" y="133" on="1"/>
        <pt x="994" y="133" on="1"/>
        <pt x="994" y="0" on="1"/>
        <pt x="614" y="0" on="1"/>
        <pt x="686" y="-101" on="0"/>
        <pt x="686" y="-198" on="1"/>
        <pt x="686" y="-241" on="0"/>
        <pt x="646" y="-276" on="0"/>
        <pt x="616" y="-294" on="0"/>
        <pt x="575" y="-304" on="0"/>
        <pt x="542" y="-310" on="0"/>
        <pt x="500" y="-312" on="0"/>
        <pt x="477" y="-313" on="0"/>
        <pt x="447" y="-312" on="0"/>
        <pt x="446" y="-312" on="1"/>
      </contour>
      <contour>
        <pt x="312" y="1843" on="1"/>
        <pt x="414" y="1901" on="1"/>
        <pt x="434" y="1857" on="0"/>
        <pt x="506" y="1794" on="0"/>
        <pt x="585" y="1794" on="0"/>
        <pt x="657" y="1857" on="0"/>
        <pt x="676" y="1901" on="1"/>
        <pt x="780" y="1843" on="1"/>
        <pt x="753" y="1760" on="0"/>
        <pt x="617" y="1665" on="0"/>
        <pt x="474" y="1665" on="0"/>
        <pt x="338" y="1760" on="0"/>
      </contour>
    </TTGlyph>
    <TTGlyph name="Ecircumflex" xMin="123" yMin="0" xMax="1028" yMax="2008">
      <component glyphName="asciicircum" x="245" y="562" flags="0x4"/>
      <component glyphName="E" x="0" y="0" flags="0x4"/>
    </TTGlyph>
    <TTGlyph name="Ecircumflexacute" xMin="123" yMin="0" xMax="1028" yMax="2487">
      <component glyphName="acute" x="369" y="968" flags="0x4"/>
      <component glyphName="asciicircum" x="245" y="562" flags="0x4"/>
      <component glyphName="E" x="0" y="0" flags="0x4"/>
    </TTGlyph>
    <TTGlyph name="Ecircumflexbelow" xMin="123" yMin="-438" xMax="1028" yMax="1515">
      <component glyphName="asciicircum" x="263" y="-1541" flags="0x4"/>
      <component glyphName="E" x="0" y="0" flags="0x4"/>
    </TTGlyph>
    <TTGlyph name="Ecircumflexdotbelow" xMin="123" yMin="-272" xMax="1028" yMax="1968">
      <component glyphName="asciicircum" x="245" y="522" flags="0x4"/>
      <component glyphName="dotaccent" x="575" y="-394" flags="0x4"/>
      <component glyphName="E" x="0" y="0" flags="0x4"/>
    </TTGlyph>
    <TTGlyph name="Ecircumflexgrave" xMin="123" yMin="0" xMax="1028" yMax="2486">
      <component glyphName="grave" x="61" y="968" flags="0x4"/>
      <component glyphName="asciicircum" x="245" y="562" flags="0x4"/>
      <component glyphName="E" x="0" y="0" flags="0x4"/>
    </TTGlyph>
    <TTGlyph name="Ecircumflextilde" xMin="123" yMin="0" xMax="1028" yMax="2326">
      <component glyphName="asciitilde" x="128" y="948" flags="0x4"/>
      <component glyphName="asciicircum" x="245" y="562" flags="0x4"/>
      <component glyphName="E" x="0" y="0" flags="0x4"/>
    </TTGlyph>
    <TTGlyph name="Edblgrave" xMin="123" yMin="0" xMax="1028" yMax="2077">
      <component glyphName="grave" x="425" y="559" flags="0x4"/>
      <component glyphName="grave" x="72" y="559" flags="0x4"/>
      <component glyphName="E" x="0" y="0" flags="0x4"/>
    </TTGlyph>
    <TTGlyph name="Edieresis" xMin="123" yMin="0" xMax="1028" yMax="1908">
      <component glyphName="dieresis" x="231" y="462" flags="0x4"/>
      <component glyphName="E" x="0" y="0" flags="0x4"/>
    </TTGlyph>
    <TTGlyph name="Edotaccent" xMin="123" yMin="0" xMax="1028" yMax="1897">
      <component glyphName="dotaccent" x="557" y="1532" flags="0x4"/>
      <component glyphName="E" x="0" y="0" flags="0x4"/>
    </TTGlyph>
    <TTGlyph name="Edotbelow" xMin="123" yMin="-272" xMax="1028" yMax="1515">
      <component glyphName="dotaccent" x="575" y="-394" flags="0x4"/>
      <component glyphName="E" x="0" y="0" flags="0x4"/>
    </TTGlyph>
    <TTGlyph name="Egrave" xMin="123" yMin="0" xMax="1028" yMax="2089">
      <component glyphName="grave" x="76" y="571" flags="0x4"/>
      <component glyphName="E" x="0" y="0" flags="0x4"/>
    </TTGlyph>
    <TTGlyph name="Einvertedbreve" xMin="123" yMin="0" xMax="1028" yMax="1890">
      <component glyphName="breveinvertedcomb" x="291" y="539" flags="0x4"/>
      <component glyphName="E" x="0" y="0" flags="0x4"/>
    </TTGlyph>
    <TTGlyph name="Emacron" xMin="123" yMin="0" xMax="1028" yMax="1775">
      <component glyphName="macron" x="203" y="423" flags="0x4"/>
      <component glyphName="E" x="0" y="0" flags="0x4"/>
    </TTGlyph>
    <TTGlyph name="Emacronacute" xMin="123" yMin="0" xMax="1028" yMax="2292">
      <component glyphName="acute" x="369" y="773" flags="0x4"/>
      <component glyphName="macron" x="203" y="423" flags="0x4"/>
      <component glyphName="E" x="0" y="0" flags="0x4"/>
    </TTGlyph>
    <TTGlyph name="Emacrongrave" xMin="123" yMin="0" xMax="1028" yMax="2291">
      <component glyphName="grave" x="61" y="773" flags="0x4"/>
      <component glyphName="macron" x="203" y="423" flags="0x4"/>
      <component glyphName="E" x="0" y="0" flags="0x4"/>
    </TTGlyph>
    <TTGlyph name="Eogonek" xMin="123" yMin="-342" xMax="1042" yMax="1515">
      <contour>
        <pt x="917" y="-139" on="1"/>
        <pt x="917" y="-185" on="0"/>
        <pt x="1042" y="-185" on="1"/>
        <pt x="1042" y="-337" on="1"/>
        <pt x="936" y="-342" on="0"/>
        <pt x="850" y="-316" on="0"/>
        <pt x="805" y="-296" on="0"/>
        <pt x="791" y="-282" on="1"/>
        <pt x="737" y="-231" on="0"/>
        <pt x="770" y="-126" on="1"/>
        <pt x="791" y="-57" on="0"/>
        <pt x="844" y="0" on="1"/>
        <pt x="123" y="0" on="1"/>
        <pt x="123" y="1515" on="1"/>
        <pt x="990" y="1515" on="1"/>
        <pt x="990" y="1314" on="1"/>
        <pt x="362" y="1314" on="1"/>
        <pt x="362" y="895" on="1"/>
        <pt x="799" y="895" on="1"/>
        <pt x="799" y="693" on="1"/>
        <pt x="362" y="693" on="1"/>
        <pt x="362" y="215" on="1"/>
        <pt x="1028" y="215" on="1"/>
        <pt x="1028" y="0" on="1"/>
        <pt x="965" y="0" on="1"/>
        <pt x="917" y="-65" on="0"/>
      </contour>
    </TTGlyph>
    <TTGlyph name="Eth" xMin="9" yMin="0" xMax="1167" yMax="1515">
      <contour>
        <pt x="351" y="201" on="1"/>
        <pt x="495" y="201" on="1"/>
        <pt x="598" y="201" on="0"/>
        <pt x="758" y="277" on="0"/>
        <pt x="849" y="391" on="0"/>
        <pt x="878" y="468" on="1"/>
        <pt x="928" y="596" on="0"/>
        <pt x="928" y="837" on="0"/>
        <pt x="905" y="992" on="0"/>
        <pt x="845" y="1143" on="0"/>
        <pt x="798" y="1196" on="1"/>
        <pt x="693" y="1314" on="0"/>
        <pt x="495" y="1314" on="1"/>
        <pt x="351" y="1314" on="1"/>
        <pt x="351" y="833" on="1"/>
        <pt x="642" y="833" on="1"/>
        <pt x="642" y="652" on="1"/>
        <pt x="351" y="652" on="1"/>
      </contour>
      <contour>
        <pt x="9" y="652" on="1"/>
        <pt x="9" y="833" on="1"/>
        <pt x="112" y="833" on="1"/>
        <pt x="112" y="1515" on="1"/>
        <pt x="469" y="1515" on="1"/>
        <pt x="1018" y="1515" on="0"/>
        <pt x="1130" y="1074" on="1"/>
        <pt x="1167" y="931" on="0"/>
        <pt x="1167" y="621" on="0"/>
        <pt x="1123" y="407" on="0"/>
        <pt x="1020" y="215" on="0"/>
        <pt x="942" y="147" on="1"/>
        <pt x="772" y="0" on="0"/>
        <pt x="469" y="0" on="1"/>
        <pt x="112" y="0" on="1"/>
        <pt x="112" y="652" on="1"/>
      </contour>
    </TTGlyph>
    <TTGlyph name="Etilde" xMin="123" yMin="0" xMax="1028" yMax="1917">
      <component glyphName="asciitilde" x="128" y="539" flags="0x4"/>
      <component glyphName="E" x="0" y="0" flags="0x4"/>
    </TTGlyph>
    <TTGlyph name="Etildebelow" xMin="123" yMin="-322" xMax="1028" yMax="1515">
      <component glyphName="asciitilde" x="146" y="-1434" flags="0x4"/>
      <component glyphName="E" x="0" y="0" flags="0x4"/>
    </TTGlyph>
    <TTGlyph name="Euro" xMin="18" yMin="-26" xMax="1211" yMax="1543">
      <contour>
        <pt x="18" y="828" on="1"/>
        <pt x="18" y="977" on="1"/>
        <pt x="151" y="977" on="1"/>
        <pt x="165" y="1055" on="0"/>
        <pt x="190" y="1130" on="1"/>
        <pt x="220" y="1219" on="0"/>
        <pt x="315" y="1368" on="0"/>
        <pt x="376" y="1424" on="1"/>
        <pt x="506" y="1543" on="0"/>
        <pt x="699" y="1543" on="1"/>
        <pt x="917" y="1543" on="0"/>
        <pt x="1052" y="1350" on="1"/>
        <pt x="1151" y="1209" on="0"/>
        <pt x="1179" y="1053" on="1"/>
        <pt x="1179" y="1052" on="1"/>
        <pt x="971" y="996" on="1"/>
        <pt x="955" y="1103" on="0"/>
        <pt x="911" y="1202" on="0"/>
        <pt x="867" y="1269" on="0"/>
        <pt x="840" y="1291" on="1"/>
        <pt x="778" y="1342" on="0"/>
        <pt x="621" y="1342" on="0"/>
        <pt x="510" y="1271" on="0"/>
        <pt x="438" y="1156" on="0"/>
        <pt x="414" y="1079" on="1"/>
        <pt x="399" y="1030" on="0"/>
        <pt x="389" y="977" on="1"/>
        <pt x="765" y="977" on="1"/>
        <pt x="765" y="828" on="1"/>
        <pt x="371" y="828" on="1"/>
        <pt x="370" y="794" on="0"/>
        <pt x="370" y="759" on="1"/>
        <pt x="370" y="715" on="0"/>
        <pt x="372" y="674" on="1"/>
        <pt x="765" y="674" on="1"/>
        <pt x="765" y="525" on="1"/>
        <pt x="387" y="525" on="1"/>
        <pt x="432" y="261" on="0"/>
        <pt x="594" y="195" on="1"/>
        <pt x="642" y="175" on="0"/>
        <pt x="750" y="175" on="0"/>
        <pt x="835" y="203" on="0"/>
        <pt x="893" y="248" on="0"/>
        <pt x="938" y="310" on="0"/>
        <pt x="965" y="373" on="0"/>
        <pt x="973" y="406" on="1"/>
        <pt x="988" y="464" on="0"/>
        <pt x="988" y="514" on="1"/>
        <pt x="1211" y="483" on="1"/>
        <pt x="1166" y="291" on="0"/>
        <pt x="1054" y="150" on="1"/>
        <pt x="912" y="-26" on="0"/>
        <pt x="697" y="-26" on="1"/>
        <pt x="433" y="-26" on="0"/>
        <pt x="271" y="225" on="1"/>
        <pt x="191" y="350" on="0"/>
        <pt x="155" y="525" on="1"/>
        <pt x="18" y="525" on="1"/>
        <pt x="18" y="674" on="1"/>
        <pt x="134" y="674" on="1"/>
        <pt x="131" y="717" on="0"/>
        <pt x="131" y="760" on="1"/>
        <pt x="131" y="794" on="0"/>
        <pt x="133" y="828" on="1"/>
      </contour>
    </TTGlyph>
    <TTGlyph name="F" xMin="123" yMin="0" xMax="990" yMax="1515">
      <contour>
        <pt x="123" y="0" on="1"/>
        <pt x="123" y="1515" on="1"/>
        <pt x="990" y="1515" on="1"/>
        <pt x="990" y="1314" on="1"/>
        <pt x="362" y="1314" on="1"/>
        <pt x="362" y="895" on="1"/>
        <pt x="799" y="895" on="1"/>
        <pt x="799" y="693" on="1"/>
        <pt x="362" y="693" on="1"/>
        <pt x="362" y="0" on="1"/>
      </contour>
    </TTGlyph>
    <TTGlyph name="Fdotaccent" xMin="123" yMin="0" xMax="990" yMax="1897">
      <component glyphName="dotaccent" x="557" y="1532" flags="0x4"/>
      <component glyphName="F" x="0" y="0" flags="0x4"/>
    </TTGlyph>
    <TTGlyph name="G" xMin="62" yMin="-26" xMax="1143" yMax="1543">
      <contour>
        <pt x="929" y="1035" on="1"/>
        <pt x="864" y="1342" on="0"/>
        <pt x="657" y="1342" on="1"/>
        <pt x="438" y="1342" on="0"/>
        <pt x="350" y="1093" on="1"/>
        <pt x="301" y="954" on="0"/>
        <pt x="301" y="767" on="1"/>
        <pt x="301" y="317" on="0"/>
        <pt x="492" y="207" on="1"/>
        <pt x="548" y="175" on="0"/>
        <pt x="674" y="175" on="0"/>
        <pt x="761" y="200" on="0"/>
        <pt x="820" y="239" on="0"/>
        <pt x="864" y="301" on="0"/>
        <pt x="888" y="363" on="0"/>
        <pt x="895" y="406" on="1"/>
        <pt x="906" y="471" on="0"/>
        <pt x="908" y="563" on="1"/>
        <pt x="617" y="563" on="1"/>
        <pt x="617" y="765" on="1"/>
        <pt x="1143" y="765" on="1"/>
        <pt x="1143" y="0" on="1"/>
        <pt x="949" y="0" on="1"/>
        <pt x="949" y="120" on="1"/>
        <pt x="885" y="42" on="0"/>
        <pt x="809" y="9" on="1"/>
        <pt x="727" y="-26" on="0"/>
        <pt x="513" y="-26" on="0"/>
        <pt x="335" y="61" on="0"/>
        <pt x="205" y="213" on="0"/>
        <pt x="157" y="314" on="1"/>
        <pt x="62" y="515" on="0"/>
        <pt x="62" y="769" on="1"/>
        <pt x="62" y="1012" on="0"/>
        <pt x="153" y="1205" on="1"/>
        <pt x="254" y="1418" on="0"/>
        <pt x="432" y="1499" on="1"/>
        <pt x="529" y="1543" on="0"/>
        <pt x="708" y="1543" on="0"/>
        <pt x="815" y="1518" on="0"/>
        <pt x="926" y="1453" on="0"/>
        <pt x="971" y="1401" on="1"/>
        <pt x="1070" y="1288" on="0"/>
        <pt x="1133" y="1072" on="1"/>
      </contour>
    </TTGlyph>
    <TTGlyph name="Gacute" xMin="63" yMin="-26" xMax="1144" yMax="2078">
      <component glyphName="acute" x="454" y="559" flags="0x4"/>
      <component glyphName="G" x="1" y="0" flags="0x4"/>
    </TTGlyph>
    <TTGlyph name="Gbreve" xMin="63" yMin="-26" xMax="1144" yMax="1890">
      <component glyphName="breve" x="377" y="539" flags="0x4"/>
      <component glyphName="G" x="1" y="0" flags="0x4"/>
    </TTGlyph>
    <TTGlyph name="Gcaron" xMin="63" yMin="-26" xMax="1144" yMax="1997">
      <component glyphName="caron" x="330" y="522" flags="0x4"/>
      <component glyphName="G" x="1" y="0" flags="0x4"/>
    </TTGlyph>
    <TTGlyph name="Gcircumflex" xMin="63" yMin="-26" xMax="1144" yMax="1968">
      <component glyphName="asciicircum" x="330" y="522" flags="0x4"/>
      <component glyphName="G" x="1" y="0" flags="0x4"/>
    </TTGlyph>
    <TTGlyph name="Gcommaaccent" xMin="63" yMin="-584" xMax="1144" yMax="1543">
      <component glyphName="comma" x="486" y="-288" flags="0x4"/>
      <component glyphName="G" x="1" y="0" flags="0x4"/>
    </TTGlyph>
    <TTGlyph name="Gdotaccent" xMin="63" yMin="-26" xMax="1144" yMax="1897">
      <component glyphName="dotaccent" x="642" y="1532" flags="0x4"/>
      <component glyphName="G" x="1" y="0" flags="0x4"/>
    </TTGlyph>
    <TTGlyph name="Gmacron" xMin="63" yMin="-26" xMax="1144" yMax="1775">
      <component glyphName="macron" x="288" y="423" flags="0x4"/>
      <component glyphName="G" x="1" y="0" flags="0x4"/>
    </TTGlyph>
    <TTGlyph name="H" xMin="123" yMin="0" xMax="1153" yMax="1515">
      <contour>
        <pt x="123" y="0" on="1"/>
        <pt x="123" y="1515" on="1"/>
        <pt x="362" y="1515" on="1"/>
        <pt x="362" y="896" on="1"/>
        <pt x="914" y="896" on="1"/>
        <pt x="914" y="1515" on="1"/>
        <pt x="1153" y="1515" on="1"/>
        <pt x="1153" y="0" on="1"/>
        <pt x="914" y="0" on="1"/>
        <pt x="914" y="695" on="1"/>
        <pt x="362" y="695" on="1"/>
        <pt x="362" y="0" on="1"/>
      </contour>
    </TTGlyph>
    <TTGlyph name="Hbrevebelow" xMin="123" yMin="-297" xMax="1153" yMax="1515">
      <component glyphName="breve" x="373" y="-1412" flags="0x4"/>
      <component glyphName="H" x="0" y="0" flags="0x4"/>
    </TTGlyph>
    <TTGlyph name="Hcaron" xMin="123" yMin="0" xMax="1153" yMax="1997">
      <component glyphName="caron" x="326" y="522" flags="0x4"/>
      <component glyphName="H" x="0" y="0" flags="0x4"/>
    </TTGlyph>
    <TTGlyph name="Hcedilla" xMin="114" yMin="-340" xMax="1153" yMax="1515">
      <component glyphName="cedilla" x="108" y="12" flags="0x4"/>
      <component glyphName="H" x="0" y="0" flags="0x4"/>
    </TTGlyph>
    <TTGlyph name="Hcircumflex" xMin="123" yMin="0" xMax="1153" yMax="1968">
      <component glyphName="asciicircum" x="326" y="522" flags="0x4"/>
      <component glyphName="H" x="0" y="0" flags="0x4"/>
    </TTGlyph>
    <TTGlyph name="Hdieresis" xMin="123" yMin="0" xMax="1153" yMax="1897">
      <component glyphName="dieresis" x="311" y="451" flags="0x4"/>
      <component glyphName="H" x="0" y="0" flags="0x4"/>
    </TTGlyph>
    <TTGlyph name="Hdotaccent" xMin="123" yMin="0" xMax="1153" yMax="1897">
      <component glyphName="dotaccent" x="638" y="1532" flags="0x4"/>
      <component glyphName="H" x="0" y="0" flags="0x4"/>
    </TTGlyph>
    <TTGlyph name="Hdotbelow" xMin="123" yMin="-272" xMax="1153" yMax="1515">
      <component glyphName="dotaccent" x="638" y="-394" flags="0x4"/>
      <component glyphName="H" x="0" y="0" flags="0x4"/>
    </TTGlyph>
    <TTGlyph name="Hpixels_perem" xMin="73" yMin="0" xMax="903" yMax="693">
      <contour>
        <pt x="874" y="363" on="1"/>
        <pt x="874" y="661" on="1"/>
        <pt x="903" y="661" on="1"/>
        <pt x="903" y="363" on="1"/>
      </contour>
      <contour>
        <pt x="874" y="31" on="1"/>
        <pt x="874" y="329" on="1"/>
        <pt x="903" y="329" on="1"/>
        <pt x="903" y="31" on="1"/>
      </contour>
      <contour>
        <pt x="566" y="664" on="1"/>
        <pt x="566" y="693" on="1"/>
        <pt x="874" y="693" on="1"/>
        <pt x="874" y="664" on="1"/>
      </contour>
      <contour>
        <pt x="566" y="332" on="1"/>
        <pt x="566" y="361" on="1"/>
        <pt x="874" y="361" on="1"/>
        <pt x="874" y="332" on="1"/>
      </contour>
      <contour>
        <pt x="566" y="0" on="1"/>
        <pt x="566" y="29" on="1"/>
        <pt x="874" y="29" on="1"/>
        <pt x="874" y="0" on="1"/>
      </contour>
      <contour>
        <pt x="537" y="363" on="1"/>
        <pt x="537" y="661" on="1"/>
        <pt x="566" y="661" on="1"/>
        <pt x="566" y="363" on="1"/>
      </contour>
      <contour>
        <pt x="537" y="31" on="1"/>
        <pt x="537" y="329" on="1"/>
        <pt x="566" y="329" on="1"/>
        <pt x="566" y="31" on="1"/>
      </contour>
      <contour>
        <pt x="411" y="363" on="1"/>
        <pt x="411" y="661" on="1"/>
        <pt x="440" y="661" on="1"/>
        <pt x="440" y="363" on="1"/>
      </contour>
      <contour>
        <pt x="411" y="31" on="1"/>
        <pt x="411" y="329" on="1"/>
        <pt x="440" y="329" on="1"/>
        <pt x="440" y="31" on="1"/>
      </contour>
      <contour>
        <pt x="102" y="664" on="1"/>
        <pt x="102" y="693" on="1"/>
        <pt x="411" y="693" on="1"/>
        <pt x="411" y="664" on="1"/>
      </contour>
      <contour>
        <pt x="102" y="332" on="1"/>
        <pt x="102" y="361" on="1"/>
        <pt x="411" y="361" on="1"/>
        <pt x="411" y="332" on="1"/>
      </contour>
      <contour>
        <pt x="102" y="0" on="1"/>
        <pt x="102" y="29" on="1"/>
        <pt x="411" y="29" on="1"/>
        <pt x="411" y="0" on="1"/>
      </contour>
      <contour>
        <pt x="73" y="363" on="1"/>
        <pt x="73" y="661" on="1"/>
        <pt x="102" y="661" on="1"/>
        <pt x="102" y="363" on="1"/>
      </contour>
      <contour>
        <pt x="73" y="31" on="1"/>
        <pt x="73" y="329" on="1"/>
        <pt x="102" y="329" on="1"/>
        <pt x="102" y="31" on="1"/>
      </contour>
    </TTGlyph>
    <TTGlyph name="I" xMin="99" yMin="0" xMax="338" yMax="1515">
      <contour>
        <pt x="99" y="0" on="1"/>
        <pt x="99" y="1515" on="1"/>
        <pt x="338" y="1515" on="1"/>
        <pt x="338" y="0" on="1"/>
      </contour>
    </TTGlyph>
    <TTGlyph name="IJ" xMin="109" yMin="-26" xMax="1213" yMax="1515">
      <component glyphName="J" x="428" y="0" flags="0x4"/>
      <component glyphName="I" x="10" y="0" flags="0x4"/>
    </TTGlyph>
    <TTGlyph name="Iacute" xMin="99" yMin="0" xMax="584" yMax="2089">
      <component glyphName="acute" x="30" y="570" flags="0x4"/>
      <component glyphName="I" x="0" y="0" flags="0x4"/>
    </TTGlyph>
    <TTGlyph name="Ibreve" xMin="-12" yMin="0" xMax="456" yMax="1890">
      <component glyphName="breve" x="-46" y="539" flags="0x4"/>
      <component glyphName="I" x="0" y="0" flags="0x4"/>
    </TTGlyph>
    <TTGlyph name="Icaron" xMin="-24" yMin="0" xMax="473" yMax="1997">
      <component glyphName="caron" x="-93" y="522" flags="0x4"/>
      <component glyphName="I" x="0" y="0" flags="0x4"/>
    </TTGlyph>
    <TTGlyph name="Icircumflex" xMin="-24" yMin="0" xMax="473" yMax="2008">
      <component glyphName="asciicircum" x="-93" y="562" flags="0x4"/>
      <component glyphName="I" x="0" y="0" flags="0x4"/>
    </TTGlyph>
    <TTGlyph name="Idblgrave" xMin="-103" yMin="0" xMax="693" yMax="2077">
      <component glyphName="grave" x="96" y="559" flags="0x4"/>
      <component glyphName="grave" x="-257" y="559" flags="0x4"/>
      <component glyphName="I" x="0" y="0" flags="0x4"/>
    </TTGlyph>
    <TTGlyph name="Idieresis" xMin="-92" yMin="0" xMax="530" yMax="1908">
      <component glyphName="dieresis" x="-108" y="462" flags="0x4"/>
      <component glyphName="I" x="0" y="0" flags="0x4"/>
    </TTGlyph>
    <TTGlyph name="Idieresisacute" xMin="-92" yMin="0" xMax="585" yMax="2350">
      <component glyphName="acute" x="31" y="831" flags="0x4"/>
      <component glyphName="dieresis" x="-108" y="462" flags="0x4"/>
      <component glyphName="I" x="0" y="0" flags="0x4"/>
    </TTGlyph>
    <TTGlyph name="Idotaccent" xMin="87" yMin="0" xMax="338" yMax="1897">
      <component glyphName="dotaccent" x="219" y="1532" flags="0x4"/>
      <component glyphName="I" x="0" y="0" flags="0x4"/>
    </TTGlyph>
    <TTGlyph name="Idotbelow" xMin="87" yMin="-272" xMax="338" yMax="1515">
      <component glyphName="dotaccent" x="219" y="-394" flags="0x4"/>
      <component glyphName="I" x="0" y="0" flags="0x4"/>
    </TTGlyph>
    <TTGlyph name="Igrave" xMin="-109" yMin="0" xMax="338" yMax="2089">
      <component glyphName="grave" x="-263" y="571" flags="0x4"/>
      <component glyphName="I" x="0" y="0" flags="0x4"/>
    </TTGlyph>
    <TTGlyph name="Iinvertedbreve" xMin="-15" yMin="0" xMax="453" yMax="1890">
      <component glyphName="breveinvertedcomb" x="-46" y="539" flags="0x4"/>
      <component glyphName="I" x="0" y="0" flags="0x4"/>
    </TTGlyph>
    <TTGlyph name="Imacron" xMin="-35" yMin="0" xMax="574" yMax="1775">
      <component glyphName="macron" x="-134" y="423" flags="0x4"/>
      <component glyphName="I" x="0" y="0" flags="0x4"/>
    </TTGlyph>
    <TTGlyph name="Iogonek" xMin="70" yMin="-342" xMax="375" yMax="1515">
      <component glyphName="ogonek" x="52" y="10" flags="0x4"/>
      <component glyphName="I" x="0" y="0" flags="0x4"/>
    </TTGlyph>
    <TTGlyph name="Iotalatin" xMin="99" yMin="0" xMax="338" yMax="1515">
      <component glyphName="I" x="0" y="0" flags="0x204"/>
    </TTGlyph>
    <TTGlyph name="Itilde" xMin="-129" yMin="0" xMax="575" yMax="1917">
      <component glyphName="asciitilde" x="-176" y="539" flags="0x4"/>
      <component glyphName="I" x="0" y="0" flags="0x4"/>
    </TTGlyph>
    <TTGlyph name="Itildebelow" xMin="-163" yMin="-322" xMax="541" yMax="1515">
      <component glyphName="asciitilde" x="-210" y="-1434" flags="0x4"/>
      <component glyphName="I" x="0" y="0" flags="0x4"/>
    </TTGlyph>
    <TTGlyph name="J" xMin="2" yMin="-26" xMax="785" yMax="1515">
      <contour>
        <pt x="2" y="291" on="1"/>
        <pt x="143" y="363" on="1"/>
        <pt x="181" y="246" on="0"/>
        <pt x="291" y="195" on="1"/>
        <pt x="335" y="175" on="0"/>
        <pt x="412" y="175" on="0"/>
        <pt x="454" y="187" on="0"/>
        <pt x="485" y="204" on="0"/>
        <pt x="509" y="236" on="0"/>
        <pt x="525" y="267" on="0"/>
        <pt x="536" y="314" on="0"/>
        <pt x="542" y="352" on="0"/>
        <pt x="544" y="381" on="1"/>
        <pt x="546" y="422" on="0"/>
        <pt x="546" y="481" on="1"/>
        <pt x="546" y="1515" on="1"/>
        <pt x="785" y="1515" on="1"/>
        <pt x="785" y="422" on="1"/>
        <pt x="785" y="58" on="0"/>
        <pt x="512" y="-11" on="1"/>
        <pt x="452" y="-26" on="0"/>
        <pt x="315" y="-26" on="0"/>
        <pt x="204" y="8" on="0"/>
        <pt x="130" y="57" on="0"/>
        <pt x="69" y="130" on="0"/>
        <pt x="37" y="185" on="0"/>
        <pt x="24" y="221" on="1"/>
        <pt x="9" y="260" on="0"/>
      </contour>
    </TTGlyph>
    <TTGlyph name="Jcircumflex" xMin="2" yMin="-26" xMax="943" yMax="1968">
      <component glyphName="asciicircum" x="377" y="522" flags="0x4"/>
      <component glyphName="J" x="0" y="0" flags="0x4"/>
    </TTGlyph>
    <TTGlyph name="K" xMin="123" yMin="0" xMax="1149" yMax="1515">
      <contour>
        <pt x="123" y="0" on="1"/>
        <pt x="123" y="1515" on="1"/>
        <pt x="364" y="1515" on="1"/>
        <pt x="364" y="841" on="1"/>
        <pt x="869" y="1515" on="1"/>
        <pt x="1121" y="1515" on="1"/>
        <pt x="672" y="924" on="1"/>
        <pt x="1149" y="0" on="1"/>
        <pt x="886" y="0" on="1"/>
        <pt x="519" y="723" on="1"/>
        <pt x="364" y="519" on="1"/>
        <pt x="364" y="0" on="1"/>
      </contour>
    </TTGlyph>
    <TTGlyph name="Kacute" xMin="123" yMin="0" xMax="1149" yMax="2078">
      <component glyphName="acute" x="421" y="559" flags="0x4"/>
      <component glyphName="K" x="0" y="0" flags="0x4"/>
    </TTGlyph>
    <TTGlyph name="Kcaron" xMin="123" yMin="0" xMax="1149" yMax="1997">
      <component glyphName="caron" x="297" y="522" flags="0x4"/>
      <component glyphName="K" x="0" y="0" flags="0x4"/>
    </TTGlyph>
    <TTGlyph name="Kcommaaccent" xMin="123" yMin="-568" xMax="1149" yMax="1515">
      <component glyphName="comma" x="480" y="-272" flags="0x4"/>
      <component glyphName="K" x="0" y="0" flags="0x4"/>
    </TTGlyph>
    <TTGlyph name="Kdotbelow" xMin="123" yMin="-272" xMax="1149" yMax="1515">
      <component glyphName="dotaccent" x="636" y="-394" flags="0x4"/>
      <component glyphName="K" x="0" y="0" flags="0x4"/>
    </TTGlyph>
    <TTGlyph name="Klinebelow" xMin="123" yMin="-242" xMax="1149" yMax="1515">
      <component glyphName="macron" x="283" y="-1445" flags="0x4"/>
      <component glyphName="K" x="0" y="0" flags="0x4"/>
    </TTGlyph>
    <TTGlyph name="L" xMin="123" yMin="0" xMax="988" yMax="1515">
      <contour>
        <pt x="123" y="0" on="1"/>
        <pt x="123" y="1515" on="1"/>
        <pt x="362" y="1515" on="1"/>
        <pt x="362" y="230" on="1"/>
        <pt x="988" y="230" on="1"/>
        <pt x="988" y="0" on="1"/>
      </contour>
    </TTGlyph>
    <TTGlyph name="LJ" xMin="135" yMin="-26" xMax="1728" yMax="1515">
      <component glyphName="J" x="943" y="0" flags="0x4"/>
      <component glyphName="L" x="12" y="0" flags="0x4"/>
    </TTGlyph>
    <TTGlyph name="Lacute" xMin="123" yMin="0" xMax="988" yMax="2031">
      <component glyphName="acute" x="61" y="512" flags="0x4"/>
      <component glyphName="L" x="0" y="0" flags="0x4"/>
    </TTGlyph>
    <TTGlyph name="Lcaron" xMin="123" yMin="0" xMax="988" yMax="1540">
      <component glyphName="comma" x="333" y="1343" flags="0x4"/>
      <component glyphName="L" x="0" y="0" flags="0x4"/>
    </TTGlyph>
    <TTGlyph name="Lcircumflexbelow" xMin="123" yMin="-438" xMax="988" yMax="1515">
      <component glyphName="asciicircum" x="221" y="-1541" flags="0x4"/>
      <component glyphName="L" x="0" y="0" flags="0x4"/>
    </TTGlyph>
    <TTGlyph name="Lcommaaccent" xMin="123" yMin="-568" xMax="988" yMax="1515">
      <component glyphName="comma" x="377" y="-272" flags="0x4"/>
      <component glyphName="L" x="0" y="0" flags="0x4"/>
    </TTGlyph>
    <TTGlyph name="Ldot" xMin="123" yMin="0" xMax="988" yMax="1515">
      <component glyphName="periodcentered" x="367" y="-95" flags="0x4"/>
      <component glyphName="L" x="0" y="0" flags="0x4"/>
    </TTGlyph>
    <TTGlyph name="Ldotbelow" xMin="123" yMin="-272" xMax="988" yMax="1515">
      <component glyphName="dotaccent" x="533" y="-394" flags="0x4"/>
      <component glyphName="L" x="0" y="0" flags="0x4"/>
    </TTGlyph>
    <TTGlyph name="Ldotbelowmacron" xMin="-57" yMin="-272" xMax="988" yMax="1775">
      <component glyphName="macron" x="-156" y="423" flags="0x4"/>
      <component glyphName="dotaccent" x="533" y="-394" flags="0x4"/>
      <component glyphName="L" x="0" y="0" flags="0x4"/>
    </TTGlyph>
    <TTGlyph name="Lj" xMin="135" yMin="-346" xMax="1348" yMax="1515">
      <component glyphName="j" x="992" y="0" flags="0x4"/>
      <component glyphName="L" x="12" y="0" flags="0x4"/>
    </TTGlyph>
    <TTGlyph name="Llinebelow" xMin="123" yMin="-242" xMax="988" yMax="1515">
      <component glyphName="macron" x="180" y="-1445" flags="0x4"/>
      <component glyphName="L" x="0" y="0" flags="0x4"/>
    </TTGlyph>
    <TTGlyph name="M" xMin="116" yMin="0" xMax="1356" yMax="1515">
      <contour>
        <pt x="350" y="1026" on="1"/>
        <pt x="350" y="0" on="1"/>
        <pt x="116" y="0" on="1"/>
        <pt x="116" y="1515" on="1"/>
        <pt x="440" y="1515" on="1"/>
        <pt x="731" y="468" on="1"/>
        <pt x="741" y="468" on="1"/>
        <pt x="1032" y="1515" on="1"/>
        <pt x="1356" y="1515" on="1"/>
        <pt x="1356" y="0" on="1"/>
        <pt x="1121" y="0" on="1"/>
        <pt x="1121" y="1026" on="1"/>
        <pt x="1112" y="1026" on="1"/>
        <pt x="828" y="0" on="1"/>
        <pt x="644" y="0" on="1"/>
        <pt x="360" y="1026" on="1"/>
      </contour>
    </TTGlyph>
    <TTGlyph name="Macute" xMin="116" yMin="0" xMax="1356" yMax="2078">
      <component glyphName="acute" x="548" y="559" flags="0x4"/>
      <component glyphName="M" x="0" y="0" flags="0x4"/>
    </TTGlyph>
    <TTGlyph name="Mdotaccent" xMin="116" yMin="0" xMax="1356" yMax="1897">
      <component glyphName="dotaccent" x="736" y="1532" flags="0x4"/>
      <component glyphName="M" x="0" y="0" flags="0x4"/>
    </TTGlyph>
    <TTGlyph name="Mdotbelow" xMin="116" yMin="-272" xMax="1356" yMax="1515">
      <component glyphName="dotaccent" x="736" y="-394" flags="0x4"/>
      <component glyphName="M" x="0" y="0" flags="0x4"/>
    </TTGlyph>
    <TTGlyph name="N" xMin="115" yMin="0" xMax="1155" yMax="1515">
      <contour>
        <pt x="917" y="585" on="1"/>
        <pt x="917" y="1515" on="1"/>
        <pt x="1155" y="1515" on="1"/>
        <pt x="1155" y="0" on="1"/>
        <pt x="965" y="0" on="1"/>
        <pt x="353" y="1162" on="1"/>
        <pt x="353" y="0" on="1"/>
        <pt x="115" y="0" on="1"/>
        <pt x="115" y="1515" on="1"/>
        <pt x="423" y="1515" on="1"/>
      </contour>
    </TTGlyph>
    <TTGlyph name="NJ" xMin="128" yMin="-26" xMax="2048" yMax="1515">
      <component glyphName="J" x="1263" y="0" flags="0x4"/>
      <component glyphName="N" x="13" y="0" flags="0x4"/>
    </TTGlyph>
    <TTGlyph name="Nacute" xMin="116" yMin="0" xMax="1156" yMax="2031">
      <component glyphName="acute" x="500" y="512" flags="0x4"/>
      <component glyphName="N" x="1" y="0" flags="0x4"/>
    </TTGlyph>
    <TTGlyph name="Ncaron" xMin="116" yMin="0" xMax="1156" yMax="1997">
      <component glyphName="caron" x="324" y="522" flags="0x4"/>
      <component glyphName="N" x="1" y="0" flags="0x4"/>
    </TTGlyph>
    <TTGlyph name="Ncircumflexbelow" xMin="116" yMin="-438" xMax="1156" yMax="1515">
      <component glyphName="asciicircum" x="324" y="-1541" flags="0x4"/>
      <component glyphName="N" x="1" y="0" flags="0x4"/>
    </TTGlyph>
    <TTGlyph name="Ncommaaccent" xMin="116" yMin="-568" xMax="1156" yMax="1515">
      <component glyphName="comma" x="480" y="-272" flags="0x4"/>
      <component glyphName="N" x="1" y="0" flags="0x4"/>
    </TTGlyph>
    <TTGlyph name="Ndotaccent" xMin="116" yMin="0" xMax="1156" yMax="1897">
      <component glyphName="dotaccent" x="636" y="1532" flags="0x4"/>
      <component glyphName="N" x="1" y="0" flags="0x4"/>
    </TTGlyph>
    <TTGlyph name="Ndotbelow" xMin="116" yMin="-272" xMax="1156" yMax="1515">
      <component glyphName="dotaccent" x="636" y="-394" flags="0x4"/>
      <component glyphName="N" x="1" y="0" flags="0x4"/>
    </TTGlyph>
    <TTGlyph name="Ngrave" xMin="116" yMin="0" xMax="1156" yMax="2077">
      <component glyphName="grave" x="140" y="559" flags="0x4"/>
      <component glyphName="N" x="1" y="0" flags="0x4"/>
    </TTGlyph>
    <TTGlyph name="Nj" xMin="128" yMin="-346" xMax="1619" yMax="1515">
      <component glyphName="j" x="1263" y="0" flags="0x4"/>
      <component glyphName="N" x="13" y="0" flags="0x4"/>
    </TTGlyph>
    <TTGlyph name="Nlinebelow" xMin="116" yMin="-242" xMax="1156" yMax="1515">
      <component glyphName="macron" x="282" y="-1445" flags="0x4"/>
      <component glyphName="N" x="1" y="0" flags="0x4"/>
    </TTGlyph>
    <TTGlyph name="Ntilde" xMin="116" yMin="0" xMax="1156" yMax="1931">
      <component glyphName="asciitilde" x="206" y="553" flags="0x4"/>
      <component glyphName="N" x="1" y="0" flags="0x4"/>
    </TTGlyph>
    <TTGlyph name="O" xMin="63" yMin="-26" xMax="1210" yMax="1543">
      <contour>
        <pt x="452" y="247" on="1"/>
        <pt x="529" y="175" on="0"/>
        <pt x="646" y="175" on="1"/>
        <pt x="971" y="175" on="0"/>
        <pt x="971" y="753" on="1"/>
        <pt x="971" y="1224" on="0"/>
        <pt x="751" y="1321" on="1"/>
        <pt x="703" y="1342" on="0"/>
        <pt x="586" y="1342" on="0"/>
        <pt x="487" y="1300" on="0"/>
        <pt x="418" y="1231" on="0"/>
        <pt x="363" y="1133" on="0"/>
        <pt x="331" y="1029" on="0"/>
        <pt x="310" y="910" on="0"/>
        <pt x="302" y="806" on="0"/>
        <pt x="302" y="697" on="0"/>
        <pt x="310" y="591" on="0"/>
        <pt x="331" y="473" on="0"/>
        <pt x="363" y="373" on="0"/>
        <pt x="418" y="280" on="0"/>
      </contour>
      <contour>
        <pt x="73" y="601" on="1"/>
        <pt x="63" y="677" on="0"/>
        <pt x="63" y="827" on="0"/>
        <pt x="81" y="979" on="0"/>
        <pt x="123" y="1136" on="0"/>
        <pt x="185" y="1276" on="0"/>
        <pt x="280" y="1401" on="0"/>
        <pt x="339" y="1446" on="1"/>
        <pt x="466" y="1543" on="0"/>
        <pt x="648" y="1543" on="1"/>
        <pt x="898" y="1543" on="0"/>
        <pt x="1048" y="1337" on="1"/>
        <pt x="1210" y="1113" on="0"/>
        <pt x="1210" y="752" on="1"/>
        <pt x="1210" y="384" on="0"/>
        <pt x="1054" y="172" on="1"/>
        <pt x="908" y="-26" on="0"/>
        <pt x="648" y="-26" on="1"/>
        <pt x="401" y="-26" on="0"/>
        <pt x="243" y="173" on="1"/>
        <pt x="109" y="341" on="0"/>
      </contour>
    </TTGlyph>
    <TTGlyph name="OE" xMin="62" yMin="0" xMax="1678" yMax="1515">
      <contour>
        <pt x="773" y="215" on="1"/>
        <pt x="773" y="1314" on="1"/>
        <pt x="645" y="1314" on="1"/>
        <pt x="478" y="1314" on="0"/>
        <pt x="389" y="1165" on="1"/>
        <pt x="301" y="1015" on="0"/>
        <pt x="301" y="753" on="1"/>
        <pt x="301" y="315" on="0"/>
        <pt x="536" y="232" on="1"/>
        <pt x="585" y="215" on="0"/>
        <pt x="645" y="215" on="1"/>
      </contour>
      <contour>
        <pt x="647" y="0" on="1"/>
        <pt x="399" y="0" on="0"/>
        <pt x="242" y="189" on="1"/>
        <pt x="107" y="350" on="0"/>
        <pt x="72" y="603" on="1"/>
        <pt x="62" y="677" on="0"/>
        <pt x="62" y="827" on="0"/>
        <pt x="80" y="976" on="0"/>
        <pt x="122" y="1128" on="0"/>
        <pt x="184" y="1262" on="0"/>
        <pt x="279" y="1381" on="0"/>
        <pt x="338" y="1423" on="1"/>
        <pt x="464" y="1515" on="0"/>
        <pt x="647" y="1515" on="1"/>
        <pt x="1640" y="1515" on="1"/>
        <pt x="1640" y="1314" on="1"/>
        <pt x="1012" y="1314" on="1"/>
        <pt x="1012" y="895" on="1"/>
        <pt x="1449" y="895" on="1"/>
        <pt x="1449" y="693" on="1"/>
        <pt x="1012" y="693" on="1"/>
        <pt x="1012" y="215" on="1"/>
        <pt x="1678" y="215" on="1"/>
        <pt x="1678" y="0" on="1"/>
      </contour>
    </TTGlyph>
    <TTGlyph name="Oacute" xMin="64" yMin="-26" xMax="1211" yMax="2089">
      <component glyphName="acute" x="461" y="570" flags="0x4"/>
      <component glyphName="O" x="1" y="0" flags="0x4"/>
    </TTGlyph>
    <TTGlyph name="Obreve" xMin="64" yMin="-26" xMax="1211" yMax="1890">
      <component glyphName="breve" x="382" y="539" flags="0x4"/>
      <component glyphName="O" x="1" y="0" flags="0x4"/>
    </TTGlyph>
    <TTGlyph name="Ocaron" xMin="64" yMin="-26" xMax="1211" yMax="1997">
      <component glyphName="caron" x="335" y="522" flags="0x4"/>
      <component glyphName="O" x="1" y="0" flags="0x4"/>
    </TTGlyph>
    <TTGlyph name="Ocircumflex" xMin="64" yMin="-26" xMax="1211" yMax="2008">
      <component glyphName="asciicircum" x="337" y="562" flags="0x4"/>
      <component glyphName="O" x="1" y="0" flags="0x4"/>
    </TTGlyph>
    <TTGlyph name="Ocircumflexacute" xMin="64" yMin="-26" xMax="1211" yMax="2487">
      <component glyphName="acute" x="459" y="968" flags="0x4"/>
      <component glyphName="asciicircum" x="337" y="562" flags="0x4"/>
      <component glyphName="O" x="1" y="0" flags="0x4"/>
    </TTGlyph>
    <TTGlyph name="Ocircumflexdotbelow" xMin="64" yMin="-288" xMax="1211" yMax="1968">
      <component glyphName="asciicircum" x="335" y="522" flags="0x4"/>
      <component glyphName="dotaccent" x="647" y="-410" flags="0x4"/>
      <component glyphName="O" x="1" y="0" flags="0x4"/>
    </TTGlyph>
    <TTGlyph name="Ocircumflexgrave" xMin="64" yMin="-26" xMax="1211" yMax="2486">
      <component glyphName="grave" x="152" y="968" flags="0x4"/>
      <component glyphName="asciicircum" x="337" y="562" flags="0x4"/>
      <component glyphName="O" x="1" y="0" flags="0x4"/>
    </TTGlyph>
    <TTGlyph name="Ocircumflextilde" xMin="64" yMin="-26" xMax="1211" yMax="2326">
      <component glyphName="asciitilde" x="218" y="948" flags="0x4"/>
      <component glyphName="asciicircum" x="337" y="562" flags="0x4"/>
      <component glyphName="O" x="1" y="0" flags="0x4"/>
    </TTGlyph>
    <TTGlyph name="Odblgrave" xMin="64" yMin="-26" xMax="1211" yMax="2077">
      <component glyphName="grave" x="520" y="559" flags="0x4"/>
      <component glyphName="grave" x="167" y="559" flags="0x4"/>
      <component glyphName="O" x="1" y="0" flags="0x4"/>
    </TTGlyph>
    <TTGlyph name="Odieresis" xMin="64" yMin="-26" xMax="1211" yMax="1908">
      <component glyphName="dieresis" x="323" y="462" flags="0x4"/>
      <component glyphName="O" x="1" y="0" flags="0x4"/>
    </TTGlyph>
    <TTGlyph name="Odieresismacron" xMin="64" yMin="-26" xMax="1211" yMax="2099">
      <component glyphName="macron" x="252" y="747" flags="0x4"/>
      <component glyphName="dieresis" x="323" y="462" flags="0x4"/>
      <component glyphName="O" x="1" y="0" flags="0x4"/>
    </TTGlyph>
    <TTGlyph name="Odotaccent" xMin="64" yMin="-26" xMax="1211" yMax="1897">
      <component glyphName="dotaccent" x="647" y="1532" flags="0x4"/>
      <component glyphName="O" x="1" y="0" flags="0x4"/>
    </TTGlyph>
    <TTGlyph name="Odotaccentmacron" xMin="64" yMin="-26" xMax="1211" yMax="2047">
      <component glyphName="macron" x="294" y="695" flags="0x4"/>
      <component glyphName="dotaccent" x="647" y="1532" flags="0x4"/>
      <component glyphName="O" x="1" y="0" flags="0x4"/>
    </TTGlyph>
    <TTGlyph name="Odotbelow" xMin="64" yMin="-288" xMax="1211" yMax="1543">
      <component glyphName="dotaccent" x="647" y="-410" flags="0x4"/>
      <component glyphName="O" x="1" y="0" flags="0x4"/>
    </TTGlyph>
    <TTGlyph name="Ograve" xMin="64" yMin="-26" xMax="1211" yMax="2089">
      <component glyphName="grave" x="168" y="571" flags="0x4"/>
      <component glyphName="O" x="1" y="0" flags="0x4"/>
    </TTGlyph>
    <TTGlyph name="Ohungarumlaut" xMin="64" yMin="-26" xMax="1211" yMax="2094">
      <component glyphName="comma" x="638" y="1897" flags="0x4"/>
      <component glyphName="comma" x="327" y="1897" flags="0x4"/>
      <component glyphName="O" x="1" y="0" flags="0x4"/>
    </TTGlyph>
    <TTGlyph name="Oinvertedbreve" xMin="64" yMin="-26" xMax="1211" yMax="1890">
      <component glyphName="breveinvertedcomb" x="382" y="539" flags="0x4"/>
      <component glyphName="O" x="1" y="0" flags="0x4"/>
    </TTGlyph>
    <TTGlyph name="Omacron" xMin="64" yMin="-26" xMax="1211" yMax="1775">
      <component glyphName="macron" x="294" y="423" flags="0x4"/>
      <component glyphName="O" x="1" y="0" flags="0x4"/>
    </TTGlyph>
    <TTGlyph name="Omacronacute" xMin="64" yMin="-26" xMax="1211" yMax="2292">
      <component glyphName="acute" x="459" y="773" flags="0x4"/>
      <component glyphName="macron" x="294" y="423" flags="0x4"/>
      <component glyphName="O" x="1" y="0" flags="0x4"/>
    </TTGlyph>
    <TTGlyph name="Omacrongrave" xMin="64" yMin="-26" xMax="1211" yMax="2291">
      <component glyphName="grave" x="152" y="773" flags="0x4"/>
      <component glyphName="macron" x="294" y="423" flags="0x4"/>
      <component glyphName="O" x="1" y="0" flags="0x4"/>
    </TTGlyph>
    <TTGlyph name="Oogonek" xMin="63" yMin="-358" xMax="1210" yMax="1543">
      <contour>
        <pt x="676" y="-155" on="1"/>
        <pt x="676" y="-201" on="0"/>
        <pt x="801" y="-201" on="1"/>
        <pt x="801" y="-353" on="1"/>
        <pt x="695" y="-358" on="0"/>
        <pt x="609" y="-332" on="0"/>
        <pt x="565" y="-312" on="0"/>
        <pt x="551" y="-298" on="1"/>
        <pt x="497" y="-247" on="0"/>
        <pt x="529" y="-142" on="1"/>
        <pt x="549" y="-78" on="0"/>
        <pt x="597" y="-24" on="1"/>
        <pt x="385" y="-5" on="0"/>
        <pt x="243" y="173" on="1"/>
        <pt x="109" y="341" on="0"/>
        <pt x="73" y="601" on="1"/>
        <pt x="63" y="677" on="0"/>
        <pt x="63" y="827" on="0"/>
        <pt x="81" y="979" on="0"/>
        <pt x="123" y="1136" on="0"/>
        <pt x="185" y="1276" on="0"/>
        <pt x="280" y="1401" on="0"/>
        <pt x="339" y="1446" on="1"/>
        <pt x="466" y="1543" on="0"/>
        <pt x="648" y="1543" on="1"/>
        <pt x="898" y="1543" on="0"/>
        <pt x="1048" y="1337" on="1"/>
        <pt x="1210" y="1113" on="0"/>
        <pt x="1210" y="752" on="1"/>
        <pt x="1210" y="384" on="0"/>
        <pt x="1054" y="172" on="1"/>
        <pt x="929" y="3" on="0"/>
        <pt x="720" y="-22" on="1"/>
        <pt x="676" y="-84" on="0"/>
      </contour>
      <contour>
        <pt x="452" y="247" on="1"/>
        <pt x="529" y="175" on="0"/>
        <pt x="646" y="175" on="1"/>
        <pt x="971" y="175" on="0"/>
        <pt x="971" y="753" on="1"/>
        <pt x="971" y="1224" on="0"/>
        <pt x="751" y="1321" on="1"/>
        <pt x="703" y="1342" on="0"/>
        <pt x="586" y="1342" on="0"/>
        <pt x="487" y="1300" on="0"/>
        <pt x="418" y="1231" on="0"/>
        <pt x="363" y="1133" on="0"/>
        <pt x="331" y="1029" on="0"/>
        <pt x="310" y="910" on="0"/>
        <pt x="302" y="806" on="0"/>
        <pt x="302" y="697" on="0"/>
        <pt x="310" y="591" on="0"/>
        <pt x="331" y="473" on="0"/>
        <pt x="363" y="373" on="0"/>
        <pt x="418" y="280" on="0"/>
      </contour>
    </TTGlyph>
    <TTGlyph name="Oogonekmacron" xMin="64" yMin="-358" xMax="1211" yMax="1775">
      <component glyphName="macron" x="294" y="423" flags="0x4"/>
      <component glyphName="Oogonek" x="1" y="0" flags="0x4"/>
    </TTGlyph>
    <TTGlyph name="Oopen" xMin="44" yMin="-27" xMax="1124" yMax="1541">
      <component glyphName="C" x="1187" y="1516" scale="-0.999938964844" flags="0x4"/>
    </TTGlyph>
    <TTGlyph name="Oslash" xMin="57" yMin="-78" xMax="1204" yMax="1588">
      <contour>
        <pt x="322" y="496" on="1"/>
        <pt x="327" y="470" on="0"/>
        <pt x="333" y="447" on="1"/>
        <pt x="814" y="1277" on="1"/>
        <pt x="744" y="1342" on="0"/>
        <pt x="640" y="1342" on="1"/>
        <pt x="502" y="1342" on="0"/>
        <pt x="424" y="1239" on="1"/>
        <pt x="347" y="1139" on="0"/>
        <pt x="322" y="1006" on="1"/>
        <pt x="296" y="875" on="0"/>
        <pt x="296" y="687" on="0"/>
        <pt x="308" y="564" on="0"/>
      </contour>
      <contour>
        <pt x="333" y="1446" on="1"/>
        <pt x="460" y="1543" on="0"/>
        <pt x="642" y="1543" on="1"/>
        <pt x="806" y="1543" on="0"/>
        <pt x="921" y="1461" on="1"/>
        <pt x="994" y="1588" on="1"/>
        <pt x="1179" y="1481" on="1"/>
        <pt x="1070" y="1292" on="1"/>
        <pt x="1161" y="1143" on="0"/>
        <pt x="1192" y="926" on="1"/>
        <pt x="1204" y="839" on="0"/>
        <pt x="1204" y="642" on="0"/>
        <pt x="1173" y="435" on="0"/>
        <pt x="1092" y="225" on="0"/>
        <pt x="969" y="71" on="0"/>
        <pt x="769" y="-26" on="0"/>
        <pt x="541" y="-26" on="0"/>
        <pt x="454" y="8" on="1"/>
        <pt x="400" y="28" on="0"/>
        <pt x="355" y="59" on="1"/>
        <pt x="276" y="-78" on="1"/>
        <pt x="93" y="31" on="1"/>
        <pt x="203" y="221" on="1"/>
        <pt x="194" y="235" on="1"/>
        <pt x="145" y="311" on="0"/>
        <pt x="86" y="487" on="0"/>
        <pt x="57" y="664" on="0"/>
        <pt x="57" y="827" on="0"/>
        <pt x="75" y="979" on="0"/>
        <pt x="117" y="1136" on="0"/>
        <pt x="179" y="1276" on="0"/>
        <pt x="274" y="1401" on="0"/>
      </contour>
      <contour>
        <pt x="932" y="1055" on="1"/>
        <pt x="458" y="236" on="1"/>
        <pt x="529" y="175" on="0"/>
        <pt x="640" y="175" on="1"/>
        <pt x="777" y="175" on="0"/>
        <pt x="922" y="369" on="0"/>
        <pt x="944" y="497" on="1"/>
        <pt x="965" y="626" on="0"/>
        <pt x="965" y="807" on="0"/>
        <pt x="958" y="909" on="0"/>
        <pt x="949" y="969" on="1"/>
        <pt x="942" y="1014" on="0"/>
      </contour>
    </TTGlyph>
    <TTGlyph name="Oslashacute" xMin="57" yMin="-78" xMax="1204" yMax="2095">
      <component glyphName="acute" x="448" y="576" flags="0x4"/>
      <component glyphName="Oslash" x="0" y="0" flags="0x4"/>
    </TTGlyph>
    <TTGlyph name="Otilde" xMin="64" yMin="-26" xMax="1211" yMax="1931">
      <component glyphName="asciitilde" x="219" y="553" flags="0x4"/>
      <component glyphName="O" x="1" y="0" flags="0x4"/>
    </TTGlyph>
    <TTGlyph name="Otildeacute" xMin="64" yMin="-26" xMax="1211" yMax="2397">
      <component glyphName="acute" x="488" y="878" flags="0x4"/>
      <component glyphName="asciitilde" x="219" y="553" flags="0x4"/>
      <component glyphName="O" x="1" y="0" flags="0x4"/>
    </TTGlyph>
    <TTGlyph name="Otildedieresis" xMin="64" yMin="-26" xMax="1211" yMax="2216">
      <component glyphName="dieresis" x="325" y="770" flags="0x4"/>
      <component glyphName="asciitilde" x="219" y="553" flags="0x4"/>
      <component glyphName="O" x="1" y="0" flags="0x4"/>
    </TTGlyph>
    <TTGlyph name="Otildemacron" xMin="64" yMin="-26" xMax="1211" yMax="2094">
      <component glyphName="macron" x="295" y="742" flags="0x4"/>
      <component glyphName="asciitilde" x="219" y="553" flags="0x4"/>
      <component glyphName="O" x="1" y="0" flags="0x4"/>
    </TTGlyph>
    <TTGlyph name="P" xMin="123" yMin="0" xMax="1100" yMax="1515">
      <contour>
        <pt x="861" y="1115" on="1"/>
        <pt x="861" y="1314" on="0"/>
        <pt x="527" y="1314" on="1"/>
        <pt x="362" y="1314" on="1"/>
        <pt x="362" y="859" on="1"/>
        <pt x="527" y="859" on="1"/>
        <pt x="681" y="859" on="0"/>
        <pt x="861" y="992" on="0"/>
      </contour>
      <contour>
        <pt x="123" y="0" on="1"/>
        <pt x="123" y="1515" on="1"/>
        <pt x="640" y="1515" on="1"/>
        <pt x="922" y="1515" on="0"/>
        <pt x="1035" y="1353" on="1"/>
        <pt x="1100" y="1259" on="0"/>
        <pt x="1100" y="1124" on="1"/>
        <pt x="1100" y="884" on="0"/>
        <pt x="954" y="752" on="1"/>
        <pt x="847" y="657" on="0"/>
        <pt x="672" y="657" on="1"/>
        <pt x="362" y="657" on="1"/>
        <pt x="362" y="0" on="1"/>
      </contour>
    </TTGlyph>
    <TTGlyph name="Pacute" xMin="123" yMin="0" xMax="1100" yMax="2078">
      <component glyphName="acute" x="343" y="559" flags="0x4"/>
      <component glyphName="P" x="0" y="0" flags="0x4"/>
    </TTGlyph>
    <TTGlyph name="Pdotaccent" xMin="123" yMin="0" xMax="1100" yMax="1897">
      <component glyphName="dotaccent" x="533" y="1532" flags="0x4"/>
      <component glyphName="P" x="0" y="0" flags="0x4"/>
    </TTGlyph>
    <TTGlyph name="Q" xMin="63" yMin="-283" xMax="1210" yMax="1543">
      <contour>
        <pt x="452" y="247" on="1"/>
        <pt x="529" y="175" on="0"/>
        <pt x="646" y="175" on="1"/>
        <pt x="971" y="175" on="0"/>
        <pt x="971" y="753" on="1"/>
        <pt x="971" y="1224" on="0"/>
        <pt x="751" y="1321" on="1"/>
        <pt x="703" y="1342" on="0"/>
        <pt x="586" y="1342" on="0"/>
        <pt x="487" y="1300" on="0"/>
        <pt x="418" y="1231" on="0"/>
        <pt x="363" y="1133" on="0"/>
        <pt x="331" y="1029" on="0"/>
        <pt x="310" y="910" on="0"/>
        <pt x="302" y="806" on="0"/>
        <pt x="302" y="697" on="0"/>
        <pt x="310" y="591" on="0"/>
        <pt x="331" y="473" on="0"/>
        <pt x="363" y="373" on="0"/>
        <pt x="418" y="280" on="0"/>
      </contour>
      <contour>
        <pt x="73" y="601" on="1"/>
        <pt x="63" y="677" on="0"/>
        <pt x="63" y="827" on="0"/>
        <pt x="81" y="979" on="0"/>
        <pt x="123" y="1136" on="0"/>
        <pt x="185" y="1276" on="0"/>
        <pt x="280" y="1401" on="0"/>
        <pt x="339" y="1446" on="1"/>
        <pt x="466" y="1543" on="0"/>
        <pt x="648" y="1543" on="1"/>
        <pt x="898" y="1543" on="0"/>
        <pt x="1048" y="1337" on="1"/>
        <pt x="1210" y="1113" on="0"/>
        <pt x="1210" y="752" on="1"/>
        <pt x="1210" y="384" on="0"/>
        <pt x="1054" y="172" on="1"/>
        <pt x="939" y="17" on="0"/>
        <pt x="754" y="-17" on="1"/>
        <pt x="756" y="-56" on="0"/>
        <pt x="760" y="-64" on="1"/>
        <pt x="766" y="-76" on="0"/>
        <pt x="784" y="-94" on="0"/>
        <pt x="805" y="-98" on="0"/>
        <pt x="824" y="-101" on="1"/>
        <pt x="848" y="-105" on="0"/>
        <pt x="919" y="-105" on="1"/>
        <pt x="1149" y="-105" on="1"/>
        <pt x="1149" y="-283" on="1"/>
        <pt x="1008" y="-283" on="1"/>
        <pt x="803" y="-283" on="0"/>
        <pt x="723" y="-270" on="0"/>
        <pt x="658" y="-254" on="0"/>
        <pt x="630" y="-233" on="0"/>
        <pt x="593" y="-199" on="0"/>
        <pt x="580" y="-157" on="0"/>
        <pt x="572" y="-127" on="1"/>
        <pt x="563" y="-92" on="0"/>
        <pt x="561" y="-19" on="1"/>
        <pt x="373" y="10" on="0"/>
        <pt x="243" y="173" on="1"/>
        <pt x="109" y="341" on="0"/>
      </contour>
    </TTGlyph>
    <TTGlyph name="R" xMin="123" yMin="0" xMax="1103" yMax="1515">
      <contour>
        <pt x="362" y="859" on="1"/>
        <pt x="615" y="859" on="1"/>
        <pt x="720" y="859" on="0"/>
        <pt x="790" y="916" on="1"/>
        <pt x="864" y="977" on="0"/>
        <pt x="864" y="1103" on="1"/>
        <pt x="864" y="1314" on="0"/>
        <pt x="529" y="1314" on="1"/>
        <pt x="362" y="1314" on="1"/>
      </contour>
      <contour>
        <pt x="123" y="0" on="1"/>
        <pt x="123" y="1515" on="1"/>
        <pt x="632" y="1515" on="1"/>
        <pt x="983" y="1515" on="0"/>
        <pt x="1076" y="1264" on="1"/>
        <pt x="1103" y="1191" on="0"/>
        <pt x="1103" y="1035" on="0"/>
        <pt x="1068" y="907" on="0"/>
        <pt x="1034" y="852" on="1"/>
        <pt x="959" y="732" on="0"/>
        <pt x="813" y="701" on="1"/>
        <pt x="1093" y="0" on="1"/>
        <pt x="848" y="0" on="1"/>
        <pt x="586" y="657" on="1"/>
        <pt x="362" y="657" on="1"/>
        <pt x="362" y="0" on="1"/>
      </contour>
    </TTGlyph>
    <TTGlyph name="Racute" xMin="123" yMin="0" xMax="1103" yMax="2031">
      <component glyphName="acute" x="265" y="512" flags="0x4"/>
      <component glyphName="R" x="0" y="0" flags="0x4"/>
    </TTGlyph>
    <TTGlyph name="Rcaron" xMin="123" yMin="0" xMax="1103" yMax="1997">
      <component glyphName="caron" x="257" y="522" flags="0x4"/>
      <component glyphName="R" x="0" y="0" flags="0x4"/>
    </TTGlyph>
    <TTGlyph name="Rcommaaccent" xMin="123" yMin="-568" xMax="1103" yMax="1515">
      <component glyphName="comma" x="453" y="-272" flags="0x4"/>
      <component glyphName="R" x="0" y="0" flags="0x4"/>
    </TTGlyph>
    <TTGlyph name="Rdblgrave" xMin="123" yMin="0" xMax="1103" yMax="2077">
      <component glyphName="grave" x="437" y="559" flags="0x4"/>
      <component glyphName="grave" x="84" y="559" flags="0x4"/>
      <component glyphName="R" x="0" y="0" flags="0x4"/>
    </TTGlyph>
    <TTGlyph name="Rdotaccent" xMin="123" yMin="0" xMax="1103" yMax="1897">
      <component glyphName="dotaccent" x="551" y="1532" flags="0x4"/>
      <component glyphName="R" x="0" y="0" flags="0x4"/>
    </TTGlyph>
    <TTGlyph name="Rdotbelow" xMin="123" yMin="-272" xMax="1103" yMax="1515">
      <component glyphName="dotaccent" x="609" y="-394" flags="0x4"/>
      <component glyphName="R" x="0" y="0" flags="0x4"/>
    </TTGlyph>
    <TTGlyph name="Rdotbelowmacron" xMin="123" yMin="-272" xMax="1103" yMax="1775">
      <component glyphName="macron" x="197" y="423" flags="0x4"/>
      <component glyphName="dotaccent" x="609" y="-394" flags="0x4"/>
      <component glyphName="R" x="0" y="0" flags="0x4"/>
    </TTGlyph>
    <TTGlyph name="Rinvertedbreve" xMin="123" yMin="0" xMax="1103" yMax="1890">
      <component glyphName="breveinvertedcomb" x="259" y="539" flags="0x4"/>
      <component glyphName="R" x="0" y="0" flags="0x4"/>
    </TTGlyph>
    <TTGlyph name="Rlinebelow" xMin="123" yMin="-242" xMax="1103" yMax="1515">
      <component glyphName="macron" x="256" y="-1445" flags="0x4"/>
      <component glyphName="R" x="0" y="0" flags="0x4"/>
    </TTGlyph>
    <TTGlyph name="S" xMin="24" yMin="-26" xMax="1010" yMax="1543">
      <contour>
        <pt x="24" y="388" on="1"/>
        <pt x="216" y="451" on="1"/>
        <pt x="217" y="451" on="0"/>
        <pt x="223" y="421" on="0"/>
        <pt x="238" y="372" on="0"/>
        <pt x="265" y="313" on="0"/>
        <pt x="317" y="254" on="0"/>
        <pt x="352" y="230" on="1"/>
        <pt x="430" y="175" on="0"/>
        <pt x="662" y="175" on="0"/>
        <pt x="771" y="289" on="0"/>
        <pt x="771" y="446" on="0"/>
        <pt x="739" y="543" on="0"/>
        <pt x="699" y="579" on="1"/>
        <pt x="632" y="639" on="0"/>
        <pt x="467" y="687" on="1"/>
        <pt x="176" y="772" on="0"/>
        <pt x="93" y="950" on="1"/>
        <pt x="50" y="1043" on="0"/>
        <pt x="50" y="1169" on="1"/>
        <pt x="50" y="1275" on="0"/>
        <pt x="125" y="1376" on="1"/>
        <pt x="256" y="1543" on="0"/>
        <pt x="497" y="1543" on="1"/>
        <pt x="688" y="1543" on="0"/>
        <pt x="810" y="1428" on="1"/>
        <pt x="897" y="1347" on="0"/>
        <pt x="940" y="1224" on="1"/>
        <pt x="959" y="1171" on="1"/>
        <pt x="968" y="1147" on="0"/>
        <pt x="971" y="1140" on="1"/>
        <pt x="776" y="1071" on="1"/>
        <pt x="710" y="1281" on="0"/>
        <pt x="570" y="1330" on="1"/>
        <pt x="535" y="1342" on="0"/>
        <pt x="497" y="1342" on="1"/>
        <pt x="289" y="1342" on="0"/>
        <pt x="289" y="1128" on="1"/>
        <pt x="289" y="1030" on="0"/>
        <pt x="347" y="978" on="1"/>
        <pt x="395" y="933" on="0"/>
        <pt x="473" y="907" on="1"/>
        <pt x="521" y="891" on="1"/>
        <pt x="562" y="877" on="0"/>
        <pt x="566" y="876" on="1"/>
        <pt x="610" y="861" on="1"/>
        <pt x="781" y="801" on="0"/>
        <pt x="841" y="755" on="1"/>
        <pt x="929" y="687" on="0"/>
        <pt x="956" y="630" on="1"/>
        <pt x="1010" y="513" on="0"/>
        <pt x="1010" y="383" on="1"/>
        <pt x="1010" y="281" on="0"/>
        <pt x="952" y="176" on="1"/>
        <pt x="874" y="35" on="0"/>
        <pt x="705" y="-9" on="1"/>
        <pt x="640" y="-26" on="0"/>
        <pt x="486" y="-26" on="0"/>
        <pt x="351" y="2" on="0"/>
        <pt x="253" y="50" on="0"/>
        <pt x="171" y="112" on="0"/>
        <pt x="115" y="181" on="0"/>
        <pt x="73" y="250" on="0"/>
        <pt x="48" y="312" on="0"/>
        <pt x="32" y="360" on="0"/>
        <pt x="25" y="388" on="0"/>
      </contour>
    </TTGlyph>
    <TTGlyph name="Sacute" xMin="24" yMin="-26" xMax="1010" yMax="2078">
      <component glyphName="acute" x="310" y="559" flags="0x4"/>
      <component glyphName="S" x="0" y="0" flags="0x4"/>
    </TTGlyph>
    <TTGlyph name="Sacutedotaccent" xMin="24" yMin="-26" xMax="1010" yMax="2250">
      <component glyphName="dotaccent" x="508" y="1885" flags="0x4"/>
      <component glyphName="acute" x="310" y="559" flags="0x4"/>
      <component glyphName="S" x="0" y="0" flags="0x4"/>
    </TTGlyph>
    <TTGlyph name="Scaron" xMin="24" yMin="-26" xMax="1010" yMax="1997">
      <component glyphName="caron" x="186" y="522" flags="0x4"/>
      <component glyphName="S" x="0" y="0" flags="0x4"/>
    </TTGlyph>
    <TTGlyph name="Scarondotaccent" xMin="24" yMin="-26" xMax="1010" yMax="2306">
      <component glyphName="dotaccent" x="500" y="1941" flags="0x4"/>
      <component glyphName="caron" x="186" y="522" flags="0x4"/>
      <component glyphName="S" x="0" y="0" flags="0x4"/>
    </TTGlyph>
    <TTGlyph name="Scedilla" xMin="24" yMin="-358" xMax="1010" yMax="1543">
      <contour>
        <pt x="24" y="388" on="1"/>
        <pt x="216" y="451" on="1"/>
        <pt x="217" y="451" on="0"/>
        <pt x="223" y="421" on="0"/>
        <pt x="238" y="372" on="0"/>
        <pt x="265" y="313" on="0"/>
        <pt x="317" y="254" on="0"/>
        <pt x="352" y="230" on="1"/>
        <pt x="430" y="175" on="0"/>
        <pt x="662" y="175" on="0"/>
        <pt x="771" y="289" on="0"/>
        <pt x="771" y="446" on="0"/>
        <pt x="739" y="543" on="0"/>
        <pt x="699" y="579" on="1"/>
        <pt x="632" y="639" on="0"/>
        <pt x="467" y="687" on="1"/>
        <pt x="176" y="772" on="0"/>
        <pt x="93" y="950" on="1"/>
        <pt x="50" y="1043" on="0"/>
        <pt x="50" y="1169" on="1"/>
        <pt x="50" y="1275" on="0"/>
        <pt x="125" y="1376" on="1"/>
        <pt x="256" y="1543" on="0"/>
        <pt x="497" y="1543" on="1"/>
        <pt x="688" y="1543" on="0"/>
        <pt x="810" y="1428" on="1"/>
        <pt x="897" y="1347" on="0"/>
        <pt x="940" y="1224" on="1"/>
        <pt x="959" y="1171" on="1"/>
        <pt x="968" y="1147" on="0"/>
        <pt x="971" y="1140" on="1"/>
        <pt x="776" y="1071" on="1"/>
        <pt x="710" y="1281" on="0"/>
        <pt x="570" y="1330" on="1"/>
        <pt x="535" y="1342" on="0"/>
        <pt x="497" y="1342" on="1"/>
        <pt x="289" y="1342" on="0"/>
        <pt x="289" y="1128" on="1"/>
        <pt x="289" y="1030" on="0"/>
        <pt x="347" y="978" on="1"/>
        <pt x="395" y="933" on="0"/>
        <pt x="473" y="907" on="1"/>
        <pt x="521" y="891" on="1"/>
        <pt x="562" y="877" on="0"/>
        <pt x="566" y="876" on="1"/>
        <pt x="610" y="861" on="1"/>
        <pt x="781" y="801" on="0"/>
        <pt x="841" y="755" on="1"/>
        <pt x="929" y="687" on="0"/>
        <pt x="956" y="630" on="1"/>
        <pt x="1010" y="513" on="0"/>
        <pt x="1010" y="383" on="1"/>
        <pt x="1010" y="281" on="0"/>
        <pt x="952" y="176" on="1"/>
        <pt x="874" y="35" on="0"/>
        <pt x="705" y="-9" on="1"/>
        <pt x="670" y="-18" on="0"/>
        <pt x="632" y="-22" on="1"/>
        <pt x="713" y="-112" on="0"/>
        <pt x="713" y="-221" on="1"/>
        <pt x="713" y="-304" on="0"/>
        <pt x="601" y="-338" on="1"/>
        <pt x="536" y="-358" on="0"/>
        <pt x="429" y="-353" on="1"/>
        <pt x="429" y="-201" on="1"/>
        <pt x="554" y="-201" on="0"/>
        <pt x="554" y="-155" on="1"/>
        <pt x="554" y="-85" on="0"/>
        <pt x="512" y="-24" on="1"/>
        <pt x="463" y="-21" on="0"/>
        <pt x="419" y="-12" on="1"/>
        <pt x="351" y="2" on="0"/>
        <pt x="253" y="50" on="0"/>
        <pt x="171" y="112" on="0"/>
        <pt x="115" y="181" on="0"/>
        <pt x="73" y="250" on="0"/>
        <pt x="48" y="312" on="0"/>
        <pt x="32" y="360" on="0"/>
        <pt x="25" y="388" on="0"/>
      </contour>
    </TTGlyph>
    <TTGlyph name="Scircumflex" xMin="24" yMin="-26" xMax="1010" yMax="1968">
      <component glyphName="asciicircum" x="186" y="522" flags="0x4"/>
      <component glyphName="S" x="0" y="0" flags="0x4"/>
    </TTGlyph>
    <TTGlyph name="Scommaaccent" xMin="24" yMin="-584" xMax="1010" yMax="1543">
      <component glyphName="comma" x="365" y="-288" flags="0x4"/>
      <component glyphName="S" x="0" y="0" flags="0x4"/>
    </TTGlyph>
    <TTGlyph name="Sdotaccent" xMin="24" yMin="-26" xMax="1010" yMax="1897">
      <component glyphName="dotaccent" x="498" y="1532" flags="0x4"/>
      <component glyphName="S" x="0" y="0" flags="0x4"/>
    </TTGlyph>
    <TTGlyph name="Sdotbelow" xMin="24" yMin="-288" xMax="1010" yMax="1543">
      <component glyphName="dotaccent" x="563" y="-410" flags="0x4"/>
      <component glyphName="S" x="0" y="0" flags="0x4"/>
    </TTGlyph>
    <TTGlyph name="Sdotbelowdotaccent" xMin="24" yMin="-288" xMax="1010" yMax="1897">
      <component glyphName="dotaccent" x="498" y="1532" flags="0x4"/>
      <component glyphName="dotaccent" x="563" y="-410" flags="0x4"/>
      <component glyphName="S" x="0" y="0" flags="0x4"/>
    </TTGlyph>
    <TTGlyph name="Ssharp" xMin="123" yMin="-17" xMax="1446" yMax="1556">
      <contour>
        <pt x="1388" y="1329" on="1"/>
        <pt x="990" y="936" on="1"/>
        <pt x="1078" y="938" on="0"/>
        <pt x="1221" y="884" on="0"/>
        <pt x="1292" y="840" on="0"/>
        <pt x="1364" y="768" on="0"/>
        <pt x="1389" y="723" on="1"/>
        <pt x="1446" y="622" on="0"/>
        <pt x="1446" y="372" on="0"/>
        <pt x="1374" y="195" on="0"/>
        <pt x="1243" y="61" on="0"/>
        <pt x="1045" y="-17" on="0"/>
        <pt x="761" y="-17" on="0"/>
        <pt x="499" y="135" on="0"/>
        <pt x="415" y="260" on="1"/>
        <pt x="571" y="389" on="1"/>
        <pt x="593" y="358" on="1"/>
        <pt x="717" y="184" on="0"/>
        <pt x="925" y="184" on="1"/>
        <pt x="1048" y="184" on="0"/>
        <pt x="1207" y="350" on="0"/>
        <pt x="1207" y="472" on="1"/>
        <pt x="1207" y="639" on="0"/>
        <pt x="1084" y="707" on="1"/>
        <pt x="931" y="792" on="0"/>
        <pt x="680" y="729" on="1"/>
        <pt x="680" y="962" on="1"/>
        <pt x="1027" y="1287" on="1"/>
        <pt x="943" y="1354" on="0"/>
        <pt x="710" y="1354" on="0"/>
        <pt x="559" y="1293" on="0"/>
        <pt x="461" y="1195" on="0"/>
        <pt x="428" y="1128" on="1"/>
        <pt x="367" y="1006" on="0"/>
        <pt x="367" y="853" on="1"/>
        <pt x="367" y="0" on="1"/>
        <pt x="123" y="0" on="1"/>
        <pt x="123" y="902" on="1"/>
        <pt x="123" y="1113" on="0"/>
        <pt x="224" y="1274" on="1"/>
        <pt x="401" y="1556" on="0"/>
        <pt x="792" y="1556" on="1"/>
        <pt x="1194" y="1556" on="0"/>
        <pt x="1339" y="1398" on="1"/>
        <pt x="1367" y="1367" on="0"/>
        <pt x="1387" y="1331" on="0"/>
      </contour>
    </TTGlyph>
    <TTGlyph name="T" xMin="2" yMin="0" xMax="1059" yMax="1515">
      <contour>
        <pt x="2" y="1314" on="1"/>
        <pt x="2" y="1515" on="1"/>
        <pt x="1059" y="1515" on="1"/>
        <pt x="1059" y="1314" on="1"/>
        <pt x="650" y="1314" on="1"/>
        <pt x="650" y="0" on="1"/>
        <pt x="411" y="0" on="1"/>
        <pt x="411" y="1314" on="1"/>
      </contour>
    </TTGlyph>
    <TTGlyph name="T_comma" xMin="2" yMin="-568" xMax="1059" yMax="1515">
      <component glyphName="comma" x="375" y="-272" flags="0x4"/>
      <component glyphName="T" x="0" y="0" flags="0x4"/>
    </TTGlyph>
    <TTGlyph name="Tcaron" xMin="2" yMin="0" xMax="1059" yMax="1997">
      <component glyphName="caron" x="219" y="522" flags="0x4"/>
      <component glyphName="T" x="0" y="0" flags="0x4"/>
    </TTGlyph>
    <TTGlyph name="Tcircumflexbelow" xMin="2" yMin="-438" xMax="1059" yMax="1515">
      <component glyphName="asciicircum" x="219" y="-1541" flags="0x4"/>
      <component glyphName="T" x="0" y="0" flags="0x4"/>
    </TTGlyph>
    <TTGlyph name="Tcommaaccent" xMin="2" yMin="-342" xMax="1059" yMax="1515">
      <contour>
        <pt x="2" y="1314" on="1"/>
        <pt x="2" y="1515" on="1"/>
        <pt x="1059" y="1515" on="1"/>
        <pt x="1059" y="1314" on="1"/>
        <pt x="650" y="1314" on="1"/>
        <pt x="650" y="0" on="1"/>
        <pt x="594" y="0" on="1"/>
        <pt x="681" y="-92" on="0"/>
        <pt x="681" y="-205" on="1"/>
        <pt x="681" y="-288" on="0"/>
        <pt x="569" y="-322" on="1"/>
        <pt x="504" y="-342" on="0"/>
        <pt x="397" y="-337" on="1"/>
        <pt x="397" y="-185" on="1"/>
        <pt x="522" y="-185" on="0"/>
        <pt x="522" y="-139" on="1"/>
        <pt x="522" y="-65" on="0"/>
        <pt x="474" y="0" on="1"/>
        <pt x="411" y="0" on="1"/>
        <pt x="411" y="1314" on="1"/>
      </contour>
    </TTGlyph>
    <TTGlyph name="Tdotaccent" xMin="2" yMin="0" xMax="1059" yMax="1897">
      <component glyphName="dotaccent" x="531" y="1532" flags="0x4"/>
      <component glyphName="T" x="0" y="0" flags="0x4"/>
    </TTGlyph>
    <TTGlyph name="Tdotbelow" xMin="2" yMin="-272" xMax="1059" yMax="1515">
      <component glyphName="dotaccent" x="531" y="-394" flags="0x4"/>
      <component glyphName="T" x="0" y="0" flags="0x4"/>
    </TTGlyph>
    <TTGlyph name="Thorn" xMin="125" yMin="0" xMax="1099" yMax="1515">
      <contour>
        <pt x="365" y="519" on="1"/>
        <pt x="503" y="519" on="1"/>
        <pt x="759" y="519" on="0"/>
        <pt x="832" y="656" on="1"/>
        <pt x="859" y="707" on="0"/>
        <pt x="859" y="856" on="0"/>
        <pt x="812" y="912" on="1"/>
        <pt x="723" y="1017" on="0"/>
        <pt x="503" y="1017" on="1"/>
        <pt x="365" y="1017" on="1"/>
      </contour>
      <contour>
        <pt x="125" y="0" on="1"/>
        <pt x="125" y="1515" on="1"/>
        <pt x="365" y="1515" on="1"/>
        <pt x="365" y="1218" on="1"/>
        <pt x="647" y="1218" on="1"/>
        <pt x="911" y="1218" on="0"/>
        <pt x="1034" y="1015" on="1"/>
        <pt x="1099" y="907" on="0"/>
        <pt x="1099" y="783" on="1"/>
        <pt x="1099" y="548" on="0"/>
        <pt x="951" y="417" on="1"/>
        <pt x="839" y="318" on="0"/>
        <pt x="647" y="318" on="1"/>
        <pt x="365" y="318" on="1"/>
        <pt x="365" y="0" on="1"/>
      </contour>
    </TTGlyph>
    <TTGlyph name="Tlinebelow" xMin="2" yMin="-242" xMax="1059" yMax="1515">
      <component glyphName="macron" x="178" y="-1445" flags="0x4"/>
      <component glyphName="T" x="0" y="0" flags="0x4"/>
    </TTGlyph>
    <TTGlyph name="U" xMin="123" yMin="-26" xMax="1119" yMax="1515">
      <contour>
        <pt x="123" y="448" on="1"/>
        <pt x="123" y="1515" on="1"/>
        <pt x="362" y="1515" on="1"/>
        <pt x="362" y="505" on="1"/>
        <pt x="362" y="252" on="0"/>
        <pt x="525" y="191" on="1"/>
        <pt x="567" y="175" on="0"/>
        <pt x="671" y="175" on="0"/>
        <pt x="755" y="203" on="0"/>
        <pt x="807" y="245" on="0"/>
        <pt x="845" y="310" on="0"/>
        <pt x="863" y="364" on="0"/>
        <pt x="869" y="401" on="1"/>
        <pt x="875" y="449" on="0"/>
        <pt x="875" y="505" on="1"/>
        <pt x="875" y="1515" on="1"/>
        <pt x="1119" y="1515" on="1"/>
        <pt x="1119" y="448" on="1"/>
        <pt x="1119" y="219" on="0"/>
        <pt x="968" y="85" on="1"/>
        <pt x="843" y="-26" on="0"/>
        <pt x="620" y="-26" on="1"/>
        <pt x="281" y="-26" on="0"/>
        <pt x="170" y="231" on="1"/>
        <pt x="123" y="337" on="0"/>
      </contour>
    </TTGlyph>
    <TTGlyph name="Uacute" xMin="123" yMin="-26" xMax="1119" yMax="2089">
      <component glyphName="acute" x="433" y="570" flags="0x4"/>
      <component glyphName="U" x="0" y="0" flags="0x4"/>
    </TTGlyph>
    <TTGlyph name="Ubreve" xMin="123" yMin="-26" xMax="1119" yMax="1890">
      <component glyphName="breve" x="355" y="539" flags="0x4"/>
      <component glyphName="U" x="0" y="0" flags="0x4"/>
    </TTGlyph>
    <TTGlyph name="Ucaron" xMin="123" yMin="-26" xMax="1119" yMax="1997">
      <component glyphName="caron" x="309" y="522" flags="0x4"/>
      <component glyphName="U" x="0" y="0" flags="0x4"/>
    </TTGlyph>
    <TTGlyph name="Ucircumflex" xMin="123" yMin="-26" xMax="1119" yMax="2008">
      <component glyphName="asciicircum" x="310" y="562" flags="0x4"/>
      <component glyphName="U" x="0" y="0" flags="0x4"/>
    </TTGlyph>
    <TTGlyph name="Ucircumflexbelow" xMin="123" yMin="-454" xMax="1119" yMax="1515">
      <component glyphName="asciicircum" x="308" y="-1557" flags="0x4"/>
      <component glyphName="U" x="0" y="0" flags="0x4"/>
    </TTGlyph>
    <TTGlyph name="Udblgrave" xMin="123" yMin="-26" xMax="1119" yMax="2077">
      <component glyphName="grave" x="483" y="559" flags="0x4"/>
      <component glyphName="grave" x="130" y="559" flags="0x4"/>
      <component glyphName="U" x="0" y="0" flags="0x4"/>
    </TTGlyph>
    <TTGlyph name="Udieresis" xMin="123" yMin="-26" xMax="1119" yMax="1908">
      <component glyphName="dieresis" x="295" y="462" flags="0x4"/>
      <component glyphName="U" x="0" y="0" flags="0x4"/>
    </TTGlyph>
    <TTGlyph name="Udieresisacute" xMin="123" yMin="-26" xMax="1119" yMax="2454">
      <component glyphName="acute" x="433" y="935" flags="0x4"/>
      <component glyphName="dieresis" x="295" y="462" flags="0x4"/>
      <component glyphName="U" x="0" y="0" flags="0x4"/>
    </TTGlyph>
    <TTGlyph name="Udieresisbelow" xMin="123" yMin="-288" xMax="1119" yMax="1515">
      <component glyphName="dieresis" x="293" y="-1491" flags="0x4"/>
      <component glyphName="U" x="0" y="0" flags="0x4"/>
    </TTGlyph>
    <TTGlyph name="Udieresiscaron" xMin="123" yMin="-26" xMax="1119" yMax="2373">
      <component glyphName="caron" x="310" y="898" flags="0x4"/>
      <component glyphName="dieresis" x="295" y="462" flags="0x4"/>
      <component glyphName="U" x="0" y="0" flags="0x4"/>
    </TTGlyph>
    <TTGlyph name="Udieresisgrave" xMin="123" yMin="-26" xMax="1119" yMax="2454">
      <component glyphName="grave" x="140" y="936" flags="0x4"/>
      <component glyphName="dieresis" x="295" y="462" flags="0x4"/>
      <component glyphName="U" x="0" y="0" flags="0x4"/>
    </TTGlyph>
    <TTGlyph name="Udieresismacron" xMin="123" yMin="-26" xMax="1119" yMax="2179">
      <component glyphName="macron" x="227" y="827" flags="0x4"/>
      <component glyphName="dieresis" x="295" y="462" flags="0x4"/>
      <component glyphName="U" x="0" y="0" flags="0x4"/>
    </TTGlyph>
    <TTGlyph name="Udotbelow" xMin="123" yMin="-288" xMax="1119" yMax="1515">
      <component glyphName="dotaccent" x="620" y="-410" flags="0x4"/>
      <component glyphName="U" x="0" y="0" flags="0x4"/>
    </TTGlyph>
    <TTGlyph name="Ugrave" xMin="123" yMin="-26" xMax="1119" yMax="2089">
      <component glyphName="grave" x="140" y="571" flags="0x4"/>
      <component glyphName="U" x="0" y="0" flags="0x4"/>
    </TTGlyph>
    <TTGlyph name="Uhungarumlaut" xMin="123" yMin="-26" xMax="1119" yMax="2024">
      <component glyphName="comma" x="616" y="1827" flags="0x4"/>
      <component glyphName="comma" x="305" y="1827" flags="0x4"/>
      <component glyphName="U" x="0" y="0" flags="0x4"/>
    </TTGlyph>
    <TTGlyph name="Uinvertedbreve" xMin="123" yMin="-26" xMax="1119" yMax="1890">
      <component glyphName="breveinvertedcomb" x="356" y="539" flags="0x4"/>
      <component glyphName="U" x="0" y="0" flags="0x4"/>
    </TTGlyph>
    <TTGlyph name="Umacron" xMin="123" yMin="-26" xMax="1119" yMax="1775">
      <component glyphName="macron" x="266" y="423" flags="0x4"/>
      <component glyphName="U" x="0" y="0" flags="0x4"/>
    </TTGlyph>
    <TTGlyph name="Umacrondieresis" xMin="123" yMin="-26" xMax="1119" yMax="2111">
      <component glyphName="dieresis" x="293" y="665" flags="0x4"/>
      <component glyphName="macron" x="266" y="423" flags="0x4"/>
      <component glyphName="U" x="0" y="0" flags="0x4"/>
    </TTGlyph>
    <TTGlyph name="Uring" xMin="123" yMin="-26" xMax="1119" yMax="2202">
      <component glyphName="degree" x="273" y="674" flags="0x4"/>
      <component glyphName="U" x="0" y="0" flags="0x4"/>
    </TTGlyph>
    <TTGlyph name="Utilde" xMin="123" yMin="-26" xMax="1119" yMax="1917">
      <component glyphName="asciitilde" x="225" y="539" flags="0x4"/>
      <component glyphName="U" x="0" y="0" flags="0x4"/>
    </TTGlyph>
    <TTGlyph name="Utildeacute" xMin="123" yMin="-26" xMax="1119" yMax="2397">
      <component glyphName="acute" x="480" y="878" flags="0x4"/>
      <component glyphName="asciitilde" x="225" y="539" flags="0x4"/>
      <component glyphName="U" x="0" y="0" flags="0x4"/>
    </TTGlyph>
    <TTGlyph name="Utildebelow" xMin="123" yMin="-338" xMax="1119" yMax="1515">
      <component glyphName="asciitilde" x="191" y="-1450" flags="0x4"/>
      <component glyphName="U" x="0" y="0" flags="0x4"/>
    </TTGlyph>
    <TTGlyph name="V" xMin="2" yMin="0" xMax="1102" yMax="1515">
      <contour>
        <pt x="552" y="516" on="1"/>
        <pt x="849" y="1515" on="1"/>
        <pt x="1102" y="1515" on="1"/>
        <pt x="652" y="0" on="1"/>
        <pt x="452" y="0" on="1"/>
        <pt x="2" y="1515" on="1"/>
        <pt x="255" y="1515" on="1"/>
      </contour>
    </TTGlyph>
    <TTGlyph name="Vdotbelow" xMin="2" yMin="-272" xMax="1102" yMax="1515">
      <component glyphName="dotaccent" x="552" y="-394" flags="0x4"/>
      <component glyphName="V" x="0" y="0" flags="0x4"/>
    </TTGlyph>
    <TTGlyph name="Vpixels_perem" xMin="73" yMin="0" xMax="903" yMax="693">
      <contour>
        <pt x="874" y="363" on="1"/>
        <pt x="874" y="661" on="1"/>
        <pt x="903" y="661" on="1"/>
        <pt x="903" y="363" on="1"/>
      </contour>
      <contour>
        <pt x="874" y="31" on="1"/>
        <pt x="874" y="329" on="1"/>
        <pt x="903" y="329" on="1"/>
        <pt x="903" y="31" on="1"/>
      </contour>
      <contour>
        <pt x="566" y="664" on="1"/>
        <pt x="566" y="693" on="1"/>
        <pt x="874" y="693" on="1"/>
        <pt x="874" y="664" on="1"/>
      </contour>
      <contour>
        <pt x="566" y="332" on="1"/>
        <pt x="566" y="361" on="1"/>
        <pt x="874" y="361" on="1"/>
        <pt x="874" y="332" on="1"/>
      </contour>
      <contour>
        <pt x="566" y="0" on="1"/>
        <pt x="566" y="29" on="1"/>
        <pt x="874" y="29" on="1"/>
        <pt x="874" y="0" on="1"/>
      </contour>
      <contour>
        <pt x="537" y="363" on="1"/>
        <pt x="537" y="661" on="1"/>
        <pt x="566" y="661" on="1"/>
        <pt x="566" y="363" on="1"/>
      </contour>
      <contour>
        <pt x="537" y="31" on="1"/>
        <pt x="537" y="329" on="1"/>
        <pt x="566" y="329" on="1"/>
        <pt x="566" y="31" on="1"/>
      </contour>
      <contour>
        <pt x="411" y="363" on="1"/>
        <pt x="411" y="661" on="1"/>
        <pt x="440" y="661" on="1"/>
        <pt x="440" y="363" on="1"/>
      </contour>
      <contour>
        <pt x="411" y="31" on="1"/>
        <pt x="411" y="329" on="1"/>
        <pt x="440" y="329" on="1"/>
        <pt x="440" y="31" on="1"/>
      </contour>
      <contour>
        <pt x="102" y="664" on="1"/>
        <pt x="102" y="693" on="1"/>
        <pt x="411" y="693" on="1"/>
        <pt x="411" y="664" on="1"/>
      </contour>
      <contour>
        <pt x="102" y="332" on="1"/>
        <pt x="102" y="361" on="1"/>
        <pt x="411" y="361" on="1"/>
        <pt x="411" y="332" on="1"/>
      </contour>
      <contour>
        <pt x="102" y="0" on="1"/>
        <pt x="102" y="29" on="1"/>
        <pt x="411" y="29" on="1"/>
        <pt x="411" y="0" on="1"/>
      </contour>
      <contour>
        <pt x="73" y="363" on="1"/>
        <pt x="73" y="661" on="1"/>
        <pt x="102" y="661" on="1"/>
        <pt x="102" y="363" on="1"/>
      </contour>
      <contour>
        <pt x="73" y="31" on="1"/>
        <pt x="73" y="329" on="1"/>
        <pt x="102" y="329" on="1"/>
        <pt x="102" y="31" on="1"/>
      </contour>
    </TTGlyph>
    <TTGlyph name="Vtilde" xMin="2" yMin="0" xMax="1102" yMax="1917">
      <component glyphName="asciitilde" x="123" y="539" flags="0x4"/>
      <component glyphName="V" x="0" y="0" flags="0x4"/>
    </TTGlyph>
    <TTGlyph name="Vturned" xMin="2" yMin="0" xMax="1102" yMax="1515">
      <component glyphName="V" x="1104" y="1515" scale="-0.999938964844" flags="0x4"/>
    </TTGlyph>
    <TTGlyph name="W" xMin="2" yMin="0" xMax="1612" yMax="1515">
      <contour>
        <pt x="2" y="1515" on="1"/>
        <pt x="249" y="1515" on="1"/>
        <pt x="471" y="498" on="1"/>
        <pt x="480" y="498" on="1"/>
        <pt x="698" y="1515" on="1"/>
        <pt x="924" y="1515" on="1"/>
        <pt x="1138" y="498" on="1"/>
        <pt x="1150" y="498" on="1"/>
        <pt x="1372" y="1515" on="1"/>
        <pt x="1612" y="1515" on="1"/>
        <pt x="1261" y="0" on="1"/>
        <pt x="1038" y="0" on="1"/>
        <pt x="816" y="1057" on="1"/>
        <pt x="806" y="1057" on="1"/>
        <pt x="580" y="0" on="1"/>
        <pt x="353" y="0" on="1"/>
      </contour>
    </TTGlyph>
    <TTGlyph name="Wacute" xMin="2" yMin="0" xMax="1612" yMax="2078">
      <component glyphName="acute" x="619" y="559" flags="0x4"/>
      <component glyphName="W" x="0" y="0" flags="0x4"/>
    </TTGlyph>
    <TTGlyph name="Wcircumflex" xMin="2" yMin="0" xMax="1612" yMax="1968">
      <component glyphName="asciicircum" x="495" y="522" flags="0x4"/>
      <component glyphName="W" x="0" y="0" flags="0x4"/>
    </TTGlyph>
    <TTGlyph name="Wdieresis" xMin="2" yMin="0" xMax="1612" yMax="1897">
      <component glyphName="dieresis" x="480" y="451" flags="0x4"/>
      <component glyphName="W" x="0" y="0" flags="0x4"/>
    </TTGlyph>
    <TTGlyph name="Wdotaccent" xMin="2" yMin="0" xMax="1612" yMax="1897">
      <component glyphName="dotaccent" x="807" y="1532" flags="0x4"/>
      <component glyphName="W" x="0" y="0" flags="0x4"/>
    </TTGlyph>
    <TTGlyph name="Wdotbelow" xMin="2" yMin="-272" xMax="1612" yMax="1515">
      <component glyphName="dotaccent" x="807" y="-394" flags="0x4"/>
      <component glyphName="W" x="0" y="0" flags="0x4"/>
    </TTGlyph>
    <TTGlyph name="Wgrave" xMin="2" yMin="0" xMax="1612" yMax="2077">
      <component glyphName="grave" x="312" y="559" flags="0x4"/>
      <component glyphName="W" x="0" y="0" flags="0x4"/>
    </TTGlyph>
    <TTGlyph name="X" xMin="2" yMin="0" xMax="1104" yMax="1515">
      <contour>
        <pt x="1104" y="0" on="1"/>
        <pt x="858" y="0" on="1"/>
        <pt x="556" y="536" on="1"/>
        <pt x="253" y="0" on="1"/>
        <pt x="6" y="0" on="1"/>
        <pt x="432" y="754" on="1"/>
        <pt x="2" y="1515" on="1"/>
        <pt x="246" y="1515" on="1"/>
        <pt x="548" y="983" on="1"/>
        <pt x="840" y="1515" on="1"/>
        <pt x="1085" y="1515" on="1"/>
        <pt x="668" y="770" on="1"/>
      </contour>
    </TTGlyph>
    <TTGlyph name="Xdieresis" xMin="2" yMin="0" xMax="1104" yMax="1897">
      <component glyphName="dieresis" x="228" y="451" flags="0x4"/>
      <component glyphName="X" x="0" y="0" flags="0x4"/>
    </TTGlyph>
    <TTGlyph name="Xdotaccent" xMin="2" yMin="0" xMax="1104" yMax="1897">
      <component glyphName="dotaccent" x="554" y="1532" flags="0x4"/>
      <component glyphName="X" x="0" y="0" flags="0x4"/>
    </TTGlyph>
    <TTGlyph name="Y" xMin="2" yMin="0" xMax="1120" yMax="1515">
      <contour>
        <pt x="680" y="701" on="1"/>
        <pt x="680" y="0" on="1"/>
        <pt x="442" y="0" on="1"/>
        <pt x="442" y="701" on="1"/>
        <pt x="2" y="1515" on="1"/>
        <pt x="254" y="1515" on="1"/>
        <pt x="561" y="942" on="1"/>
        <pt x="868" y="1515" on="1"/>
        <pt x="1120" y="1515" on="1"/>
      </contour>
    </TTGlyph>
    <TTGlyph name="Yacute" xMin="2" yMin="0" xMax="1120" yMax="2089">
      <component glyphName="acute" x="373" y="570" flags="0x4"/>
      <component glyphName="Y" x="0" y="0" flags="0x4"/>
    </TTGlyph>
    <TTGlyph name="Ycircumflex" xMin="2" yMin="0" xMax="1120" yMax="1968">
      <component glyphName="asciicircum" x="249" y="522" flags="0x4"/>
      <component glyphName="Y" x="0" y="0" flags="0x4"/>
    </TTGlyph>
    <TTGlyph name="Ydieresis" xMin="2" yMin="0" xMax="1120" yMax="1897">
      <component glyphName="dieresis" x="234" y="451" flags="0x4"/>
      <component glyphName="Y" x="0" y="0" flags="0x4"/>
    </TTGlyph>
    <TTGlyph name="Ydotaccent" xMin="2" yMin="0" xMax="1120" yMax="1897">
      <component glyphName="dotaccent" x="561" y="1532" flags="0x4"/>
      <component glyphName="Y" x="0" y="0" flags="0x4"/>
    </TTGlyph>
    <TTGlyph name="Ydotbelow" xMin="2" yMin="-272" xMax="1120" yMax="1515">
      <component glyphName="dotaccent" x="561" y="-394" flags="0x4"/>
      <component glyphName="Y" x="0" y="0" flags="0x4"/>
    </TTGlyph>
    <TTGlyph name="Ygrave" xMin="2" yMin="0" xMax="1120" yMax="2077">
      <component glyphName="grave" x="66" y="559" flags="0x4"/>
      <component glyphName="Y" x="0" y="0" flags="0x4"/>
    </TTGlyph>
    <TTGlyph name="Ymacron" xMin="2" yMin="0" xMax="1120" yMax="1775">
      <component glyphName="macron" x="208" y="423" flags="0x4"/>
      <component glyphName="Y" x="0" y="0" flags="0x4"/>
    </TTGlyph>
    <TTGlyph name="Ytilde" xMin="2" yMin="0" xMax="1120" yMax="1917">
      <component glyphName="asciitilde" x="132" y="539" flags="0x4"/>
      <component glyphName="Y" x="0" y="0" flags="0x4"/>
    </TTGlyph>
    <TTGlyph name="Z" xMin="44" yMin="0" xMax="1113" yMax="1515">
      <contour>
        <pt x="44" y="0" on="1"/>
        <pt x="44" y="136" on="1"/>
        <pt x="777" y="1308" on="1"/>
        <pt x="98" y="1308" on="1"/>
        <pt x="98" y="1515" on="1"/>
        <pt x="1096" y="1515" on="1"/>
        <pt x="1096" y="1354" on="1"/>
        <pt x="403" y="230" on="1"/>
        <pt x="1113" y="230" on="1"/>
        <pt x="1113" y="0" on="1"/>
      </contour>
    </TTGlyph>
    <TTGlyph name="Zacute" xMin="44" yMin="0" xMax="1113" yMax="2031">
      <component glyphName="acute" x="409" y="512" flags="0x4"/>
      <component glyphName="Z" x="0" y="0" flags="0x4"/>
    </TTGlyph>
    <TTGlyph name="Zcaron" xMin="44" yMin="0" xMax="1113" yMax="1997">
      <component glyphName="caron" x="285" y="522" flags="0x4"/>
      <component glyphName="Z" x="0" y="0" flags="0x4"/>
    </TTGlyph>
    <TTGlyph name="Zcircumflex" xMin="44" yMin="0" xMax="1113" yMax="1968">
      <component glyphName="asciicircum" x="277" y="522" flags="0x4"/>
      <component glyphName="Z" x="0" y="0" flags="0x4"/>
    </TTGlyph>
    <TTGlyph name="Zdotaccent" xMin="44" yMin="0" xMax="1113" yMax="1897">
      <component glyphName="dotaccent" x="595" y="1532" flags="0x4"/>
      <component glyphName="Z" x="0" y="0" flags="0x4"/>
    </TTGlyph>
    <TTGlyph name="Zdotbelow" xMin="44" yMin="-272" xMax="1113" yMax="1515">
      <component glyphName="dotaccent" x="567" y="-394" flags="0x4"/>
      <component glyphName="Z" x="0" y="0" flags="0x4"/>
    </TTGlyph>
    <TTGlyph name="Zlinebelow" xMin="44" yMin="-242" xMax="1113" yMax="1515">
      <component glyphName="macron" x="213" y="-1445" flags="0x4"/>
      <component glyphName="Z" x="0" y="0" flags="0x4"/>
    </TTGlyph>
    <TTGlyph name="a" xMin="70" yMin="-21" xMax="882" yMax="1070">
      <contour>
        <pt x="284" y="272" on="1"/>
        <pt x="284" y="213" on="0"/>
        <pt x="342" y="160" on="0"/>
        <pt x="428" y="160" on="0"/>
        <pt x="471" y="170" on="0"/>
        <pt x="492" y="180" on="1"/>
        <pt x="529" y="199" on="1"/>
        <pt x="545" y="208" on="0"/>
        <pt x="565" y="224" on="1"/>
        <pt x="594" y="247" on="1"/>
        <pt x="602" y="254" on="0"/>
        <pt x="620" y="270" on="1"/>
        <pt x="638" y="287" on="1"/>
        <pt x="638" y="534" on="1"/>
        <pt x="414" y="482" on="0"/>
        <pt x="345" y="422" on="1"/>
        <pt x="284" y="368" on="0"/>
      </contour>
      <contour>
        <pt x="668" y="0" on="1"/>
        <pt x="638" y="18" on="0"/>
        <pt x="638" y="93" on="1"/>
        <pt x="619" y="71" on="1"/>
        <pt x="533" y="-21" on="0"/>
        <pt x="373" y="-21" on="1"/>
        <pt x="179" y="-21" on="0"/>
        <pt x="107" y="116" on="1"/>
        <pt x="70" y="184" on="0"/>
        <pt x="70" y="362" on="0"/>
        <pt x="133" y="501" on="0"/>
        <pt x="204" y="554" on="1"/>
        <pt x="333" y="650" on="0"/>
        <pt x="638" y="711" on="1"/>
        <pt x="638" y="782" on="0"/>
        <pt x="629" y="814" on="0"/>
        <pt x="618" y="842" on="0"/>
        <pt x="602" y="857" on="0"/>
        <pt x="578" y="875" on="0"/>
        <pt x="562" y="879" on="1"/>
        <pt x="523" y="889" on="0"/>
        <pt x="428" y="889" on="0"/>
        <pt x="345" y="860" on="0"/>
        <pt x="296" y="824" on="0"/>
        <pt x="276" y="800" on="1"/>
        <pt x="250" y="768" on="0"/>
        <pt x="239" y="744" on="1"/>
        <pt x="99" y="830" on="1"/>
        <pt x="143" y="921" on="0"/>
        <pt x="207" y="982" on="0"/>
        <pt x="269" y="1026" on="0"/>
        <pt x="304" y="1039" on="1"/>
        <pt x="388" y="1070" on="0"/>
        <pt x="562" y="1070" on="0"/>
        <pt x="665" y="1051" on="0"/>
        <pt x="758" y="1002" on="0"/>
        <pt x="788" y="961" on="1"/>
        <pt x="852" y="872" on="0"/>
        <pt x="852" y="701" on="1"/>
        <pt x="852" y="149" on="1"/>
        <pt x="852" y="121" on="0"/>
        <pt x="873" y="19" on="0"/>
        <pt x="882" y="0" on="1"/>
      </contour>
    </TTGlyph>
    <TTGlyph name="aacute" xMin="70" yMin="-21" xMax="906" yMax="1565">
      <component glyphName="acute" x="352" y="46" flags="0x4"/>
      <component glyphName="a" x="0" y="0" flags="0x4"/>
    </TTGlyph>
    <TTGlyph name="abreve" xMin="70" yMin="-21" xMax="882" yMax="1424">
      <component glyphName="breve" x="153" y="73" flags="0x4"/>
      <component glyphName="a" x="0" y="0" flags="0x4"/>
    </TTGlyph>
    <TTGlyph name="abreveacute" xMin="70" yMin="-21" xMax="882" yMax="1909">
      <component glyphName="acute" x="230" y="390" flags="0x4"/>
      <component glyphName="breve" x="153" y="73" flags="0x4"/>
      <component glyphName="a" x="0" y="0" flags="0x4"/>
    </TTGlyph>
    <TTGlyph name="abrevedotbelow" xMin="70" yMin="-279" xMax="882" yMax="1424">
      <component glyphName="breve" x="153" y="73" flags="0x4"/>
      <component glyphName="dotaccent" x="370" y="-401" flags="0x4"/>
      <component glyphName="a" x="0" y="0" flags="0x4"/>
    </TTGlyph>
    <TTGlyph name="abrevegrave" xMin="70" yMin="-21" xMax="882" yMax="1908">
      <component glyphName="grave" x="-77" y="390" flags="0x4"/>
      <component glyphName="breve" x="153" y="73" flags="0x4"/>
      <component glyphName="a" x="0" y="0" flags="0x4"/>
    </TTGlyph>
    <TTGlyph name="abrevetilde" xMin="36" yMin="-21" xMax="882" yMax="1748">
      <component glyphName="asciitilde" x="-11" y="370" flags="0x4"/>
      <component glyphName="breve" x="153" y="73" flags="0x4"/>
      <component glyphName="a" x="0" y="0" flags="0x4"/>
    </TTGlyph>
    <TTGlyph name="acaron" xMin="70" yMin="-21" xMax="882" yMax="1531">
      <component glyphName="caron" x="106" y="56" flags="0x4"/>
      <component glyphName="a" x="0" y="0" flags="0x4"/>
    </TTGlyph>
    <TTGlyph name="acircumflex" xMin="70" yMin="-21" xMax="882" yMax="1502">
      <component glyphName="asciicircum" x="186" y="56" flags="0x4"/>
      <component glyphName="a" x="0" y="0" flags="0x4"/>
    </TTGlyph>
    <TTGlyph name="acircumflexacute" xMin="70" yMin="-21" xMax="882" yMax="2021">
      <component glyphName="acute" x="230" y="502" flags="0x4"/>
      <component glyphName="asciicircum" x="186" y="56" flags="0x4"/>
      <component glyphName="a" x="0" y="0" flags="0x4"/>
    </TTGlyph>
    <TTGlyph name="acircumflexdotbelow" xMin="70" yMin="-279" xMax="882" yMax="1502">
      <component glyphName="asciicircum" x="106" y="56" flags="0x4"/>
      <component glyphName="dotaccent" x="370" y="-401" flags="0x4"/>
      <component glyphName="a" x="0" y="0" flags="0x4"/>
    </TTGlyph>
    <TTGlyph name="acircumflexgrave" xMin="70" yMin="-21" xMax="882" yMax="2020">
      <component glyphName="grave" x="-77" y="502" flags="0x4"/>
      <component glyphName="asciicircum" x="186" y="56" flags="0x4"/>
      <component glyphName="a" x="0" y="0" flags="0x4"/>
    </TTGlyph>
    <TTGlyph name="acircumflextilde" xMin="36" yMin="-21" xMax="882" yMax="1860">
      <component glyphName="asciitilde" x="-11" y="482" flags="0x4"/>
      <component glyphName="asciicircum" x="186" y="56" flags="0x4"/>
      <component glyphName="a" x="0" y="0" flags="0x4"/>
    </TTGlyph>
    <TTGlyph name="acute" xMin="111" yMin="1095" xMax="554" yMax="1519">
      <contour>
        <pt x="554" y="1396" on="1"/>
        <pt x="198" y="1095" on="1"/>
        <pt x="111" y="1181" on="1"/>
        <pt x="438" y="1519" on="1"/>
      </contour>
    </TTGlyph>
    <TTGlyph name="acutecomb" xMin="111" yMin="1095" xMax="554" yMax="1519">
      <component glyphName="acute" x="0" y="0" flags="0x204"/>
    </TTGlyph>
    <TTGlyph name="acutetonecomb" xMin="111" yMin="1095" xMax="554" yMax="1519">
      <component glyphName="acute" x="0" y="0" flags="0x204"/>
    </TTGlyph>
    <TTGlyph name="adblgrave" xMin="70" yMin="-21" xMax="883" yMax="1611">
      <component glyphName="grave" x="286" y="93" flags="0x4"/>
      <component glyphName="grave" x="-67" y="93" flags="0x4"/>
      <component glyphName="a" x="0" y="0" flags="0x4"/>
    </TTGlyph>
    <TTGlyph name="adieresis" xMin="70" yMin="-21" xMax="882" yMax="1431">
      <component glyphName="dieresis" x="154" y="-15" flags="0x4"/>
      <component glyphName="a" x="0" y="0" flags="0x4"/>
    </TTGlyph>
    <TTGlyph name="adieresismacron" xMin="70" yMin="-21" xMax="882" yMax="1702">
      <component glyphName="macron" x="86" y="350" flags="0x4"/>
      <component glyphName="dieresis" x="154" y="-15" flags="0x4"/>
      <component glyphName="a" x="0" y="0" flags="0x4"/>
    </TTGlyph>
    <TTGlyph name="adotaccent" xMin="70" yMin="-21" xMax="882" yMax="1431">
      <component glyphName="dotaccent" x="418" y="1066" flags="0x4"/>
      <component glyphName="a" x="0" y="0" flags="0x4"/>
    </TTGlyph>
    <TTGlyph name="adotbelow" xMin="70" yMin="-279" xMax="882" yMax="1070">
      <component glyphName="dotaccent" x="370" y="-401" flags="0x4"/>
      <component glyphName="a" x="0" y="0" flags="0x4"/>
    </TTGlyph>
    <TTGlyph name="adotmacron" xMin="70" yMin="-21" xMax="882" yMax="1702">
      <component glyphName="macron" x="26" y="350" flags="0x4"/>
      <component glyphName="dotaccent" x="418" y="1066" flags="0x4"/>
      <component glyphName="a" x="0" y="0" flags="0x4"/>
    </TTGlyph>
    <TTGlyph name="ae" xMin="57" yMin="-21" xMax="1449" yMax="1073">
      <contour>
        <pt x="851" y="654" on="1"/>
        <pt x="1221" y="654" on="1"/>
        <pt x="1221" y="732" on="0"/>
        <pt x="1194" y="788" on="1"/>
        <pt x="1142" y="892" on="0"/>
        <pt x="1050" y="892" on="1"/>
        <pt x="927" y="892" on="0"/>
        <pt x="876" y="776" on="1"/>
        <pt x="851" y="718" on="0"/>
      </contour>
      <contour>
        <pt x="482" y="1070" on="1"/>
        <pt x="687" y="1070" on="0"/>
        <pt x="769" y="967" on="1"/>
        <pt x="874" y="1073" on="0"/>
        <pt x="1052" y="1073" on="1"/>
        <pt x="1249" y="1073" on="0"/>
        <pt x="1352" y="908" on="1"/>
        <pt x="1449" y="754" on="0"/>
        <pt x="1443" y="471" on="1"/>
        <pt x="841" y="471" on="1"/>
        <pt x="841" y="268" on="0"/>
        <pt x="948" y="199" on="1"/>
        <pt x="1003" y="163" on="0"/>
        <pt x="1124" y="163" on="0"/>
        <pt x="1204" y="193" on="0"/>
        <pt x="1252" y="231" on="0"/>
        <pt x="1272" y="257" on="1"/>
        <pt x="1298" y="289" on="0"/>
        <pt x="1309" y="316" on="1"/>
        <pt x="1445" y="228" on="1"/>
        <pt x="1374" y="101" on="0"/>
        <pt x="1287" y="43" on="1"/>
        <pt x="1195" y="-18" on="0"/>
        <pt x="1072" y="-18" on="1"/>
        <pt x="809" y="-18" on="0"/>
        <pt x="697" y="178" on="1"/>
        <pt x="697" y="178" on="0"/>
        <pt x="681" y="152" on="0"/>
        <pt x="674" y="143" on="1"/>
        <pt x="653" y="116" on="1"/>
        <pt x="640" y="98" on="0"/>
        <pt x="625" y="84" on="1"/>
        <pt x="590" y="54" on="1"/>
        <pt x="500" y="-21" on="0"/>
        <pt x="360" y="-21" on="1"/>
        <pt x="166" y="-21" on="0"/>
        <pt x="93" y="116" on="1"/>
        <pt x="57" y="184" on="0"/>
        <pt x="57" y="365" on="0"/>
        <pt x="118" y="506" on="0"/>
        <pt x="189" y="559" on="1"/>
        <pt x="317" y="653" on="0"/>
        <pt x="625" y="711" on="1"/>
        <pt x="625" y="782" on="0"/>
        <pt x="616" y="814" on="0"/>
        <pt x="605" y="842" on="0"/>
        <pt x="589" y="857" on="0"/>
        <pt x="565" y="875" on="0"/>
        <pt x="549" y="879" on="1"/>
        <pt x="510" y="889" on="0"/>
        <pt x="415" y="889" on="0"/>
        <pt x="332" y="860" on="0"/>
        <pt x="283" y="824" on="0"/>
        <pt x="263" y="800" on="1"/>
        <pt x="236" y="768" on="0"/>
        <pt x="226" y="744" on="1"/>
        <pt x="86" y="830" on="1"/>
        <pt x="130" y="921" on="0"/>
        <pt x="193" y="982" on="0"/>
        <pt x="256" y="1026" on="0"/>
        <pt x="291" y="1039" on="1"/>
        <pt x="375" y="1070" on="0"/>
      </contour>
      <contour>
        <pt x="271" y="288" on="1"/>
        <pt x="271" y="160" on="0"/>
        <pt x="393" y="160" on="1"/>
        <pt x="438" y="160" on="0"/>
        <pt x="500" y="191" on="0"/>
        <pt x="532" y="208" on="0"/>
        <pt x="552" y="224" on="1"/>
        <pt x="581" y="247" on="1"/>
        <pt x="589" y="254" on="0"/>
        <pt x="607" y="270" on="1"/>
        <pt x="625" y="287" on="1"/>
        <pt x="625" y="534" on="1"/>
        <pt x="401" y="482" on="0"/>
        <pt x="332" y="422" on="1"/>
        <pt x="271" y="368" on="0"/>
      </contour>
    </TTGlyph>
    <TTGlyph name="aeacute" xMin="57" yMin="-21" xMax="1449" yMax="1612">
      <component glyphName="acute" x="595" y="93" flags="0x4"/>
      <component glyphName="ae" x="0" y="0" flags="0x4"/>
    </TTGlyph>
    <TTGlyph name="aemacron" xMin="57" yMin="-21" xMax="1449" yMax="1309">
      <component glyphName="macron" x="429" y="-43" flags="0x4"/>
      <component glyphName="ae" x="0" y="0" flags="0x4"/>
    </TTGlyph>
    <TTGlyph name="agrave" xMin="70" yMin="-21" xMax="882" yMax="1619">
      <component glyphName="grave" x="14" y="101" flags="0x4"/>
      <component glyphName="a" x="0" y="0" flags="0x4"/>
    </TTGlyph>
    <TTGlyph name="ainvertedbreve" xMin="70" yMin="-21" xMax="882" yMax="1424">
      <component glyphName="breveinvertedcomb" x="153" y="73" flags="0x4"/>
      <component glyphName="a" x="0" y="0" flags="0x4"/>
    </TTGlyph>
    <TTGlyph name="amacron" xMin="70" yMin="-21" xMax="882" yMax="1309">
      <component glyphName="macron" x="64" y="-43" flags="0x4"/>
      <component glyphName="a" x="0" y="0" flags="0x4"/>
    </TTGlyph>
    <TTGlyph name="ampersand" xMin="99" yMin="-18" xMax="1327" yMax="1547">
      <contour>
        <pt x="523" y="1204" on="1"/>
        <pt x="523" y="1058" on="0"/>
        <pt x="552" y="988" on="1"/>
        <pt x="757" y="1094" on="0"/>
        <pt x="757" y="1218" on="1"/>
        <pt x="757" y="1272" on="0"/>
        <pt x="696" y="1363" on="0"/>
        <pt x="587" y="1363" on="0"/>
        <pt x="523" y="1273" on="0"/>
      </contour>
      <contour>
        <pt x="368" y="614" on="1"/>
        <pt x="313" y="550" on="0"/>
        <pt x="313" y="344" on="0"/>
        <pt x="447" y="177" on="0"/>
        <pt x="654" y="177" on="0"/>
        <pt x="768" y="217" on="0"/>
        <pt x="828" y="267" on="1"/>
        <pt x="792" y="306" on="0"/>
        <pt x="739" y="375" on="1"/>
        <pt x="483" y="720" on="1"/>
        <pt x="392" y="642" on="0"/>
      </contour>
      <contour>
        <pt x="99" y="411" on="1"/>
        <pt x="99" y="682" on="0"/>
        <pt x="393" y="882" on="1"/>
        <pt x="360" y="944" on="0"/>
        <pt x="309" y="1153" on="0"/>
        <pt x="309" y="1303" on="0"/>
        <pt x="393" y="1451" on="0"/>
        <pt x="541" y="1547" on="0"/>
        <pt x="718" y="1547" on="0"/>
        <pt x="870" y="1454" on="0"/>
        <pt x="949" y="1310" on="0"/>
        <pt x="949" y="1169" on="0"/>
        <pt x="913" y="1062" on="0"/>
        <pt x="860" y="986" on="0"/>
        <pt x="769" y="907" on="0"/>
        <pt x="730" y="882" on="1"/>
        <pt x="632" y="822" on="1"/>
        <pt x="696" y="720" on="0"/>
        <pt x="917" y="446" on="0"/>
        <pt x="960" y="408" on="1"/>
        <pt x="1028" y="543" on="0"/>
        <pt x="1021" y="735" on="1"/>
        <pt x="1235" y="735" on="1"/>
        <pt x="1235" y="473" on="0"/>
        <pt x="1083" y="270" on="1"/>
        <pt x="1147" y="228" on="0"/>
        <pt x="1280" y="232" on="1"/>
        <pt x="1313" y="233" on="0"/>
        <pt x="1327" y="233" on="1"/>
        <pt x="1327" y="0" on="1"/>
        <pt x="1169" y="0" on="0"/>
        <pt x="1103" y="21" on="0"/>
        <pt x="1074" y="33" on="1"/>
        <pt x="1023" y="54" on="0"/>
        <pt x="966" y="111" on="1"/>
        <pt x="888" y="35" on="0"/>
        <pt x="691" y="-18" on="0"/>
        <pt x="442" y="-18" on="0"/>
        <pt x="226" y="98" on="0"/>
        <pt x="99" y="296" on="0"/>
      </contour>
    </TTGlyph>
    <TTGlyph name="aogonek" xMin="70" yMin="-352" xMax="1016" yMax="1070">
      <contour>
        <pt x="891" y="-149" on="1"/>
        <pt x="891" y="-195" on="0"/>
        <pt x="1016" y="-195" on="1"/>
        <pt x="1016" y="-347" on="1"/>
        <pt x="910" y="-352" on="0"/>
        <pt x="824" y="-326" on="0"/>
        <pt x="779" y="-306" on="0"/>
        <pt x="765" y="-292" on="1"/>
        <pt x="712" y="-241" on="0"/>
        <pt x="744" y="-136" on="1"/>
        <pt x="767" y="-61" on="0"/>
        <pt x="828" y="0" on="1"/>
        <pt x="668" y="0" on="1"/>
        <pt x="638" y="18" on="0"/>
        <pt x="638" y="93" on="1"/>
        <pt x="619" y="71" on="1"/>
        <pt x="533" y="-21" on="0"/>
        <pt x="373" y="-21" on="1"/>
        <pt x="179" y="-21" on="0"/>
        <pt x="107" y="116" on="1"/>
        <pt x="70" y="184" on="0"/>
        <pt x="70" y="362" on="0"/>
        <pt x="133" y="501" on="0"/>
        <pt x="204" y="554" on="1"/>
        <pt x="333" y="650" on="0"/>
        <pt x="638" y="711" on="1"/>
        <pt x="638" y="782" on="0"/>
        <pt x="629" y="814" on="0"/>
        <pt x="618" y="842" on="0"/>
        <pt x="602" y="857" on="0"/>
        <pt x="578" y="875" on="0"/>
        <pt x="562" y="879" on="1"/>
        <pt x="523" y="889" on="0"/>
        <pt x="428" y="889" on="0"/>
        <pt x="345" y="860" on="0"/>
        <pt x="296" y="824" on="0"/>
        <pt x="276" y="800" on="1"/>
        <pt x="250" y="768" on="0"/>
        <pt x="239" y="744" on="1"/>
        <pt x="99" y="830" on="1"/>
        <pt x="143" y="921" on="0"/>
        <pt x="207" y="982" on="0"/>
        <pt x="269" y="1026" on="0"/>
        <pt x="304" y="1039" on="1"/>
        <pt x="388" y="1070" on="0"/>
        <pt x="562" y="1070" on="0"/>
        <pt x="665" y="1051" on="0"/>
        <pt x="758" y="1002" on="0"/>
        <pt x="788" y="961" on="1"/>
        <pt x="852" y="872" on="0"/>
        <pt x="852" y="701" on="1"/>
        <pt x="852" y="149" on="1"/>
        <pt x="852" y="121" on="0"/>
        <pt x="873" y="19" on="0"/>
        <pt x="882" y="0" on="1"/>
        <pt x="947" y="0" on="1"/>
        <pt x="891" y="-69" on="0"/>
      </contour>
      <contour>
        <pt x="284" y="272" on="1"/>
        <pt x="284" y="213" on="0"/>
        <pt x="342" y="160" on="0"/>
        <pt x="428" y="160" on="0"/>
        <pt x="471" y="170" on="0"/>
        <pt x="492" y="180" on="1"/>
        <pt x="529" y="199" on="1"/>
        <pt x="545" y="208" on="0"/>
        <pt x="565" y="224" on="1"/>
        <pt x="594" y="247" on="1"/>
        <pt x="602" y="254" on="0"/>
        <pt x="620" y="270" on="1"/>
        <pt x="638" y="287" on="1"/>
        <pt x="638" y="534" on="1"/>
        <pt x="414" y="482" on="0"/>
        <pt x="345" y="422" on="1"/>
        <pt x="284" y="368" on="0"/>
      </contour>
    </TTGlyph>
    <TTGlyph name="apostrophemod" xMin="44" yMin="1045" xMax="294" yMax="1538">
      <component glyphName="comma" x="0" y="1341" flags="0x4"/>
    </TTGlyph>
    <TTGlyph name="aring" xMin="70" yMin="-21" xMax="882" yMax="1699">
      <component glyphName="degree" x="114" y="171" flags="0x4"/>
      <component glyphName="a" x="0" y="0" flags="0x4"/>
    </TTGlyph>
    <TTGlyph name="aringacute" xMin="70" yMin="-21" xMax="882" yMax="2247">
      <component glyphName="acute" x="228" y="728" flags="0x4"/>
      <component glyphName="degree" x="114" y="171" flags="0x4"/>
      <component glyphName="a" x="0" y="0" flags="0x4"/>
    </TTGlyph>
    <TTGlyph name="aringbelow" xMin="70" yMin="-676" xMax="882" yMax="1070">
      <component glyphName="ring" x="401" y="-772" flags="0x4"/>
      <component glyphName="a" x="0" y="0" flags="0x4"/>
    </TTGlyph>
    <TTGlyph name="arrowheadupmod" xMin="68" yMin="1134" xMax="565" yMax="1477">
      <component glyphName="asciicircum" x="-1" y="31" flags="0x204"/>
    </TTGlyph>
    <TTGlyph name="asciicircum" xMin="69" yMin="1103" xMax="566" yMax="1446">
      <contour>
        <pt x="69" y="1198" on="1"/>
        <pt x="317" y="1446" on="1"/>
        <pt x="566" y="1197" on="1"/>
        <pt x="472" y="1105" on="1"/>
        <pt x="319" y="1258" on="1"/>
        <pt x="164" y="1103" on="1"/>
      </contour>
    </TTGlyph>
    <TTGlyph name="asciitilde" xMin="47" yMin="1112" xMax="751" yMax="1378">
      <contour>
        <pt x="751" y="1312" on="1"/>
        <pt x="680" y="1112" on="0"/>
        <pt x="528" y="1112" on="1"/>
        <pt x="444" y="1112" on="0"/>
        <pt x="313" y="1202" on="0"/>
        <pt x="234" y="1202" on="0"/>
        <pt x="194" y="1160" on="0"/>
        <pt x="177" y="1119" on="1"/>
        <pt x="47" y="1179" on="1"/>
        <pt x="70" y="1270" on="0"/>
        <pt x="203" y="1378" on="0"/>
        <pt x="313" y="1378" on="0"/>
        <pt x="391" y="1349" on="0"/>
        <pt x="415" y="1332" on="1"/>
        <pt x="479" y="1286" on="0"/>
        <pt x="527" y="1286" on="1"/>
        <pt x="565" y="1286" on="0"/>
        <pt x="582" y="1309" on="1"/>
        <pt x="604" y="1340" on="0"/>
        <pt x="617" y="1374" on="1"/>
      </contour>
    </TTGlyph>
    <TTGlyph name="asterisk" xMin="24" yMin="382" xMax="666" yMax="986">
      <contour>
        <pt x="24" y="698" on="1"/>
        <pt x="73" y="846" on="1"/>
        <pt x="272" y="783" on="1"/>
        <pt x="272" y="986" on="1"/>
        <pt x="421" y="986" on="1"/>
        <pt x="421" y="783" on="1"/>
        <pt x="619" y="847" on="1"/>
        <pt x="666" y="700" on="1"/>
        <pt x="469" y="638" on="1"/>
        <pt x="586" y="472" on="1"/>
        <pt x="468" y="382" on="1"/>
        <pt x="346" y="556" on="1"/>
        <pt x="223" y="383" on="1"/>
        <pt x="101" y="473" on="1"/>
        <pt x="225" y="640" on="1"/>
      </contour>
    </TTGlyph>
    <TTGlyph name="asteriskmath" xMin="24" yMin="382" xMax="666" yMax="986">
      <component glyphName="asterisk" x="0" y="0" flags="0x204"/>
    </TTGlyph>
    <TTGlyph name="at" xMin="66" yMin="-132" xMax="1556" yMax="1354">
      <contour>
        <pt x="650" y="592" on="1"/>
        <pt x="650" y="412" on="0"/>
        <pt x="784" y="412" on="1"/>
        <pt x="836" y="412" on="0"/>
        <pt x="942" y="500" on="0"/>
        <pt x="950" y="528" on="1"/>
        <pt x="950" y="785" on="1"/>
        <pt x="912" y="807" on="0"/>
        <pt x="866" y="807" on="1"/>
        <pt x="762" y="807" on="0"/>
        <pt x="650" y="682" on="0"/>
      </contour>
      <contour>
        <pt x="960" y="321" on="1"/>
        <pt x="886" y="230" on="0"/>
        <pt x="726" y="230" on="1"/>
        <pt x="553" y="230" on="0"/>
        <pt x="475" y="392" on="1"/>
        <pt x="436" y="472" on="0"/>
        <pt x="436" y="562" on="1"/>
        <pt x="436" y="742" on="0"/>
        <pt x="671" y="1000" on="0"/>
        <pt x="836" y="1000" on="1"/>
        <pt x="912" y="1000" on="0"/>
        <pt x="960" y="968" on="1"/>
        <pt x="976" y="1020" on="1"/>
        <pt x="1154" y="1020" on="1"/>
        <pt x="1154" y="405" on="1"/>
        <pt x="1154" y="360" on="0"/>
        <pt x="1189" y="329" on="0"/>
        <pt x="1203" y="323" on="1"/>
        <pt x="1224" y="314" on="0"/>
        <pt x="1247" y="314" on="1"/>
        <pt x="1295" y="314" on="0"/>
        <pt x="1366" y="501" on="0"/>
        <pt x="1366" y="790" on="0"/>
        <pt x="1236" y="1042" on="0"/>
        <pt x="988" y="1188" on="0"/>
        <pt x="825" y="1188" on="1"/>
        <pt x="663" y="1188" on="0"/>
        <pt x="516" y="1100" on="1"/>
        <pt x="335" y="994" on="0"/>
        <pt x="279" y="778" on="1"/>
        <pt x="258" y="698" on="0"/>
        <pt x="258" y="497" on="0"/>
        <pt x="337" y="298" on="0"/>
        <pt x="479" y="145" on="0"/>
        <pt x="696" y="54" on="0"/>
        <pt x="800" y="54" on="1"/>
        <pt x="982" y="54" on="0"/>
        <pt x="1056" y="104" on="1"/>
        <pt x="1080" y="120" on="1"/>
        <pt x="1179" y="-15" on="1"/>
        <pt x="1179" y="-26" on="0"/>
        <pt x="1097" y="-75" on="0"/>
        <pt x="1058" y="-92" on="1"/>
        <pt x="962" y="-132" on="0"/>
        <pt x="675" y="-132" on="0"/>
        <pt x="421" y="-42" on="0"/>
        <pt x="247" y="108" on="0"/>
        <pt x="185" y="206" on="1"/>
        <pt x="66" y="393" on="0"/>
        <pt x="66" y="614" on="1"/>
        <pt x="66" y="770" on="0"/>
        <pt x="159" y="1025" on="0"/>
        <pt x="310" y="1191" on="0"/>
        <pt x="410" y="1248" on="1"/>
        <pt x="597" y="1354" on="0"/>
        <pt x="1025" y="1354" on="0"/>
        <pt x="1360" y="1163" on="0"/>
        <pt x="1556" y="824" on="0"/>
        <pt x="1556" y="618" on="1"/>
        <pt x="1556" y="423" on="0"/>
        <pt x="1482" y="284" on="1"/>
        <pt x="1446" y="215" on="0"/>
        <pt x="1325" y="134" on="0"/>
        <pt x="1132" y="134" on="0"/>
        <pt x="971" y="230" on="0"/>
      </contour>
    </TTGlyph>
    <TTGlyph name="atilde" xMin="70" yMin="-21" xMax="882" yMax="1451">
      <component glyphName="asciitilde" x="88" y="73" flags="0x4"/>
      <component glyphName="a" x="0" y="0" flags="0x4"/>
    </TTGlyph>
    <TTGlyph name="aturned" xMin="34" yMin="-15" xMax="846" yMax="1075">
      <component glyphName="a" x="916" y="1055" scale="-0.999938964844" flags="0x4"/>
    </TTGlyph>
    <TTGlyph name="b" xMin="63" yMin="-18" xMax="957" yMax="1515">
      <contour>
        <pt x="521" y="892" on="1"/>
        <pt x="404" y="892" on="0"/>
        <pt x="305" y="789" on="1"/>
        <pt x="305" y="285" on="1"/>
        <pt x="306" y="284" on="0"/>
        <pt x="332" y="249" on="0"/>
        <pt x="362" y="219" on="0"/>
        <pt x="385" y="202" on="1"/>
        <pt x="435" y="163" on="0"/>
        <pt x="568" y="163" on="0"/>
        <pt x="652" y="200" on="0"/>
        <pt x="702" y="260" on="0"/>
        <pt x="717" y="306" on="1"/>
        <pt x="743" y="385" on="0"/>
        <pt x="743" y="606" on="0"/>
        <pt x="717" y="747" on="0"/>
        <pt x="676" y="828" on="0"/>
        <pt x="645" y="852" on="1"/>
        <pt x="595" y="892" on="0"/>
      </contour>
      <contour>
        <pt x="305" y="79" on="1"/>
        <pt x="297" y="0" on="0"/>
        <pt x="289" y="0" on="1"/>
        <pt x="63" y="0" on="1"/>
        <pt x="91" y="64" on="0"/>
        <pt x="91" y="143" on="1"/>
        <pt x="91" y="1515" on="1"/>
        <pt x="305" y="1515" on="1"/>
        <pt x="305" y="985" on="1"/>
        <pt x="323" y="1012" on="0"/>
        <pt x="437" y="1073" on="0"/>
        <pt x="593" y="1073" on="0"/>
        <pt x="723" y="1038" on="0"/>
        <pt x="814" y="980" on="0"/>
        <pt x="883" y="893" on="0"/>
        <pt x="923" y="799" on="0"/>
        <pt x="936" y="739" on="1"/>
        <pt x="957" y="639" on="0"/>
        <pt x="957" y="431" on="0"/>
        <pt x="927" y="284" on="0"/>
        <pt x="860" y="147" on="0"/>
        <pt x="811" y="95" on="1"/>
        <pt x="703" y="-18" on="0"/>
        <pt x="527" y="-18" on="1"/>
        <pt x="381" y="-18" on="0"/>
      </contour>
    </TTGlyph>
    <TTGlyph name="backslash" xMin="19" yMin="-95" xMax="975" yMax="1616">
      <contour>
        <pt x="975" y="-14" on="1"/>
        <pt x="804" y="-95" on="1"/>
        <pt x="19" y="1526" on="1"/>
        <pt x="213" y="1616" on="1"/>
      </contour>
    </TTGlyph>
    <TTGlyph name="backslashmath" xMin="20" yMin="-95" xMax="976" yMax="1616">
      <component glyphName="backslash" x="1" y="0" flags="0x204"/>
    </TTGlyph>
    <TTGlyph name="bar" xMin="64" yMin="-141" xMax="303" yMax="1563">
      <contour>
        <pt x="64" y="-141" on="1"/>
        <pt x="64" y="1563" on="1"/>
        <pt x="303" y="1563" on="1"/>
        <pt x="303" y="-141" on="1"/>
      </contour>
    </TTGlyph>
    <TTGlyph name="bdotaccent" xMin="64" yMin="-18" xMax="958" yMax="1607">
      <component glyphName="dotaccent" x="498" y="1242" flags="0x4"/>
      <component glyphName="b" x="1" y="0" flags="0x4"/>
    </TTGlyph>
    <TTGlyph name="bdotbelow" xMin="64" yMin="-283" xMax="958" yMax="1515">
      <component glyphName="dotaccent" x="423" y="-405" flags="0x4"/>
      <component glyphName="b" x="1" y="0" flags="0x4"/>
    </TTGlyph>
    <TTGlyph name="blinebelow" xMin="64" yMin="-253" xMax="958" yMax="1515">
      <component glyphName="macron" x="100" y="-1456" flags="0x4"/>
      <component glyphName="b" x="1" y="0" flags="0x4"/>
    </TTGlyph>
    <TTGlyph name="braceleft" xMin="123" yMin="-320" xMax="723" yMax="1670">
      <contour>
        <pt x="123" y="581" on="1"/>
        <pt x="123" y="581" on="0"/>
        <pt x="123" y="769" on="1"/>
        <pt x="237" y="770" on="0"/>
        <pt x="333" y="891" on="0"/>
        <pt x="333" y="1014" on="1"/>
        <pt x="333" y="1064" on="0"/>
        <pt x="294" y="1128" on="1"/>
        <pt x="280" y="1151" on="0"/>
        <pt x="255" y="1242" on="0"/>
        <pt x="255" y="1367" on="0"/>
        <pt x="270" y="1422" on="1"/>
        <pt x="334" y="1670" on="0"/>
        <pt x="723" y="1670" on="1"/>
        <pt x="723" y="1499" on="1"/>
        <pt x="572" y="1499" on="0"/>
        <pt x="501" y="1424" on="1"/>
        <pt x="470" y="1390" on="0"/>
        <pt x="439" y="1316" on="0"/>
        <pt x="439" y="1256" on="0"/>
        <pt x="459" y="1209" on="1"/>
        <pt x="517" y="1070" on="0"/>
        <pt x="517" y="990" on="1"/>
        <pt x="517" y="872" on="0"/>
        <pt x="389" y="694" on="0"/>
        <pt x="289" y="675" on="1"/>
        <pt x="389" y="656" on="0"/>
        <pt x="517" y="478" on="0"/>
        <pt x="517" y="280" on="0"/>
        <pt x="459" y="141" on="1"/>
        <pt x="439" y="94" on="0"/>
        <pt x="439" y="34" on="0"/>
        <pt x="455" y="-3" on="1"/>
        <pt x="515" y="-149" on="0"/>
        <pt x="723" y="-149" on="1"/>
        <pt x="723" y="-320" on="1"/>
        <pt x="518" y="-320" on="0"/>
        <pt x="405" y="-253" on="1"/>
        <pt x="352" y="-221" on="0"/>
        <pt x="284" y="-127" on="0"/>
        <pt x="255" y="-17" on="0"/>
        <pt x="255" y="159" on="0"/>
        <pt x="306" y="242" on="1"/>
        <pt x="333" y="286" on="0"/>
        <pt x="333" y="336" on="1"/>
        <pt x="333" y="459" on="0"/>
        <pt x="237" y="580" on="0"/>
      </contour>
    </TTGlyph>
    <TTGlyph name="braceright" xMin="66" yMin="-320" xMax="666" yMax="1670">
      <contour>
        <pt x="666" y="581" on="1"/>
        <pt x="553" y="580" on="0"/>
        <pt x="456" y="459" on="0"/>
        <pt x="456" y="336" on="1"/>
        <pt x="456" y="284" on="0"/>
        <pt x="483" y="241" on="1"/>
        <pt x="534" y="161" on="0"/>
        <pt x="534" y="-34" on="0"/>
        <pt x="487" y="-166" on="0"/>
        <pt x="434" y="-216" on="1"/>
        <pt x="325" y="-320" on="0"/>
        <pt x="66" y="-320" on="1"/>
        <pt x="66" y="-149" on="1"/>
        <pt x="273" y="-149" on="0"/>
        <pt x="334" y="-3" on="1"/>
        <pt x="350" y="34" on="0"/>
        <pt x="350" y="94" on="0"/>
        <pt x="330" y="140" on="1"/>
        <pt x="272" y="280" on="0"/>
        <pt x="272" y="478" on="0"/>
        <pt x="400" y="656" on="0"/>
        <pt x="500" y="675" on="1"/>
        <pt x="400" y="694" on="0"/>
        <pt x="272" y="872" on="0"/>
        <pt x="272" y="990" on="1"/>
        <pt x="272" y="1070" on="0"/>
        <pt x="330" y="1210" on="1"/>
        <pt x="350" y="1256" on="0"/>
        <pt x="350" y="1316" on="0"/>
        <pt x="319" y="1390" on="0"/>
        <pt x="288" y="1424" on="1"/>
        <pt x="218" y="1499" on="0"/>
        <pt x="66" y="1499" on="1"/>
        <pt x="66" y="1670" on="1"/>
        <pt x="432" y="1670" on="0"/>
        <pt x="510" y="1450" on="1"/>
        <pt x="534" y="1384" on="0"/>
        <pt x="534" y="1242" on="0"/>
        <pt x="510" y="1151" on="0"/>
        <pt x="495" y="1128" on="1"/>
        <pt x="456" y="1066" on="0"/>
        <pt x="456" y="1014" on="1"/>
        <pt x="456" y="891" on="0"/>
        <pt x="553" y="770" on="0"/>
        <pt x="666" y="769" on="1"/>
      </contour>
    </TTGlyph>
    <TTGlyph name="bracketleft" xMin="88" yMin="-302" xMax="566" yMax="1646">
      <contour>
        <pt x="88" y="-302" on="1"/>
        <pt x="88" y="1646" on="1"/>
        <pt x="566" y="1646" on="1"/>
        <pt x="566" y="1496" on="1"/>
        <pt x="326" y="1496" on="1"/>
        <pt x="326" y="-152" on="1"/>
        <pt x="566" y="-152" on="1"/>
        <pt x="566" y="-302" on="1"/>
      </contour>
    </TTGlyph>
    <TTGlyph name="bracketright" xMin="53" yMin="-302" xMax="531" yMax="1646">
      <contour>
        <pt x="531" y="-302" on="1"/>
        <pt x="53" y="-302" on="1"/>
        <pt x="53" y="-152" on="1"/>
        <pt x="293" y="-152" on="1"/>
        <pt x="293" y="1496" on="1"/>
        <pt x="53" y="1496" on="1"/>
        <pt x="53" y="1646" on="1"/>
        <pt x="531" y="1646" on="1"/>
      </contour>
    </TTGlyph>
    <TTGlyph name="breve" xMin="34" yMin="1115" xMax="502" yMax="1351">
      <contour>
        <pt x="34" y="1293" on="1"/>
        <pt x="137" y="1351" on="1"/>
        <pt x="156" y="1307" on="0"/>
        <pt x="229" y="1244" on="0"/>
        <pt x="308" y="1244" on="0"/>
        <pt x="380" y="1307" on="0"/>
        <pt x="399" y="1351" on="1"/>
        <pt x="502" y="1293" on="1"/>
        <pt x="476" y="1210" on="0"/>
        <pt x="339" y="1115" on="0"/>
        <pt x="197" y="1115" on="0"/>
        <pt x="60" y="1210" on="0"/>
      </contour>
    </TTGlyph>
    <TTGlyph name="breveinvertedcomb" xMin="31" yMin="1115" xMax="499" yMax="1351">
      <contour>
        <pt x="499" y="1173" on="1"/>
        <pt x="396" y="1115" on="1"/>
        <pt x="377" y="1159" on="0"/>
        <pt x="304" y="1222" on="0"/>
        <pt x="226" y="1222" on="0"/>
        <pt x="153" y="1159" on="0"/>
        <pt x="134" y="1115" on="1"/>
        <pt x="31" y="1173" on="1"/>
        <pt x="57" y="1256" on="0"/>
        <pt x="194" y="1351" on="0"/>
        <pt x="336" y="1351" on="0"/>
        <pt x="473" y="1256" on="0"/>
      </contour>
    </TTGlyph>
    <TTGlyph name="brokenbar" xMin="64" yMin="-141" xMax="303" yMax="1563">
      <contour>
        <pt x="64" y="794" on="1"/>
        <pt x="64" y="1563" on="1"/>
        <pt x="303" y="1563" on="1"/>
        <pt x="303" y="794" on="1"/>
      </contour>
      <contour>
        <pt x="64" y="-141" on="1"/>
        <pt x="64" y="620" on="1"/>
        <pt x="303" y="620" on="1"/>
        <pt x="303" y="-141" on="1"/>
      </contour>
    </TTGlyph>
    <TTGlyph name="bullet" xMin="92" yMin="513" xMax="415" yMax="836">
      <contour>
        <pt x="251" y="513" on="1"/>
        <pt x="184" y="513" on="0"/>
        <pt x="92" y="611" on="0"/>
        <pt x="92" y="740" on="0"/>
        <pt x="185" y="836" on="0"/>
        <pt x="318" y="836" on="0"/>
        <pt x="415" y="738" on="0"/>
        <pt x="415" y="612" on="0"/>
        <pt x="318" y="513" on="0"/>
      </contour>
    </TTGlyph>
    <TTGlyph name="c" xMin="59" yMin="-18" xMax="873" yMax="1073">
      <contour>
        <pt x="59" y="520" on="1"/>
        <pt x="59" y="834" on="0"/>
        <pt x="196" y="967" on="1"/>
        <pt x="304" y="1073" on="0"/>
        <pt x="693" y="1073" on="0"/>
        <pt x="803" y="909" on="1"/>
        <pt x="839" y="856" on="0"/>
        <pt x="853" y="810" on="1"/>
        <pt x="672" y="730" on="1"/>
        <pt x="664" y="812" on="0"/>
        <pt x="605" y="860" on="1"/>
        <pt x="565" y="892" on="0"/>
        <pt x="506" y="892" on="1"/>
        <pt x="273" y="892" on="0"/>
        <pt x="273" y="529" on="1"/>
        <pt x="273" y="350" on="0"/>
        <pt x="395" y="163" on="0"/>
        <pt x="512" y="163" on="1"/>
        <pt x="594" y="163" on="0"/>
        <pt x="645" y="223" on="1"/>
        <pt x="689" y="275" on="0"/>
        <pt x="709" y="334" on="1"/>
        <pt x="873" y="262" on="1"/>
        <pt x="850" y="173" on="0"/>
        <pt x="775" y="93" on="1"/>
        <pt x="670" y="-18" on="0"/>
        <pt x="506" y="-18" on="1"/>
        <pt x="59" y="-18" on="0"/>
      </contour>
    </TTGlyph>
    <TTGlyph name="cacute" xMin="59" yMin="-18" xMax="923" yMax="1565">
      <component glyphName="acute" x="369" y="46" flags="0x4"/>
      <component glyphName="c" x="0" y="0" flags="0x4"/>
    </TTGlyph>
    <TTGlyph name="candrabinducomb" xMin="37" yMin="1115" xMax="505" yMax="1676">
      <component glyphName="dotaccent" x="270" y="1311" flags="0x4"/>
      <component glyphName="breve" x="3" y="0" flags="0x4"/>
    </TTGlyph>
    <TTGlyph name="caron" xMin="69" yMin="1132" xMax="566" yMax="1475">
      <contour>
        <pt x="566" y="1380" on="1"/>
        <pt x="318" y="1132" on="1"/>
        <pt x="69" y="1381" on="1"/>
        <pt x="163" y="1473" on="1"/>
        <pt x="316" y="1320" on="1"/>
        <pt x="471" y="1475" on="1"/>
      </contour>
    </TTGlyph>
    <TTGlyph name="caroncomb" xMin="76" yMin="1132" xMax="573" yMax="1475">
      <component glyphName="caron" x="7" y="0" flags="0x4"/>
    </TTGlyph>
    <TTGlyph name="ccaron" xMin="59" yMin="-18" xMax="873" yMax="1531">
      <component glyphName="caron" x="193" y="56" flags="0x4"/>
      <component glyphName="c" x="0" y="0" flags="0x4"/>
    </TTGlyph>
    <TTGlyph name="ccedilla" xMin="59" yMin="-359" xMax="873" yMax="1073">
      <contour>
        <pt x="59" y="520" on="1"/>
        <pt x="59" y="834" on="0"/>
        <pt x="196" y="967" on="1"/>
        <pt x="304" y="1073" on="0"/>
        <pt x="693" y="1073" on="0"/>
        <pt x="803" y="909" on="1"/>
        <pt x="839" y="856" on="0"/>
        <pt x="853" y="810" on="1"/>
        <pt x="672" y="730" on="1"/>
        <pt x="664" y="812" on="0"/>
        <pt x="605" y="860" on="1"/>
        <pt x="565" y="892" on="0"/>
        <pt x="506" y="892" on="1"/>
        <pt x="273" y="892" on="0"/>
        <pt x="273" y="529" on="1"/>
        <pt x="273" y="350" on="0"/>
        <pt x="395" y="163" on="0"/>
        <pt x="512" y="163" on="1"/>
        <pt x="594" y="163" on="0"/>
        <pt x="645" y="223" on="1"/>
        <pt x="689" y="275" on="0"/>
        <pt x="709" y="334" on="1"/>
        <pt x="873" y="262" on="1"/>
        <pt x="850" y="173" on="0"/>
        <pt x="775" y="93" on="1"/>
        <pt x="692" y="5" on="0"/>
        <pt x="573" y="-13" on="1"/>
        <pt x="663" y="-107" on="0"/>
        <pt x="662" y="-221" on="1"/>
        <pt x="662" y="-305" on="0"/>
        <pt x="551" y="-339" on="1"/>
        <pt x="485" y="-359" on="0"/>
        <pt x="378" y="-353" on="1"/>
        <pt x="378" y="-201" on="1"/>
        <pt x="504" y="-201" on="0"/>
        <pt x="504" y="-155" on="1"/>
        <pt x="504" y="-81" on="0"/>
        <pt x="455" y="-16" on="1"/>
        <pt x="59" y="14" on="0"/>
      </contour>
    </TTGlyph>
    <TTGlyph name="ccedillaacute" xMin="59" yMin="-359" xMax="873" yMax="1612">
      <component glyphName="acute" x="317" y="93" flags="0x4"/>
      <component glyphName="ccedilla" x="0" y="0" flags="0x4"/>
    </TTGlyph>
    <TTGlyph name="ccircumflex" xMin="59" yMin="-18" xMax="873" yMax="1502">
      <component glyphName="asciicircum" x="193" y="56" flags="0x4"/>
      <component glyphName="c" x="0" y="0" flags="0x4"/>
    </TTGlyph>
    <TTGlyph name="cdotaccent" xMin="59" yMin="-18" xMax="873" yMax="1431">
      <component glyphName="dotaccent" x="505" y="1066" flags="0x4"/>
      <component glyphName="c" x="0" y="0" flags="0x4"/>
    </TTGlyph>
    <TTGlyph name="cedilla" xMin="6" yMin="-352" xMax="290" yMax="0">
      <contour>
        <pt x="194" y="0" on="1"/>
        <pt x="290" y="-96" on="0"/>
        <pt x="290" y="-215" on="1"/>
        <pt x="290" y="-298" on="0"/>
        <pt x="178" y="-332" on="1"/>
        <pt x="112" y="-352" on="0"/>
        <pt x="6" y="-347" on="1"/>
        <pt x="6" y="-195" on="1"/>
        <pt x="131" y="-195" on="0"/>
        <pt x="131" y="-149" on="1"/>
        <pt x="131" y="-69" on="0"/>
        <pt x="75" y="0" on="1"/>
      </contour>
    </TTGlyph>
    <TTGlyph name="cedillacomb" xMin="7" yMin="-352" xMax="291" yMax="0">
      <component glyphName="cedilla" x="1" y="0" flags="0x204"/>
    </TTGlyph>
    <TTGlyph name="cent" xMin="99" yMin="-241" xMax="912" yMax="1286">
      <contour>
        <pt x="419" y="183" on="1"/>
        <pt x="419" y="874" on="1"/>
        <pt x="353" y="845" on="0"/>
        <pt x="313" y="675" on="0"/>
        <pt x="313" y="372" on="0"/>
        <pt x="352" y="208" on="0"/>
      </contour>
      <contour>
        <pt x="215" y="948" on="1"/>
        <pt x="288" y="1047" on="0"/>
        <pt x="419" y="1063" on="1"/>
        <pt x="419" y="1286" on="1"/>
        <pt x="633" y="1286" on="1"/>
        <pt x="633" y="1068" on="1"/>
        <pt x="695" y="1055" on="0"/>
        <pt x="794" y="985" on="0"/>
        <pt x="820" y="943" on="1"/>
        <pt x="876" y="856" on="0"/>
        <pt x="887" y="796" on="1"/>
        <pt x="892" y="769" on="1"/>
        <pt x="720" y="729" on="1"/>
        <pt x="720" y="796" on="0"/>
        <pt x="674" y="851" on="1"/>
        <pt x="657" y="872" on="0"/>
        <pt x="633" y="884" on="1"/>
        <pt x="633" y="173" on="1"/>
        <pt x="674" y="191" on="0"/>
        <pt x="735" y="276" on="0"/>
        <pt x="744" y="310" on="1"/>
        <pt x="754" y="343" on="1"/>
        <pt x="912" y="286" on="1"/>
        <pt x="904" y="258" on="1"/>
        <pt x="859" y="117" on="0"/>
        <pt x="744" y="36" on="1"/>
        <pt x="693" y="-1" on="0"/>
        <pt x="633" y="-13" on="1"/>
        <pt x="633" y="-241" on="1"/>
        <pt x="419" y="-241" on="1"/>
        <pt x="419" y="-8" on="1"/>
        <pt x="287" y="8" on="0"/>
        <pt x="214" y="111" on="1"/>
        <pt x="142" y="211" on="0"/>
        <pt x="120" y="323" on="1"/>
        <pt x="99" y="433" on="0"/>
        <pt x="99" y="571" on="0"/>
        <pt x="109" y="673" on="0"/>
        <pt x="133" y="795" on="0"/>
        <pt x="181" y="901" on="0"/>
      </contour>
    </TTGlyph>
    <TTGlyph name="circumflex" xMin="68" yMin="1134" xMax="565" yMax="1477">
      <component glyphName="asciicircum" x="-1" y="31" flags="0x204"/>
    </TTGlyph>
    <TTGlyph name="circumflexcomb" xMin="69" yMin="1103" xMax="566" yMax="1446">
      <component glyphName="asciicircum" x="0" y="0" flags="0x204"/>
    </TTGlyph>
    <TTGlyph name="colon" xMin="50" yMin="0" xMax="294" yMax="1055">
      <contour>
        <pt x="50" y="812" on="1"/>
        <pt x="50" y="1055" on="1"/>
        <pt x="294" y="1055" on="1"/>
        <pt x="294" y="812" on="1"/>
      </contour>
      <contour>
        <pt x="50" y="0" on="1"/>
        <pt x="50" y="243" on="1"/>
        <pt x="294" y="243" on="1"/>
        <pt x="294" y="0" on="1"/>
      </contour>
    </TTGlyph>
    <TTGlyph name="comma" xMin="44" yMin="-296" xMax="294" yMax="197">
      <contour>
        <pt x="44" y="-296" on="1"/>
        <pt x="124" y="-46" on="1"/>
        <pt x="50" y="-46" on="1"/>
        <pt x="50" y="197" on="1"/>
        <pt x="294" y="197" on="1"/>
        <pt x="294" y="0" on="1"/>
        <pt x="142" y="-296" on="1"/>
      </contour>
    </TTGlyph>
    <TTGlyph name="commaabovecomb" xMin="48" yMin="1060" xMax="298" yMax="1553">
      <component glyphName="comma" x="4" y="1356" flags="0x4"/>
    </TTGlyph>
    <TTGlyph name="commaaboverightcomb" xMin="73" yMin="1060" xMax="323" yMax="1553">
      <component glyphName="comma" x="29" y="1356" flags="0x4"/>
    </TTGlyph>
    <TTGlyph name="commaturnedabovecomb" xMin="20" yMin="1059" xMax="270" yMax="1551">
      <component glyphName="comma" x="314" y="1256" scale="-0.999938964844" flags="0x4"/>
    </TTGlyph>
    <TTGlyph name="copyright" xMin="59" yMin="252" xMax="1039" yMax="1232">
      <contour>
        <pt x="757" y="639" on="1"/>
        <pt x="707" y="450" on="0"/>
        <pt x="555" y="450" on="1"/>
        <pt x="483" y="450" on="0"/>
        <pt x="432" y="492" on="1"/>
        <pt x="333" y="571" on="0"/>
        <pt x="333" y="742" on="1"/>
        <pt x="333" y="859" on="0"/>
        <pt x="387" y="943" on="1"/>
        <pt x="444" y="1033" on="0"/>
        <pt x="555" y="1033" on="1"/>
        <pt x="669" y="1033" on="0"/>
        <pt x="722" y="919" on="1"/>
        <pt x="739" y="881" on="0"/>
        <pt x="745" y="851" on="1"/>
        <pt x="656" y="830" on="1"/>
        <pt x="644" y="902" on="0"/>
        <pt x="598" y="933" on="1"/>
        <pt x="577" y="947" on="0"/>
        <pt x="516" y="947" on="0"/>
        <pt x="491" y="917" on="1"/>
        <pt x="444" y="861" on="0"/>
        <pt x="444" y="742" on="1"/>
        <pt x="444" y="536" on="0"/>
        <pt x="556" y="536" on="1"/>
        <pt x="622" y="536" on="0"/>
        <pt x="655" y="619" on="1"/>
        <pt x="662" y="637" on="0"/>
        <pt x="663" y="651" on="1"/>
      </contour>
      <contour>
        <pt x="98" y="552" on="1"/>
        <pt x="59" y="643" on="0"/>
        <pt x="59" y="841" on="0"/>
        <pt x="137" y="1023" on="0"/>
        <pt x="269" y="1154" on="0"/>
        <pt x="450" y="1232" on="0"/>
        <pt x="649" y="1232" on="0"/>
        <pt x="830" y="1154" on="0"/>
        <pt x="962" y="1023" on="0"/>
        <pt x="1039" y="841" on="0"/>
        <pt x="1039" y="643" on="0"/>
        <pt x="962" y="461" on="0"/>
        <pt x="830" y="330" on="0"/>
        <pt x="649" y="252" on="0"/>
        <pt x="450" y="252" on="0"/>
        <pt x="269" y="330" on="0"/>
        <pt x="137" y="461" on="0"/>
      </contour>
      <contour>
        <pt x="215" y="938" on="1"/>
        <pt x="164" y="849" on="0"/>
        <pt x="164" y="639" on="0"/>
        <pt x="267" y="461" on="0"/>
        <pt x="445" y="358" on="0"/>
        <pt x="654" y="358" on="0"/>
        <pt x="832" y="461" on="0"/>
        <pt x="935" y="639" on="0"/>
        <pt x="935" y="849" on="0"/>
        <pt x="832" y="1027" on="0"/>
        <pt x="654" y="1130" on="0"/>
        <pt x="445" y="1130" on="0"/>
        <pt x="267" y="1027" on="0"/>
      </contour>
    </TTGlyph>
    <TTGlyph name="cturn" xMin="47" yMin="-18" xMax="861" yMax="1072">
      <component glyphName="c" x="920" y="1055" scale="-0.999938964844" flags="0x4"/>
    </TTGlyph>
    <TTGlyph name="currency" xMin="45" yMin="399" xMax="735" yMax="1090">
      <contour>
        <pt x="296" y="842" on="1"/>
        <pt x="256" y="802" on="0"/>
        <pt x="256" y="688" on="0"/>
        <pt x="336" y="608" on="0"/>
        <pt x="450" y="608" on="0"/>
        <pt x="530" y="688" on="0"/>
        <pt x="530" y="802" on="0"/>
        <pt x="450" y="882" on="0"/>
        <pt x="336" y="882" on="0"/>
      </contour>
      <contour>
        <pt x="147" y="596" on="1"/>
        <pt x="106" y="662" on="0"/>
        <pt x="106" y="745" on="1"/>
        <pt x="106" y="827" on="0"/>
        <pt x="147" y="893" on="1"/>
        <pt x="45" y="995" on="1"/>
        <pt x="138" y="1088" on="1"/>
        <pt x="239" y="987" on="1"/>
        <pt x="307" y="1032" on="0"/>
        <pt x="393" y="1032" on="1"/>
        <pt x="476" y="1032" on="0"/>
        <pt x="541" y="991" on="1"/>
        <pt x="640" y="1090" on="1"/>
        <pt x="735" y="995" on="1"/>
        <pt x="637" y="897" on="1"/>
        <pt x="680" y="830" on="0"/>
        <pt x="680" y="745" on="1"/>
        <pt x="680" y="658" on="0"/>
        <pt x="635" y="590" on="1"/>
        <pt x="733" y="492" on="1"/>
        <pt x="640" y="399" on="1"/>
        <pt x="541" y="498" on="1"/>
        <pt x="475" y="458" on="0"/>
        <pt x="393" y="458" on="1"/>
        <pt x="309" y="458" on="0"/>
        <pt x="242" y="501" on="1"/>
        <pt x="140" y="399" on="1"/>
        <pt x="45" y="494" on="1"/>
      </contour>
    </TTGlyph>
    <TTGlyph name="d" xMin="59" yMin="-18" xMax="953" yMax="1515">
      <contour>
        <pt x="711" y="789" on="1"/>
        <pt x="612" y="892" on="0"/>
        <pt x="495" y="892" on="1"/>
        <pt x="373" y="892" on="0"/>
        <pt x="320" y="787" on="1"/>
        <pt x="273" y="695" on="0"/>
        <pt x="273" y="511" on="1"/>
        <pt x="273" y="308" on="0"/>
        <pt x="339" y="230" on="1"/>
        <pt x="395" y="163" on="0"/>
        <pt x="505" y="163" on="1"/>
        <pt x="621" y="163" on="0"/>
        <pt x="697" y="266" on="1"/>
        <pt x="710" y="284" on="0"/>
        <pt x="711" y="285" on="1"/>
      </contour>
      <contour>
        <pt x="925" y="143" on="1"/>
        <pt x="925" y="73" on="0"/>
        <pt x="953" y="0" on="1"/>
        <pt x="727" y="0" on="1"/>
        <pt x="724" y="5" on="0"/>
        <pt x="721" y="14" on="1"/>
        <pt x="711" y="79" on="1"/>
        <pt x="635" y="-18" on="0"/>
        <pt x="489" y="-18" on="1"/>
        <pt x="237" y="-18" on="0"/>
        <pt x="123" y="215" on="1"/>
        <pt x="59" y="345" on="0"/>
        <pt x="59" y="508" on="1"/>
        <pt x="59" y="889" on="0"/>
        <pt x="247" y="1009" on="1"/>
        <pt x="347" y="1073" on="0"/>
        <pt x="503" y="1073" on="1"/>
        <pt x="580" y="1073" on="0"/>
        <pt x="693" y="1012" on="0"/>
        <pt x="711" y="985" on="1"/>
        <pt x="711" y="1515" on="1"/>
        <pt x="925" y="1515" on="1"/>
      </contour>
    </TTGlyph>
    <TTGlyph name="dagger" xMin="36" yMin="-132" xMax="804" yMax="1515">
      <contour>
        <pt x="36" y="995" on="1"/>
        <pt x="36" y="1127" on="1"/>
        <pt x="365" y="1107" on="1"/>
        <pt x="348" y="1515" on="1"/>
        <pt x="492" y="1515" on="1"/>
        <pt x="475" y="1107" on="1"/>
        <pt x="804" y="1127" on="1"/>
        <pt x="804" y="995" on="1"/>
        <pt x="475" y="1015" on="1"/>
        <pt x="508" y="-132" on="1"/>
        <pt x="332" y="-132" on="1"/>
        <pt x="365" y="1015" on="1"/>
      </contour>
    </TTGlyph>
    <TTGlyph name="daggerdbl" xMin="36" yMin="-132" xMax="804" yMax="1515">
      <contour>
        <pt x="365" y="1015" on="1"/>
        <pt x="36" y="995" on="1"/>
        <pt x="36" y="1127" on="1"/>
        <pt x="365" y="1107" on="1"/>
        <pt x="348" y="1515" on="1"/>
        <pt x="492" y="1515" on="1"/>
        <pt x="475" y="1107" on="1"/>
        <pt x="804" y="1127" on="1"/>
        <pt x="804" y="995" on="1"/>
        <pt x="475" y="1015" on="1"/>
        <pt x="475" y="368" on="1"/>
        <pt x="804" y="388" on="1"/>
        <pt x="804" y="256" on="1"/>
        <pt x="475" y="276" on="1"/>
        <pt x="492" y="-132" on="1"/>
        <pt x="348" y="-132" on="1"/>
        <pt x="365" y="276" on="1"/>
        <pt x="36" y="256" on="1"/>
        <pt x="36" y="388" on="1"/>
        <pt x="365" y="368" on="1"/>
      </contour>
    </TTGlyph>
    <TTGlyph name="dblgravecomb" xMin="169" yMin="1094" xMax="965" yMax="1518">
      <component glyphName="grave" x="368" y="0" flags="0x4"/>
      <component glyphName="grave" x="15" y="0" flags="0x4"/>
    </TTGlyph>
    <TTGlyph name="dblprimemod" xMin="23" yMin="1045" xMax="584" yMax="1538">
      <component glyphName="comma" x="290" y="1341" flags="0x4"/>
      <component glyphName="comma" x="-21" y="1341" flags="0x4"/>
    </TTGlyph>
    <TTGlyph name="dblverticalbar" xMin="71" yMin="-141" xMax="658" yMax="1563">
      <component glyphName="bar" x="355" y="0" flags="0x4"/>
      <component glyphName="bar" x="7" y="0" flags="0x4"/>
    </TTGlyph>
    <TTGlyph name="dblverticallineabovecomb" xMin="23" yMin="1045" xMax="584" yMax="1538">
      <component glyphName="comma" x="290" y="1341" flags="0x4"/>
      <component glyphName="comma" x="-21" y="1341" flags="0x4"/>
    </TTGlyph>
    <TTGlyph name="dcaron" xMin="65" yMin="-18" xMax="1249" yMax="1561">
      <component glyphName="comma" x="955" y="1364" flags="0x4"/>
      <component glyphName="d" x="6" y="0" flags="0x4"/>
    </TTGlyph>
    <TTGlyph name="dcedilla" xMin="59" yMin="-358" xMax="953" yMax="1515">
      <component glyphName="cedilla" x="355" y="-6" flags="0x4"/>
      <component glyphName="d" x="0" y="0" flags="0x4"/>
    </TTGlyph>
    <TTGlyph name="dcircumflexbelow" xMin="59" yMin="-449" xMax="953" yMax="1515">
      <component glyphName="asciicircum" x="113" y="-1552" flags="0x4"/>
      <component glyphName="d" x="0" y="0" flags="0x4"/>
    </TTGlyph>
    <TTGlyph name="ddotaccent" xMin="59" yMin="-18" xMax="953" yMax="1604">
      <component glyphName="dotaccent" x="455" y="1239" flags="0x4"/>
      <component glyphName="d" x="0" y="0" flags="0x4"/>
    </TTGlyph>
    <TTGlyph name="ddotbelow" xMin="59" yMin="-283" xMax="953" yMax="1515">
      <component glyphName="dotaccent" x="497" y="-405" flags="0x4"/>
      <component glyphName="d" x="0" y="0" flags="0x4"/>
    </TTGlyph>
    <TTGlyph name="degree" xMin="112" yMin="954" xMax="686" yMax="1528">
      <contour>
        <pt x="302" y="1338" on="1"/>
        <pt x="262" y="1298" on="0"/>
        <pt x="262" y="1184" on="0"/>
        <pt x="342" y="1104" on="0"/>
        <pt x="456" y="1104" on="0"/>
        <pt x="536" y="1184" on="0"/>
        <pt x="536" y="1298" on="0"/>
        <pt x="456" y="1378" on="0"/>
        <pt x="342" y="1378" on="0"/>
      </contour>
      <contour>
        <pt x="196" y="1038" on="1"/>
        <pt x="112" y="1122" on="0"/>
        <pt x="112" y="1360" on="0"/>
        <pt x="281" y="1528" on="0"/>
        <pt x="518" y="1528" on="0"/>
        <pt x="686" y="1360" on="0"/>
        <pt x="686" y="1122" on="0"/>
        <pt x="518" y="954" on="0"/>
        <pt x="281" y="954" on="0"/>
      </contour>
    </TTGlyph>
    <TTGlyph name="diaeresiscomb" xMin="16" yMin="1203" xMax="638" yMax="1446">
      <component glyphName="dieresis" x="0" y="0" flags="0x204"/>
    </TTGlyph>
    <TTGlyph name="dialytikatonoscomb" xMin="16" yMin="1203" xMax="692" yMax="1899">
      <component glyphName="acute" x="138" y="380" flags="0x4"/>
      <component glyphName="dieresis" x="0" y="0" flags="0x4"/>
    </TTGlyph>
    <TTGlyph name="dieresis" xMin="16" yMin="1203" xMax="638" yMax="1446">
      <contour>
        <pt x="396" y="1203" on="1"/>
        <pt x="396" y="1446" on="1"/>
        <pt x="638" y="1446" on="1"/>
        <pt x="638" y="1203" on="1"/>
      </contour>
      <contour>
        <pt x="16" y="1203" on="1"/>
        <pt x="16" y="1446" on="1"/>
        <pt x="258" y="1446" on="1"/>
        <pt x="258" y="1203" on="1"/>
      </contour>
    </TTGlyph>
    <TTGlyph name="dieresisbelowcomb" xMin="16" yMin="-237" xMax="638" yMax="6">
      <component glyphName="dieresis" x="0" y="-1440" flags="0x204"/>
    </TTGlyph>
    <TTGlyph name="divide" xMin="31" yMin="250" xMax="872" yMax="1228">
      <contour>
        <pt x="31" y="633" on="1"/>
        <pt x="31" y="848" on="1"/>
        <pt x="872" y="848" on="1"/>
        <pt x="872" y="633" on="1"/>
      </contour>
      <contour>
        <pt x="331" y="250" on="1"/>
        <pt x="331" y="494" on="1"/>
        <pt x="575" y="494" on="1"/>
        <pt x="575" y="250" on="1"/>
      </contour>
      <contour>
        <pt x="333" y="984" on="1"/>
        <pt x="333" y="1228" on="1"/>
        <pt x="577" y="1228" on="1"/>
        <pt x="577" y="984" on="1"/>
      </contour>
    </TTGlyph>
    <TTGlyph name="divides" xMin="65" yMin="-141" xMax="304" yMax="1563">
      <component glyphName="bar" x="1" y="0" flags="0x204"/>
    </TTGlyph>
    <TTGlyph name="dlinebelow" xMin="59" yMin="-253" xMax="953" yMax="1515">
      <component glyphName="macron" x="135" y="-1456" flags="0x4"/>
      <component glyphName="d" x="0" y="0" flags="0x4"/>
    </TTGlyph>
    <TTGlyph name="dollar" xMin="149" yMin="-219" xMax="1105" yMax="1565">
      <contour>
        <pt x="718" y="185" on="1"/>
        <pt x="865" y="207" on="0"/>
        <pt x="865" y="398" on="1"/>
        <pt x="865" y="499" on="0"/>
        <pt x="805" y="603" on="0"/>
        <pt x="718" y="636" on="1"/>
      </contour>
      <contour>
        <pt x="375" y="1127" on="1"/>
        <pt x="375" y="1061" on="0"/>
        <pt x="419" y="973" on="0"/>
        <pt x="478" y="948" on="1"/>
        <pt x="478" y="1314" on="1"/>
        <pt x="375" y="1270" on="0"/>
      </contour>
      <contour>
        <pt x="478" y="1518" on="1"/>
        <pt x="478" y="1565" on="1"/>
        <pt x="718" y="1565" on="1"/>
        <pt x="718" y="1521" on="1"/>
        <pt x="872" y="1488" on="0"/>
        <pt x="962" y="1371" on="1"/>
        <pt x="996" y="1326" on="0"/>
        <pt x="1011" y="1297" on="1"/>
        <pt x="1027" y="1266" on="1"/>
        <pt x="856" y="1176" on="1"/>
        <pt x="823" y="1264" on="0"/>
        <pt x="718" y="1317" on="1"/>
        <pt x="718" y="868" on="1"/>
        <pt x="773" y="847" on="1"/>
        <pt x="925" y="787" on="0"/>
        <pt x="996" y="707" on="1"/>
        <pt x="1051" y="643" on="0"/>
        <pt x="1070" y="593" on="1"/>
        <pt x="1105" y="495" on="0"/>
        <pt x="1105" y="347" on="0"/>
        <pt x="1079" y="240" on="0"/>
        <pt x="1018" y="129" on="0"/>
        <pt x="975" y="86" on="1"/>
        <pt x="876" y="-14" on="0"/>
        <pt x="718" y="-16" on="1"/>
        <pt x="718" y="-219" on="1"/>
        <pt x="478" y="-219" on="1"/>
        <pt x="478" y="5" on="1"/>
        <pt x="311" y="48" on="0"/>
        <pt x="205" y="176" on="1"/>
        <pt x="180" y="206" on="0"/>
        <pt x="157" y="243" on="0"/>
        <pt x="157" y="243" on="1"/>
        <pt x="319" y="348" on="1"/>
        <pt x="319" y="348" on="0"/>
        <pt x="330" y="323" on="0"/>
        <pt x="353" y="283" on="0"/>
        <pt x="370" y="262" on="1"/>
        <pt x="410" y="211" on="0"/>
        <pt x="478" y="189" on="1"/>
        <pt x="478" y="716" on="1"/>
        <pt x="396" y="734" on="0"/>
        <pt x="269" y="828" on="0"/>
        <pt x="197" y="916" on="0"/>
        <pt x="149" y="1049" on="0"/>
        <pt x="149" y="1212" on="0"/>
        <pt x="223" y="1369" on="0"/>
        <pt x="374" y="1492" on="0"/>
      </contour>
    </TTGlyph>
    <TTGlyph name="dotaccent" xMin="-132" yMin="122" xMax="112" yMax="365">
      <contour>
        <pt x="-132" y="122" on="1"/>
        <pt x="-132" y="365" on="1"/>
        <pt x="112" y="365" on="1"/>
        <pt x="112" y="122" on="1"/>
      </contour>
    </TTGlyph>
    <TTGlyph name="dotbelowcomb" xMin="51" yMin="-261" xMax="295" yMax="-18">
      <component glyphName="period" x="1" y="-261" flags="0x4"/>
    </TTGlyph>
    <TTGlyph name="dotlessi" xMin="96" yMin="0" xMax="310" yMax="1055">
      <contour>
        <pt x="96" y="0" on="1"/>
        <pt x="96" y="1055" on="1"/>
        <pt x="310" y="1055" on="1"/>
        <pt x="310" y="0" on="1"/>
      </contour>
    </TTGlyph>
    <TTGlyph name="dz" xMin="65" yMin="-18" xMax="1780" yMax="1515">
      <component glyphName="z" x="990" y="0" flags="0x4"/>
      <component glyphName="d" x="6" y="0" flags="0x4"/>
    </TTGlyph>
    <TTGlyph name="dzcaron" xMin="65" yMin="-18" xMax="1780" yMax="1531">
      <component glyphName="caron" x="1092" y="56" flags="0x4"/>
      <component glyphName="z" x="990" y="0" flags="0x4"/>
      <component glyphName="d" x="6" y="0" flags="0x4"/>
    </TTGlyph>
    <TTGlyph name="e" xMin="59" yMin="-18" xMax="880" yMax="1073">
      <contour>
        <pt x="283" y="652" on="1"/>
        <pt x="653" y="652" on="1"/>
        <pt x="653" y="730" on="0"/>
        <pt x="626" y="787" on="1"/>
        <pt x="574" y="892" on="0"/>
        <pt x="482" y="892" on="1"/>
        <pt x="427" y="892" on="0"/>
        <pt x="344" y="843" on="0"/>
        <pt x="323" y="804" on="1"/>
        <pt x="283" y="731" on="0"/>
      </contour>
      <contour>
        <pt x="251" y="1008" on="1"/>
        <pt x="350" y="1073" on="0"/>
        <pt x="484" y="1073" on="1"/>
        <pt x="610" y="1073" on="0"/>
        <pt x="704" y="998" on="1"/>
        <pt x="880" y="856" on="0"/>
        <pt x="872" y="471" on="1"/>
        <pt x="273" y="471" on="1"/>
        <pt x="273" y="269" on="0"/>
        <pt x="380" y="199" on="1"/>
        <pt x="435" y="163" on="0"/>
        <pt x="556" y="163" on="0"/>
        <pt x="636" y="193" on="0"/>
        <pt x="684" y="231" on="0"/>
        <pt x="704" y="256" on="1"/>
        <pt x="731" y="291" on="0"/>
        <pt x="741" y="316" on="1"/>
        <pt x="877" y="228" on="1"/>
        <pt x="803" y="99" on="0"/>
        <pt x="719" y="44" on="1"/>
        <pt x="626" y="-18" on="0"/>
        <pt x="403" y="-18" on="0"/>
        <pt x="246" y="40" on="0"/>
        <pt x="147" y="136" on="0"/>
        <pt x="84" y="273" on="0"/>
        <pt x="59" y="418" on="0"/>
        <pt x="59" y="639" on="0"/>
        <pt x="111" y="847" on="0"/>
        <pt x="193" y="970" on="0"/>
      </contour>
    </TTGlyph>
    <TTGlyph name="eacute" xMin="59" yMin="-18" xMax="880" yMax="1619">
      <component glyphName="acute" x="296" y="100" flags="0x4"/>
      <component glyphName="e" x="0" y="0" flags="0x4"/>
    </TTGlyph>
    <TTGlyph name="ebreve" xMin="59" yMin="-18" xMax="880" yMax="1424">
      <component glyphName="breve" x="215" y="73" flags="0x4"/>
      <component glyphName="e" x="0" y="0" flags="0x4"/>
    </TTGlyph>
    <TTGlyph name="ecaron" xMin="59" yMin="-18" xMax="880" yMax="1531">
      <component glyphName="caron" x="168" y="56" flags="0x4"/>
      <component glyphName="e" x="0" y="0" flags="0x4"/>
    </TTGlyph>
    <TTGlyph name="ecedillabreve" xMin="75" yMin="-314" xMax="844" yMax="1431">
      <contour>
        <pt x="213" y="625" on="1"/>
        <pt x="709" y="625" on="1"/>
        <pt x="709" y="774" on="0"/>
        <pt x="640" y="872" on="1"/>
        <pt x="582" y="954" on="0"/>
        <pt x="475" y="954" on="1"/>
        <pt x="300" y="954" on="0"/>
        <pt x="241" y="792" on="1"/>
        <pt x="213" y="716" on="0"/>
      </contour>
      <contour>
        <pt x="372" y="-219" on="1"/>
        <pt x="461" y="-219" on="0"/>
        <pt x="520" y="-187" on="0"/>
        <pt x="520" y="-172" on="1"/>
        <pt x="520" y="-97" on="0"/>
        <pt x="449" y="-9" on="1"/>
        <pt x="356" y="-1" on="0"/>
        <pt x="210" y="91" on="0"/>
        <pt x="166" y="162" on="1"/>
        <pt x="75" y="308" on="0"/>
        <pt x="75" y="502" on="1"/>
        <pt x="75" y="931" on="0"/>
        <pt x="326" y="1036" on="1"/>
        <pt x="397" y="1066" on="0"/>
        <pt x="525" y="1066" on="0"/>
        <pt x="615" y="1043" on="0"/>
        <pt x="718" y="972" on="0"/>
        <pt x="755" y="914" on="1"/>
        <pt x="841" y="778" on="0"/>
        <pt x="841" y="513" on="1"/>
        <pt x="207" y="513" on="1"/>
        <pt x="207" y="246" on="0"/>
        <pt x="342" y="149" on="1"/>
        <pt x="409" y="101" on="0"/>
        <pt x="491" y="101" on="1"/>
        <pt x="645" y="101" on="0"/>
        <pt x="753" y="292" on="1"/>
        <pt x="844" y="229" on="1"/>
        <pt x="790" y="128" on="0"/>
        <pt x="683" y="53" on="1"/>
        <pt x="616" y="6" on="0"/>
        <pt x="544" y="-6" on="1"/>
        <pt x="613" y="-103" on="0"/>
        <pt x="613" y="-199" on="1"/>
        <pt x="613" y="-242" on="0"/>
        <pt x="572" y="-277" on="0"/>
        <pt x="542" y="-295" on="0"/>
        <pt x="502" y="-305" on="0"/>
        <pt x="469" y="-311" on="0"/>
        <pt x="448" y="-312" on="1"/>
        <pt x="414" y="-314" on="1"/>
        <pt x="403" y="-314" on="0"/>
        <pt x="373" y="-313" on="0"/>
        <pt x="372" y="-313" on="1"/>
      </contour>
      <contour>
        <pt x="227" y="1373" on="1"/>
        <pt x="330" y="1431" on="1"/>
        <pt x="349" y="1387" on="0"/>
        <pt x="422" y="1324" on="0"/>
        <pt x="500" y="1324" on="0"/>
        <pt x="573" y="1387" on="0"/>
        <pt x="592" y="1431" on="1"/>
        <pt x="695" y="1373" on="1"/>
        <pt x="669" y="1290" on="0"/>
        <pt x="532" y="1195" on="0"/>
        <pt x="390" y="1195" on="0"/>
        <pt x="253" y="1290" on="0"/>
      </contour>
    </TTGlyph>
    <TTGlyph name="ecircumflex" xMin="59" yMin="-18" xMax="880" yMax="1538">
      <component glyphName="asciicircum" x="173" y="92" flags="0x4"/>
      <component glyphName="e" x="0" y="0" flags="0x4"/>
    </TTGlyph>
    <TTGlyph name="ecircumflexacute" xMin="59" yMin="-18" xMax="880" yMax="2021">
      <component glyphName="acute" x="292" y="502" flags="0x4"/>
      <component glyphName="asciicircum" x="173" y="92" flags="0x4"/>
      <component glyphName="e" x="0" y="0" flags="0x4"/>
    </TTGlyph>
    <TTGlyph name="ecircumflexbelow" xMin="59" yMin="-449" xMax="880" yMax="1073">
      <component glyphName="asciicircum" x="184" y="-1552" flags="0x4"/>
      <component glyphName="e" x="0" y="0" flags="0x4"/>
    </TTGlyph>
    <TTGlyph name="ecircumflexdotbelow" xMin="59" yMin="-283" xMax="880" yMax="1502">
      <component glyphName="asciicircum" x="168" y="56" flags="0x4"/>
      <component glyphName="dotaccent" x="496" y="-405" flags="0x4"/>
      <component glyphName="e" x="0" y="0" flags="0x4"/>
    </TTGlyph>
    <TTGlyph name="ecircumflexgrave" xMin="59" yMin="-18" xMax="880" yMax="2020">
      <component glyphName="grave" x="-15" y="502" flags="0x4"/>
      <component glyphName="asciicircum" x="173" y="92" flags="0x4"/>
      <component glyphName="e" x="0" y="0" flags="0x4"/>
    </TTGlyph>
    <TTGlyph name="ecircumflextilde" xMin="59" yMin="-18" xMax="880" yMax="1860">
      <component glyphName="asciitilde" x="51" y="482" flags="0x4"/>
      <component glyphName="asciicircum" x="173" y="92" flags="0x4"/>
      <component glyphName="e" x="0" y="0" flags="0x4"/>
    </TTGlyph>
    <TTGlyph name="edblgrave" xMin="59" yMin="-18" xMax="954" yMax="1611">
      <component glyphName="grave" x="357" y="93" flags="0x4"/>
      <component glyphName="grave" x="4" y="93" flags="0x4"/>
      <component glyphName="e" x="0" y="0" flags="0x4"/>
    </TTGlyph>
    <TTGlyph name="edieresis" xMin="59" yMin="-18" xMax="880" yMax="1438">
      <component glyphName="dieresis" x="158" y="-8" flags="0x4"/>
      <component glyphName="e" x="0" y="0" flags="0x4"/>
    </TTGlyph>
    <TTGlyph name="edotaccent" xMin="59" yMin="-18" xMax="880" yMax="1431">
      <component glyphName="dotaccent" x="480" y="1066" flags="0x4"/>
      <component glyphName="e" x="0" y="0" flags="0x4"/>
    </TTGlyph>
    <TTGlyph name="edotbelow" xMin="59" yMin="-283" xMax="880" yMax="1073">
      <component glyphName="dotaccent" x="496" y="-405" flags="0x4"/>
      <component glyphName="e" x="0" y="0" flags="0x4"/>
    </TTGlyph>
    <TTGlyph name="egrave" xMin="59" yMin="-18" xMax="880" yMax="1619">
      <component glyphName="grave" x="3" y="101" flags="0x4"/>
      <component glyphName="e" x="0" y="0" flags="0x4"/>
    </TTGlyph>
    <TTGlyph name="eight" xMin="86" yMin="-18" xMax="1132" yMax="1531">
      <contour>
        <pt x="594" y="907" on="1"/>
        <pt x="838" y="1019" on="0"/>
        <pt x="838" y="1152" on="1"/>
        <pt x="838" y="1199" on="0"/>
        <pt x="767" y="1283" on="0"/>
        <pt x="661" y="1330" on="0"/>
        <pt x="565" y="1330" on="0"/>
        <pt x="463" y="1281" on="0"/>
        <pt x="386" y="1192" on="0"/>
        <pt x="386" y="1067" on="0"/>
        <pt x="507" y="943" on="0"/>
      </contour>
      <contour>
        <pt x="374" y="285" on="1"/>
        <pt x="473" y="183" on="0"/>
        <pt x="637" y="183" on="1"/>
        <pt x="720" y="183" on="0"/>
        <pt x="804" y="243" on="1"/>
        <pt x="842" y="271" on="0"/>
        <pt x="893" y="355" on="0"/>
        <pt x="893" y="402" on="1"/>
        <pt x="893" y="573" on="0"/>
        <pt x="597" y="700" on="1"/>
        <pt x="487" y="655" on="0"/>
        <pt x="325" y="476" on="0"/>
        <pt x="325" y="336" on="0"/>
      </contour>
      <contour>
        <pt x="86" y="394" on="1"/>
        <pt x="86" y="563" on="0"/>
        <pt x="234" y="696" on="1"/>
        <pt x="308" y="761" on="0"/>
        <pt x="399" y="805" on="1"/>
        <pt x="279" y="858" on="0"/>
        <pt x="147" y="1036" on="0"/>
        <pt x="147" y="1252" on="0"/>
        <pt x="269" y="1429" on="0"/>
        <pt x="484" y="1531" on="0"/>
        <pt x="714" y="1531" on="0"/>
        <pt x="888" y="1466" on="0"/>
        <pt x="948" y="1413" on="1"/>
        <pt x="1077" y="1299" on="0"/>
        <pt x="1077" y="1154" on="1"/>
        <pt x="1077" y="999" on="0"/>
        <pt x="899" y="862" on="1"/>
        <pt x="853" y="825" on="0"/>
        <pt x="801" y="797" on="1"/>
        <pt x="861" y="767" on="1"/>
        <pt x="1030" y="680" on="0"/>
        <pt x="1090" y="566" on="1"/>
        <pt x="1132" y="487" on="0"/>
        <pt x="1132" y="309" on="0"/>
        <pt x="1049" y="156" on="0"/>
        <pt x="981" y="101" on="1"/>
        <pt x="833" y="-18" on="0"/>
        <pt x="488" y="-18" on="0"/>
        <pt x="235" y="83" on="0"/>
        <pt x="86" y="273" on="0"/>
      </contour>
    </TTGlyph>
    <TTGlyph name="einvertedbreve" xMin="59" yMin="-18" xMax="880" yMax="1424">
      <component glyphName="breveinvertedcomb" x="215" y="73" flags="0x4"/>
      <component glyphName="e" x="0" y="0" flags="0x4"/>
    </TTGlyph>
    <TTGlyph name="ellipsis" xMin="56" yMin="0" xMax="968" yMax="243">
      <component glyphName="period" x="674" y="0" flags="0x4"/>
      <component glyphName="period" x="340" y="0" flags="0x4"/>
      <component glyphName="period" x="6" y="0" flags="0x4"/>
    </TTGlyph>
    <TTGlyph name="emacron" xMin="59" yMin="-18" xMax="880" yMax="1309">
      <component glyphName="macron" x="127" y="-43" flags="0x4"/>
      <component glyphName="e" x="0" y="0" flags="0x4"/>
    </TTGlyph>
    <TTGlyph name="emacronacute" xMin="59" yMin="-18" xMax="880" yMax="1826">
      <component glyphName="acute" x="292" y="307" flags="0x4"/>
      <component glyphName="macron" x="127" y="-43" flags="0x4"/>
      <component glyphName="e" x="0" y="0" flags="0x4"/>
    </TTGlyph>
    <TTGlyph name="emacrongrave" xMin="59" yMin="-18" xMax="880" yMax="1825">
      <component glyphName="grave" x="-15" y="307" flags="0x4"/>
      <component glyphName="macron" x="127" y="-43" flags="0x4"/>
      <component glyphName="e" x="0" y="0" flags="0x4"/>
    </TTGlyph>
    <TTGlyph name="emdash" xMin="0" yMin="488" xMax="2048" yMax="669">
      <contour>
        <pt x="0" y="669" on="1"/>
        <pt x="2048" y="669" on="1"/>
        <pt x="2048" y="488" on="1"/>
        <pt x="0" y="488" on="1"/>
      </contour>
    </TTGlyph>
    <TTGlyph name="endash" xMin="0" yMin="488" xMax="1024" yMax="669">
      <contour>
        <pt x="0" y="669" on="1"/>
        <pt x="1024" y="669" on="1"/>
        <pt x="1024" y="488" on="1"/>
        <pt x="0" y="488" on="1"/>
      </contour>
    </TTGlyph>
    <TTGlyph name="eogonek" xMin="59" yMin="-353" xMax="880" yMax="1073">
      <contour>
        <pt x="527" y="-150" on="1"/>
        <pt x="527" y="-196" on="0"/>
        <pt x="652" y="-196" on="1"/>
        <pt x="652" y="-348" on="1"/>
        <pt x="546" y="-353" on="0"/>
        <pt x="460" y="-327" on="0"/>
        <pt x="415" y="-307" on="0"/>
        <pt x="401" y="-293" on="1"/>
        <pt x="348" y="-242" on="0"/>
        <pt x="380" y="-137" on="1"/>
        <pt x="400" y="-71" on="0"/>
        <pt x="450" y="-15" on="1"/>
        <pt x="379" y="-9" on="0"/>
        <pt x="324" y="11" on="1"/>
        <pt x="246" y="40" on="0"/>
        <pt x="147" y="136" on="0"/>
        <pt x="84" y="273" on="0"/>
        <pt x="59" y="418" on="0"/>
        <pt x="59" y="639" on="0"/>
        <pt x="111" y="847" on="0"/>
        <pt x="193" y="970" on="0"/>
        <pt x="251" y="1008" on="1"/>
        <pt x="350" y="1073" on="0"/>
        <pt x="484" y="1073" on="1"/>
        <pt x="610" y="1073" on="0"/>
        <pt x="704" y="998" on="1"/>
        <pt x="880" y="856" on="0"/>
        <pt x="872" y="471" on="1"/>
        <pt x="273" y="471" on="1"/>
        <pt x="273" y="269" on="0"/>
        <pt x="380" y="199" on="1"/>
        <pt x="435" y="163" on="0"/>
        <pt x="556" y="163" on="0"/>
        <pt x="636" y="193" on="0"/>
        <pt x="684" y="231" on="0"/>
        <pt x="704" y="256" on="1"/>
        <pt x="731" y="291" on="0"/>
        <pt x="741" y="316" on="1"/>
        <pt x="877" y="228" on="1"/>
        <pt x="803" y="99" on="0"/>
        <pt x="719" y="44" on="1"/>
        <pt x="651" y="-1" on="0"/>
        <pt x="573" y="-14" on="1"/>
        <pt x="527" y="-77" on="0"/>
      </contour>
      <contour>
        <pt x="283" y="652" on="1"/>
        <pt x="653" y="652" on="1"/>
        <pt x="653" y="730" on="0"/>
        <pt x="626" y="787" on="1"/>
        <pt x="574" y="892" on="0"/>
        <pt x="482" y="892" on="1"/>
        <pt x="427" y="892" on="0"/>
        <pt x="344" y="843" on="0"/>
        <pt x="323" y="804" on="1"/>
        <pt x="283" y="731" on="0"/>
      </contour>
    </TTGlyph>
    <TTGlyph name="equal" xMin="59" yMin="440" xMax="883" yMax="1003">
      <contour>
        <pt x="59" y="788" on="1"/>
        <pt x="59" y="1003" on="1"/>
        <pt x="883" y="1003" on="1"/>
        <pt x="883" y="788" on="1"/>
      </contour>
      <contour>
        <pt x="59" y="440" on="1"/>
        <pt x="59" y="655" on="1"/>
        <pt x="883" y="655" on="1"/>
        <pt x="883" y="440" on="1"/>
      </contour>
    </TTGlyph>
    <TTGlyph name="eth" xMin="59" yMin="-18" xMax="923" yMax="1515">
      <contour>
        <pt x="278" y="644" on="1"/>
        <pt x="273" y="593" on="0"/>
        <pt x="273" y="470" on="0"/>
        <pt x="286" y="368" on="0"/>
        <pt x="318" y="272" on="0"/>
        <pt x="342" y="238" on="1"/>
        <pt x="395" y="163" on="0"/>
        <pt x="491" y="163" on="1"/>
        <pt x="709" y="163" on="0"/>
        <pt x="709" y="527" on="1"/>
        <pt x="709" y="736" on="0"/>
        <pt x="645" y="822" on="1"/>
        <pt x="593" y="892" on="0"/>
        <pt x="491" y="892" on="1"/>
        <pt x="303" y="892" on="0"/>
      </contour>
      <contour>
        <pt x="59" y="528" on="1"/>
        <pt x="59" y="778" on="0"/>
        <pt x="290" y="1073" on="0"/>
        <pt x="491" y="1073" on="1"/>
        <pt x="564" y="1073" on="0"/>
        <pt x="622" y="1057" on="0"/>
        <pt x="647" y="1048" on="1"/>
        <pt x="643" y="1072" on="0"/>
        <pt x="593" y="1202" on="0"/>
        <pt x="581" y="1222" on="1"/>
        <pt x="402" y="1120" on="1"/>
        <pt x="332" y="1239" on="1"/>
        <pt x="514" y="1345" on="1"/>
        <pt x="474" y="1398" on="0"/>
        <pt x="359" y="1506" on="0"/>
        <pt x="343" y="1515" on="1"/>
        <pt x="550" y="1515" on="1"/>
        <pt x="586" y="1496" on="0"/>
        <pt x="651" y="1423" on="1"/>
        <pt x="812" y="1515" on="1"/>
        <pt x="882" y="1396" on="1"/>
        <pt x="741" y="1314" on="1"/>
        <pt x="908" y="1039" on="0"/>
        <pt x="921" y="640" on="1"/>
        <pt x="923" y="581" on="0"/>
        <pt x="923" y="409" on="0"/>
        <pt x="894" y="254" on="0"/>
        <pt x="828" y="123" on="0"/>
        <pt x="778" y="78" on="1"/>
        <pt x="673" y="-18" on="0"/>
        <pt x="491" y="-18" on="1"/>
        <pt x="226" y="-18" on="0"/>
        <pt x="122" y="201" on="1"/>
        <pt x="59" y="332" on="0"/>
      </contour>
    </TTGlyph>
    <TTGlyph name="etilde" xMin="59" yMin="-18" xMax="880" yMax="1451">
      <component glyphName="asciitilde" x="51" y="73" flags="0x4"/>
      <component glyphName="e" x="0" y="0" flags="0x4"/>
    </TTGlyph>
    <TTGlyph name="etildebelow" xMin="59" yMin="-333" xMax="880" yMax="1073">
      <component glyphName="asciitilde" x="67" y="-1445" flags="0x4"/>
      <component glyphName="e" x="0" y="0" flags="0x4"/>
    </TTGlyph>
    <TTGlyph name="eturned" xMin="39" yMin="-18" xMax="860" yMax="1072">
      <component glyphName="e" x="919" y="1055" scale="-0.999938964844" flags="0x4"/>
    </TTGlyph>
    <TTGlyph name="exclam" xMin="48" yMin="0" xMax="294" yMax="1446">
      <contour>
        <pt x="48" y="1446" on="1"/>
        <pt x="291" y="1446" on="1"/>
        <pt x="254" y="346" on="1"/>
        <pt x="86" y="346" on="1"/>
      </contour>
      <contour>
        <pt x="50" y="0" on="1"/>
        <pt x="50" y="243" on="1"/>
        <pt x="294" y="243" on="1"/>
        <pt x="294" y="0" on="1"/>
      </contour>
    </TTGlyph>
    <TTGlyph name="exclamdbl" xMin="53" yMin="0" xMax="633" yMax="1446">
      <component glyphName="exclam" x="339" y="0" flags="0x4"/>
      <component glyphName="exclam" x="5" y="0" flags="0x4"/>
    </TTGlyph>
    <TTGlyph name="exclamdown" xMin="48" yMin="-169" xMax="294" yMax="1277">
      <contour>
        <pt x="294" y="-169" on="1"/>
        <pt x="51" y="-169" on="1"/>
        <pt x="88" y="931" on="1"/>
        <pt x="256" y="931" on="1"/>
      </contour>
      <contour>
        <pt x="292" y="1277" on="1"/>
        <pt x="292" y="1034" on="1"/>
        <pt x="48" y="1034" on="1"/>
        <pt x="48" y="1277" on="1"/>
      </contour>
    </TTGlyph>
    <TTGlyph name="exclamlatin" xMin="53" yMin="0" xMax="299" yMax="1446">
      <component glyphName="exclam" x="5" y="0" flags="0x204"/>
    </TTGlyph>
    <TTGlyph name="exclamquestion" xMin="53" yMin="0" xMax="1141" yMax="1526">
      <component glyphName="question" x="340" y="0" flags="0x4"/>
      <component glyphName="exclam" x="5" y="0" flags="0x4"/>
    </TTGlyph>
    <TTGlyph name="f" xMin="2" yMin="0" xMax="586" yMax="1530">
      <contour>
        <pt x="507" y="1530" on="1"/>
        <pt x="581" y="1530" on="0"/>
        <pt x="586" y="1515" on="1"/>
        <pt x="586" y="1336" on="1"/>
        <pt x="518" y="1336" on="1"/>
        <pt x="437" y="1335" on="0"/>
        <pt x="412" y="1317" on="1"/>
        <pt x="368" y="1284" on="0"/>
        <pt x="368" y="1235" on="1"/>
        <pt x="368" y="1055" on="1"/>
        <pt x="586" y="1055" on="1"/>
        <pt x="586" y="874" on="1"/>
        <pt x="368" y="874" on="1"/>
        <pt x="368" y="0" on="1"/>
        <pt x="154" y="0" on="1"/>
        <pt x="154" y="874" on="1"/>
        <pt x="2" y="874" on="1"/>
        <pt x="2" y="1055" on="1"/>
        <pt x="154" y="1055" on="1"/>
        <pt x="154" y="1281" on="1"/>
        <pt x="154" y="1530" on="0"/>
      </contour>
    </TTGlyph>
    <TTGlyph name="fdotaccent" xMin="2" yMin="0" xMax="586" yMax="1889">
      <component glyphName="dotaccent" x="329" y="1524" flags="0x4"/>
      <component glyphName="f" x="0" y="0" flags="0x4"/>
    </TTGlyph>
    <TTGlyph name="ff" xMin="-7" yMin="0" xMax="963" yMax="1530">
      <contour>
        <pt x="536" y="1336" on="1"/>
        <pt x="477" y="1352" on="0"/>
        <pt x="359" y="1298" on="0"/>
        <pt x="359" y="1235" on="1"/>
        <pt x="359" y="1055" on="1"/>
        <pt x="531" y="1055" on="1"/>
        <pt x="531" y="1281" on="1"/>
        <pt x="531" y="1308" on="0"/>
      </contour>
      <contour>
        <pt x="895" y="1336" on="1"/>
        <pt x="745" y="1336" on="0"/>
        <pt x="745" y="1235" on="1"/>
        <pt x="745" y="1055" on="1"/>
        <pt x="963" y="1055" on="1"/>
        <pt x="963" y="874" on="1"/>
        <pt x="745" y="874" on="1"/>
        <pt x="745" y="0" on="1"/>
        <pt x="531" y="0" on="1"/>
        <pt x="531" y="874" on="1"/>
        <pt x="359" y="874" on="1"/>
        <pt x="359" y="0" on="1"/>
        <pt x="145" y="0" on="1"/>
        <pt x="145" y="874" on="1"/>
        <pt x="-7" y="874" on="1"/>
        <pt x="-7" y="1055" on="1"/>
        <pt x="145" y="1055" on="1"/>
        <pt x="145" y="1281" on="1"/>
        <pt x="145" y="1530" on="0"/>
        <pt x="518" y="1530" on="1"/>
        <pt x="602" y="1530" on="0"/>
        <pt x="659" y="1491" on="1"/>
        <pt x="744" y="1530" on="0"/>
        <pt x="956" y="1530" on="0"/>
        <pt x="963" y="1515" on="1"/>
        <pt x="963" y="1336" on="1"/>
      </contour>
    </TTGlyph>
    <TTGlyph name="ffi" xMin="-7" yMin="0" xMax="1211" yMax="1530">
      <contour>
        <pt x="536" y="1336" on="1"/>
        <pt x="359" y="1336" on="0"/>
        <pt x="359" y="1235" on="1"/>
        <pt x="359" y="1055" on="1"/>
        <pt x="531" y="1055" on="1"/>
        <pt x="531" y="1281" on="1"/>
        <pt x="531" y="1308" on="0"/>
      </contour>
      <contour>
        <pt x="518" y="1530" on="1"/>
        <pt x="603" y="1530" on="0"/>
        <pt x="658" y="1491" on="1"/>
        <pt x="752" y="1530" on="0"/>
        <pt x="1021" y="1530" on="0"/>
        <pt x="1211" y="1515" on="1"/>
        <pt x="1211" y="1272" on="1"/>
        <pt x="968" y="1272" on="1"/>
        <pt x="968" y="1336" on="1"/>
        <pt x="959" y="1337" on="0"/>
        <pt x="929" y="1337" on="0"/>
        <pt x="852" y="1330" on="0"/>
        <pt x="793" y="1313" on="0"/>
        <pt x="745" y="1268" on="0"/>
        <pt x="745" y="1235" on="1"/>
        <pt x="745" y="1055" on="1"/>
        <pt x="1197" y="1055" on="1"/>
        <pt x="1197" y="0" on="1"/>
        <pt x="983" y="0" on="1"/>
        <pt x="983" y="874" on="1"/>
        <pt x="745" y="874" on="1"/>
        <pt x="745" y="0" on="1"/>
        <pt x="531" y="0" on="1"/>
        <pt x="531" y="874" on="1"/>
        <pt x="359" y="874" on="1"/>
        <pt x="359" y="0" on="1"/>
        <pt x="145" y="0" on="1"/>
        <pt x="145" y="874" on="1"/>
        <pt x="-7" y="874" on="1"/>
        <pt x="-7" y="1055" on="1"/>
        <pt x="145" y="1055" on="1"/>
        <pt x="145" y="1281" on="1"/>
        <pt x="145" y="1530" on="0"/>
      </contour>
    </TTGlyph>
    <TTGlyph name="ffl" xMin="-7" yMin="-3" xMax="1197" yMax="1530">
      <contour>
        <pt x="940" y="1336" on="1"/>
        <pt x="745" y="1336" on="0"/>
        <pt x="745" y="1235" on="1"/>
        <pt x="745" y="1055" on="1"/>
        <pt x="983" y="1055" on="1"/>
        <pt x="983" y="1336" on="1"/>
      </contour>
      <contour>
        <pt x="145" y="1281" on="1"/>
        <pt x="145" y="1530" on="0"/>
        <pt x="518" y="1530" on="1"/>
        <pt x="620" y="1530" on="0"/>
        <pt x="659" y="1491" on="1"/>
        <pt x="705" y="1514" on="0"/>
        <pt x="774" y="1518" on="1"/>
        <pt x="870" y="1524" on="1"/>
        <pt x="926" y="1527" on="0"/>
        <pt x="1101" y="1520" on="0"/>
        <pt x="1130" y="1519" on="0"/>
        <pt x="1196" y="1515" on="0"/>
        <pt x="1197" y="1515" on="1"/>
        <pt x="1197" y="-3" on="1"/>
        <pt x="983" y="-3" on="1"/>
        <pt x="983" y="874" on="1"/>
        <pt x="745" y="874" on="1"/>
        <pt x="745" y="0" on="1"/>
        <pt x="531" y="0" on="1"/>
        <pt x="531" y="874" on="1"/>
        <pt x="359" y="874" on="1"/>
        <pt x="359" y="0" on="1"/>
        <pt x="145" y="0" on="1"/>
        <pt x="145" y="874" on="1"/>
        <pt x="-7" y="874" on="1"/>
        <pt x="-7" y="1055" on="1"/>
        <pt x="145" y="1055" on="1"/>
      </contour>
      <contour>
        <pt x="536" y="1336" on="1"/>
        <pt x="477" y="1352" on="0"/>
        <pt x="359" y="1298" on="0"/>
        <pt x="359" y="1235" on="1"/>
        <pt x="359" y="1055" on="1"/>
        <pt x="531" y="1055" on="1"/>
        <pt x="531" y="1281" on="1"/>
        <pt x="531" y="1308" on="0"/>
      </contour>
    </TTGlyph>
    <TTGlyph name="fi" xMin="-7" yMin="0" xMax="825" yMax="1530">
      <contour>
        <pt x="145" y="1281" on="1"/>
        <pt x="145" y="1530" on="0"/>
        <pt x="518" y="1530" on="1"/>
        <pt x="635" y="1530" on="0"/>
        <pt x="825" y="1515" on="1"/>
        <pt x="825" y="1272" on="1"/>
        <pt x="582" y="1272" on="1"/>
        <pt x="582" y="1336" on="1"/>
        <pt x="573" y="1337" on="0"/>
        <pt x="543" y="1337" on="0"/>
        <pt x="466" y="1330" on="0"/>
        <pt x="407" y="1313" on="0"/>
        <pt x="359" y="1268" on="0"/>
        <pt x="359" y="1235" on="1"/>
        <pt x="359" y="1055" on="1"/>
        <pt x="811" y="1055" on="1"/>
        <pt x="811" y="0" on="1"/>
        <pt x="597" y="0" on="1"/>
        <pt x="597" y="874" on="1"/>
        <pt x="359" y="874" on="1"/>
        <pt x="359" y="0" on="1"/>
        <pt x="145" y="0" on="1"/>
        <pt x="145" y="874" on="1"/>
        <pt x="-7" y="874" on="1"/>
        <pt x="-7" y="1055" on="1"/>
        <pt x="145" y="1055" on="1"/>
      </contour>
    </TTGlyph>
    <TTGlyph name="figuredash" xMin="0" yMin="488" xMax="1131" yMax="669">
      <contour>
        <pt x="0" y="669" on="1"/>
        <pt x="1131" y="669" on="1"/>
        <pt x="1131" y="488" on="1"/>
        <pt x="0" y="488" on="1"/>
      </contour>
    </TTGlyph>
    <TTGlyph name="five" xMin="69" yMin="-18" xMax="1009" yMax="1515">
      <contour>
        <pt x="69" y="291" on="1"/>
        <pt x="228" y="405" on="1"/>
        <pt x="264" y="315" on="0"/>
        <pt x="340" y="247" on="1"/>
        <pt x="413" y="183" on="0"/>
        <pt x="508" y="183" on="1"/>
        <pt x="610" y="183" on="0"/>
        <pt x="686" y="264" on="1"/>
        <pt x="770" y="356" on="0"/>
        <pt x="770" y="529" on="1"/>
        <pt x="770" y="716" on="0"/>
        <pt x="664" y="792" on="1"/>
        <pt x="608" y="832" on="0"/>
        <pt x="495" y="832" on="0"/>
        <pt x="411" y="799" on="0"/>
        <pt x="384" y="775" on="1"/>
        <pt x="327" y="724" on="0"/>
        <pt x="321" y="686" on="1"/>
        <pt x="118" y="686" on="1"/>
        <pt x="118" y="1515" on="1"/>
        <pt x="926" y="1515" on="1"/>
        <pt x="926" y="1314" on="1"/>
        <pt x="357" y="1314" on="1"/>
        <pt x="357" y="993" on="1"/>
        <pt x="364" y="1007" on="0"/>
        <pt x="486" y="1034" on="0"/>
        <pt x="635" y="1034" on="0"/>
        <pt x="803" y="961" on="0"/>
        <pt x="932" y="833" on="0"/>
        <pt x="1009" y="643" on="0"/>
        <pt x="1009" y="373" on="0"/>
        <pt x="886" y="121" on="0"/>
        <pt x="662" y="-18" on="0"/>
        <pt x="517" y="-18" on="1"/>
        <pt x="306" y="-18" on="0"/>
        <pt x="162" y="137" on="1"/>
        <pt x="89" y="215" on="0"/>
      </contour>
    </TTGlyph>
    <TTGlyph name="fl" xMin="-7" yMin="-3" xMax="811" yMax="1532">
      <contour>
        <pt x="597" y="1336" on="1"/>
        <pt x="359" y="1341" on="0"/>
        <pt x="359" y="1235" on="1"/>
        <pt x="359" y="1055" on="1"/>
        <pt x="597" y="1055" on="1"/>
      </contour>
      <contour>
        <pt x="145" y="1281" on="1"/>
        <pt x="145" y="1530" on="0"/>
        <pt x="518" y="1530" on="1"/>
        <pt x="603" y="1532" on="0"/>
        <pt x="762" y="1519" on="1"/>
        <pt x="811" y="1515" on="1"/>
        <pt x="811" y="-3" on="1"/>
        <pt x="597" y="-3" on="1"/>
        <pt x="597" y="874" on="1"/>
        <pt x="359" y="874" on="1"/>
        <pt x="359" y="0" on="1"/>
        <pt x="145" y="0" on="1"/>
        <pt x="145" y="874" on="1"/>
        <pt x="-7" y="874" on="1"/>
        <pt x="-7" y="1055" on="1"/>
        <pt x="145" y="1055" on="1"/>
      </contour>
    </TTGlyph>
    <TTGlyph name="four" xMin="115" yMin="0" xMax="1217" yMax="1515">
      <contour>
        <pt x="373" y="552" on="1"/>
        <pt x="747" y="552" on="1"/>
        <pt x="747" y="1130" on="1"/>
      </contour>
      <contour>
        <pt x="115" y="351" on="1"/>
        <pt x="115" y="546" on="1"/>
        <pt x="747" y="1515" on="1"/>
        <pt x="987" y="1515" on="1"/>
        <pt x="987" y="552" on="1"/>
        <pt x="1217" y="552" on="1"/>
        <pt x="1217" y="351" on="1"/>
        <pt x="987" y="351" on="1"/>
        <pt x="987" y="0" on="1"/>
        <pt x="747" y="0" on="1"/>
        <pt x="747" y="351" on="1"/>
      </contour>
    </TTGlyph>
    <TTGlyph name="fraction" xMin="70" yMin="-47" xMax="976" yMax="1554">
      <contour>
        <pt x="70" y="-47" on="1"/>
        <pt x="818" y="1554" on="1"/>
        <pt x="976" y="1554" on="1"/>
        <pt x="228" y="-47" on="1"/>
      </contour>
    </TTGlyph>
    <TTGlyph name="g" xMin="20" yMin="-452" xMax="992" yMax="1076">
      <contour>
        <pt x="364" y="316" on="1"/>
        <pt x="355" y="307" on="0"/>
        <pt x="331" y="291" on="1"/>
        <pt x="284" y="259" on="0"/>
        <pt x="284" y="224" on="1"/>
        <pt x="284" y="177" on="0"/>
        <pt x="435" y="159" on="1"/>
        <pt x="463" y="155" on="0"/>
        <pt x="477" y="154" on="0"/>
        <pt x="535" y="153" on="0"/>
        <pt x="567" y="152" on="0"/>
        <pt x="638" y="144" on="0"/>
        <pt x="670" y="137" on="1"/>
        <pt x="842" y="98" on="0"/>
        <pt x="890" y="55" on="1"/>
        <pt x="990" y="-36" on="0"/>
        <pt x="990" y="-162" on="1"/>
        <pt x="990" y="-452" on="0"/>
        <pt x="498" y="-452" on="1"/>
        <pt x="293" y="-452" on="0"/>
        <pt x="161" y="-384" on="1"/>
        <pt x="20" y="-312" on="0"/>
        <pt x="20" y="-163" on="1"/>
        <pt x="20" y="-31" on="0"/>
        <pt x="212" y="42" on="1"/>
        <pt x="152" y="50" on="0"/>
        <pt x="70" y="139" on="0"/>
        <pt x="70" y="200" on="1"/>
        <pt x="70" y="328" on="0"/>
        <pt x="224" y="395" on="1"/>
        <pt x="172" y="422" on="0"/>
        <pt x="84" y="605" on="0"/>
        <pt x="84" y="809" on="0"/>
        <pt x="199" y="981" on="0"/>
        <pt x="395" y="1073" on="0"/>
        <pt x="516" y="1073" on="1"/>
        <pt x="572" y="1073" on="0"/>
        <pt x="691" y="1030" on="0"/>
        <pt x="716" y="1008" on="1"/>
        <pt x="802" y="1070" on="0"/>
        <pt x="900" y="1074" on="1"/>
        <pt x="914" y="1075" on="0"/>
        <pt x="978" y="1076" on="0"/>
        <pt x="992" y="1076" on="1"/>
        <pt x="992" y="896" on="1"/>
        <pt x="988" y="896" on="1"/>
        <pt x="891" y="906" on="0"/>
        <pt x="858" y="889" on="1"/>
        <pt x="848" y="884" on="0"/>
        <pt x="849" y="874" on="0"/>
        <pt x="871" y="812" on="0"/>
        <pt x="877" y="795" on="1"/>
        <pt x="894" y="739" on="0"/>
        <pt x="894" y="606" on="0"/>
        <pt x="837" y="462" on="0"/>
        <pt x="732" y="356" on="0"/>
        <pt x="575" y="296" on="0"/>
        <pt x="415" y="296" on="0"/>
      </contour>
      <contour>
        <pt x="502" y="478" on="1"/>
        <pt x="631" y="478" on="0"/>
        <pt x="670" y="618" on="1"/>
        <pt x="680" y="653" on="0"/>
        <pt x="680" y="724" on="0"/>
        <pt x="660" y="792" on="0"/>
        <pt x="640" y="823" on="1"/>
        <pt x="595" y="892" on="0"/>
        <pt x="411" y="892" on="0"/>
        <pt x="298" y="788" on="0"/>
        <pt x="298" y="591" on="0"/>
        <pt x="401" y="478" on="0"/>
      </contour>
      <contour>
        <pt x="389" y="-269" on="1"/>
        <pt x="429" y="-272" on="0"/>
        <pt x="520" y="-272" on="0"/>
        <pt x="561" y="-271" on="0"/>
        <pt x="629" y="-267" on="0"/>
        <pt x="673" y="-258" on="0"/>
        <pt x="725" y="-242" on="0"/>
        <pt x="739" y="-230" on="1"/>
        <pt x="775" y="-202" on="0"/>
        <pt x="775" y="-120" on="0"/>
        <pt x="707" y="-66" on="0"/>
        <pt x="603" y="-41" on="0"/>
        <pt x="499" y="-27" on="0"/>
        <pt x="406" y="-19" on="0"/>
        <pt x="394" y="-14" on="1"/>
        <pt x="289" y="-56" on="0"/>
        <pt x="251" y="-101" on="0"/>
        <pt x="233" y="-143" on="0"/>
        <pt x="233" y="-190" on="0"/>
        <pt x="251" y="-223" on="0"/>
        <pt x="277" y="-244" on="0"/>
        <pt x="322" y="-260" on="0"/>
        <pt x="360" y="-267" on="0"/>
      </contour>
    </TTGlyph>
    <TTGlyph name="gacute" xMin="21" yMin="-452" xMax="993" yMax="1614">
      <component glyphName="acute" x="309" y="95" flags="0x4"/>
      <component glyphName="g" x="1" y="0" flags="0x4"/>
    </TTGlyph>
    <TTGlyph name="gbreve" xMin="21" yMin="-452" xMax="993" yMax="1426">
      <component glyphName="breve" x="205" y="75" flags="0x4"/>
      <component glyphName="g" x="1" y="0" flags="0x4"/>
    </TTGlyph>
    <TTGlyph name="gcaron" xMin="21" yMin="-452" xMax="993" yMax="1533">
      <component glyphName="caron" x="164" y="58" flags="0x4"/>
      <component glyphName="g" x="1" y="0" flags="0x4"/>
    </TTGlyph>
    <TTGlyph name="gcircumflex" xMin="21" yMin="-452" xMax="993" yMax="1495">
      <component glyphName="asciicircum" x="164" y="49" flags="0x4"/>
      <component glyphName="g" x="1" y="0" flags="0x4"/>
    </TTGlyph>
    <TTGlyph name="gcommaaccent" xMin="21" yMin="-452" xMax="993" yMax="1562">
      <component glyphName="comma" x="404" y="1365" flags="0x4"/>
      <component glyphName="g" x="1" y="0" flags="0x4"/>
    </TTGlyph>
    <TTGlyph name="gdotaccent" xMin="21" yMin="-452" xMax="993" yMax="1433">
      <component glyphName="dotaccent" x="467" y="1068" flags="0x4"/>
      <component glyphName="g" x="1" y="0" flags="0x4"/>
    </TTGlyph>
</ttFont>
